{
.appVersion = "3501";
.formatVersion = 3;
axes = (
{
name = Weight;
tag = wght;
}
);
date = "2026-03-24 14:08:36 +0000";
familyName = "Console Sans";
featurePrefixes = (
{
automatic = 1;
code = "languagesystem DFLT dflt;
";
name = Languagesystems;
}
);
features = (
{
automatic = 1;
code = "feature calt;
feature ss01;
feature pnum;
";
tag = aalt;
},
{
code = "# this is where the magic happens

# Buttons
sub braceleft b t n braceright by btn;
sub braceleft b t n underscore b l a n k braceright by btn_blank;
sub braceleft b t n underscore a braceright by btn_a;
sub braceleft b t n underscore b braceright by btn_b;
sub braceleft b t n underscore y braceright by btn_y;
sub braceleft b t n underscore x braceright by btn_x;
sub braceleft b t n underscore c i r c l e braceright by btn_circle;
sub braceleft b t n underscore s q u a r e braceright by btn_square;
sub braceleft b t n underscore c r o s s braceright by btn_cross;
sub braceleft b t n underscore t r i a n g l e braceright by btn_triangle;
sub braceleft b t n underscore u p braceright by btn_up;
sub braceleft b t n underscore d o w n braceright by btn_down;
sub braceleft b t n underscore l e f t braceright by btn_left;
sub braceleft b t n underscore r i g h t braceright by btn_right;
sub braceleft b t n underscore a r r o w underscore u p braceright by btn_arrow_up;
sub braceleft b t n underscore a r r o w underscore d o w n braceright by btn_arrow_down;
sub braceleft b t n underscore a r r o w underscore l e f t braceright by btn_arrow_left;
sub braceleft b t n underscore a r r o w underscore r i g h t braceright by btn_arrow_right;
sub braceleft b t n underscore s t a r t braceright by btn_start;
sub braceleft b t n underscore s e l e c t braceright by btn_select;
sub braceleft b t n underscore p l u s braceright by btn_plus;
sub braceleft b t n underscore p l u s one braceright by btn_plus1;
sub braceleft b t n underscore m i n u s braceright by btn_minus;

glyphs = (
{
glyphname = A;
lastChange = "2026-04-28 15:26:15 +0000";
layers = (
{
layerId = m01;
shapes = (
{
closed = 1;
nodes = (
(375,590,l),
(585,0,l),
(703,0,l),
(412,780,l),
(317,780,l)
);
},
{
closed = 1;
nodes = (
(135,219,l),
(543,219,l),
(543,317,l),
(135,317,l)
);
},
{
closed = 1;
nodes = (
(291,780,l),
(0,0,l),
(116,0,l),
(327,593,l),
(384,780,l)
);
}
);
width = 703;
},
{
layerId = m002;
shapes = (
{
closed = 1;
nodes = (
(366,610,l),
(552,0,l),
(743,0,l),
(481,780,l),
(316,780,l)
);
},
{
closed = 1;
nodes = (
(165,162,l),
(573,162,l),
(573,317,l),
(165,317,l)
);
},
{
closed = 1;
nodes = (
(260,780,l),
(-2,0,l),
(187,0,l),
(374,613,l),
(423,780,l)
);
}
);
width = 741;
}
);
unicode = 65;
},
{
glyphname = B;
kernLeft = B;
lastChange = "2026-04-28 15:28:33 +0000";
layers = (
{
layerId = m01;
shapes = (
{
closed = 1;
nodes = (
(209,0,l),
(209,780,l),
(94,780,l),
(94,0,l)
);
},
{
closed = 1;
nodes = (
(167,0,l),
(377,0,ls),
(539,0,o),
(644,88,o),
(644,224,cs),
(644,353,o),
(539,434,o),
(377,434,cs),
(162,434,l),
(162,355,l),
(377,355,ls),
(472,355,o),
(533,301,o),
(533,224,cs),
(533,147,o),
(472,95,o),
(377,95,cs),
(167,95,l)
);
},
{
closed = 1;
nodes = (
(156,384,l),
(366,384,ls),
(516,384,o),
(613,458,o),
(613,576,cs),
(613,700,o),
(516,780,o),
(366,780,cs),
(151,780,l),
(151,687,l),
(366,687,ls),
(448,687,o),
(502,641,o),
(502,576,cs),
(502,499,o),
(448,445,o),
(366,445,cs),
(156,445,l)
);
}
);
width = 684;
},
{
layerId = m002;
shapes = (
{
closed = 1;
nodes = (
(270,0,l),
(270,780,l),
(90,780,l),
(90,0,l)
);
},
{
closed = 1;
nodes = (
(204,0,l),
(445,0,ls),
(588,0,o),
(687,92,o),
(687,218,cs),
(687,347,o),
(584,430,o),
(435,430,cs),
(196,430,l),
(196,328,l),
(405,328,ls),
(465,328,o),
(507,291,o),
(507,238,cs),
(507,186,o),
(465,150,o),
(405,150,cs),
(204,150,l)
);
},
{
closed = 1;
nodes = (
(187,391,l),
(424,391,ls),
(562,391,o),
(656,464,o),
(656,581,cs),
(656,695,o),
(566,780,o),
(434,780,cs),
(179,780,l),
(179,630,l),
(394,630,ls),
(443,630,o),
(476,601,o),
(476,554,cs),
(476,508,o),
(443,473,o),
(394,473,cs),
(187,473,l)
);
}
);
width = 727;
}
);
unicode = 66;
},
{
glyphname = C;
kernLeft = C;
lastChange = "2026-04-28 16:16:04 +0000";
layers = (
{
layerId = m01;
shapes = (
{
closed = 1;
nodes = (
(634,611,l),
(687,700,l),
(630,757,o),
(536,798,o),
(434,798,cs),
(228,798,o),
(57,631,o),
(57,390,cs),
(57,159,o),
(213,-18,o),
(432,-18,cs),
(517,-18,o),
(618,11,o),
(665,52,c),
(665,182,l),
(660,182,l),
(617,125,o),
(527,84,o),
(442,85,cs),
(289,87,o),
(174,213,o),
(174,390,cs),
(174,566,o),
(288,698,o),
(434,698,cs),
(511,698,o),
(589,661,o),
(629,611,c)
);
}
);
width = 722;
},
{
layerId = m002;
shapes = (
{
closed = 1;
nodes = (
(612,551,l),
(685,700,l),
(625,758,o),
(535,798,o),
(430,798,cs),
(219,798,o),
(50,638,o),
(50,390,cs),
(50,154,o),
(204,-18,o),
(429,-18,cs),
(518,-18,o),
(614,9,o),
(665,48,c),
(665,226,l),
(660,226,l),
(605,177,o),
(519,143,o),
(447,143,cs),
(324,143,o),
(238,243,o),
(238,390,cs),
(238,536,o),
(322,638,o),
(439,638,cs),
(507,638,o),
(573,603,o),
(607,551,c)
);
}
);
width = 705;
}
);
unicode = 67;
},
{
glyphname = D;
kernLeft = B;
kernRight = D;
lastChange = "2026-04-28 15:19:44 +0000";
layers = (
{
layerId = m01;
shapes = (
{
closed = 1;
nodes = (
(94,0,l),
(209,0,l),
(209,780,l),
(94,780,l)
);
},
{
closed = 1;
nodes = (
(328,682,ls),
(497,682,o),
(606,567,o),
(606,390,cs),
(606,213,o),
(497,98,o),
(328,98,cs),
(141,98,l),
(141,0,l),
(328,0,ls),
(568,0,o),
(723,153,o),
(723,390,cs),
(723,627,o),
(568,780,o),
(328,780,cs),
(148,780,l),
(148,682,l)
);
}
);
width = 777;
},
{
layerId = m002;
shapes = (
{
closed = 1;
nodes = (
(90,0,l),
(278,0,l),
(278,780,l),
(90,780,l)
);
},
{
closed = 1;
nodes = (
(350,625,ls),
(479,625,o),
(563,533,o),
(563,390,cs),
(563,247,o),
(479,155,o),
(350,155,cs),
(166,155,l),
(166,0,l),
(350,0,ls),
(593,0,o),
(751,153,o),
(751,390,cs),
(751,627,o),
(593,780,o),
(350,780,cs),
(178,780,l),
(178,625,l)
);
}
);
width = 801;
}
);
unicode = 68;
},
{
glyphname = E;
kernLeft = B;
lastChange = "2026-04-28 15:13:52 +0000";
layers = (
{
layerId = m01;
shapes = (
{
closed = 1;
nodes = (
(94,0,l),
(210,0,l),
(210,780,l),
(94,780,l)
);
},
{
closed = 1;
nodes = (
(154,357,l),
(538,357,l),
(538,452,l),
(154,452,l)
);
},
{
closed = 1;
nodes = (
(154,683,l),
(587,683,l),
(587,780,l),
(154,780,l)
);
},
{
closed = 1;
nodes = (
(154,0,l),
(596,0,l),
(596,97,l),
(154,97,l)
);
}
);
width = 648;
},
{
layerId = m002;
shapes = (
{
closed = 1;
nodes = (
(90,0,l),
(278,0,l),
(278,780,l),
(90,780,l)
);
},
{
closed = 1;
nodes = (
(150,330,l),
(554,330,l),
(554,480,l),
(150,480,l)
);
},
{
closed = 1;
nodes = (
(150,625,l),
(603,625,l),
(603,780,l),
(150,780,l)
);
},
{
closed = 1;
nodes = (
(150,0,l),
(612,0,l),
(612,155,l),
(150,155,l)
);
}
);
width = 657;
}
);
unicode = 69;
},
{
glyphname = F;
kernLeft = B;
lastChange = "2026-04-28 15:14:12 +0000";
layers = (
{
layerId = m01;
shapes = (
{
closed = 1;
nodes = (
(94,0,l),
(210,0,l),
(210,780,l),
(94,780,l)
);
},
{
closed = 1;
nodes = (
(154,341,l),
(521,341,l),
(521,437,l),
(154,437,l)
);
},
{
closed = 1;
nodes = (
(154,683,l),
(566,683,l),
(566,780,l),
(154,780,l)
);
}
);
width = 603;
},
{
layerId = m002;
shapes = (
{
closed = 1;
nodes = (
(90,0,l),
(278,0,l),
(278,780,l),
(90,780,l)
);
},
{
closed = 1;
nodes = (
(150,300,l),
(547,300,l),
(547,450,l),
(150,450,l)
);
},
{
closed = 1;
nodes = (
(150,625,l),
(592,625,l),
(592,780,l),
(150,780,l)
);
}
);
width = 627;
}
);
unicode = 70;
},
{
glyphname = G;
kernLeft = C;
lastChange = "2026-04-28 16:14:14 +0000";
layers = (
{
layerId = m01;
shapes = (
{
closed = 1;
nodes = (
(663,591,l),
(720,683,l),
(668,751,o),
(563,798,o),
(445,798,cs),
(222,798,o),
(57,629,o),
(57,390,cs),
(57,145,o),
(230,-18,o),
(450,-18,cs),
(566,-18,o),
(661,27,o),
(714,92,c),
(714,225,l),
(649,225,l),
(643,142,o),
(559,85,o),
(448,85,cs),
(284,85,o),
(174,209,o),
(174,390,cs),
(174,573,o),
(287,698,o),
(445,698,cs),
(539,698,o),
(623,654,o),
(658,591,c)
);
},
{
closed = 1;
nodes = (
(612,127,l),
(714,127,l),
(714,411,l),
(612,411,l)
);
},
{
closed = 1;
nodes = (
(396,313,l),
(681,313,l),
(681,411,l),
(396,411,l)
);
}
);
width = 778;
},
{
layerId = m002;
shapes = (
{
closed = 1;
nodes = (
(650,548,l),
(723,697,l),
(658,757,o),
(560,798,o),
(448,798,cs),
(226,798,o),
(50,637,o),
(50,390,cs),
(50,153,o),
(211,-18,o),
(451,-18,cs),
(550,-18,o),
(654,11,o),
(702,52,c),
(702,230,l),
(618,230,l),
(592,177,o),
(524,142,o),
(449,143,cs),
(325,145,o),
(238,247,o),
(238,390,cs),
(238,538,o),
(331,638,o),
(457,638,cs),
(534,638,o),
(607,601,o),
(645,548,c)
);
},
{
closed = 1;
nodes = (
(544,127,l),
(702,127,l),
(702,437,l),
(544,437,l)
);
},
{
closed = 1;
nodes = (
(384,287,l),
(669,287,l),
(669,437,l),
(384,437,l)
);
}
);
width = 783;
}
);
unicode = 71;
},
{
glyphname = H;
kernLeft = B;
kernRight = H;
lastChange = "2026-04-28 15:53:10 +0000";
layers = (
{
layerId = m01;
shapes = (
{
closed = 1;
nodes = (
(94,0,l),
(210,0,l),
(210,780,l),
(94,780,l)
);
},
{
closed = 1;
nodes = (
(575,0,l),
(691,0,l),
(691,780,l),
(575,780,l)
);
},
{
closed = 1;
nodes = (
(154,355,l),
(648,355,l),
(648,453,l),
(154,453,l)
);
}
);
width = 785;
},
{
layerId = m002;
shapes = (
{
closed = 1;
nodes = (
(90,0,l),
(278,0,l),
(278,780,l),
(90,780,l)
);
},
{
closed = 1;
nodes = (
(541,0,l),
(729,0,l),
(729,780,l),
(541,780,l)
);
},
{
closed = 1;
nodes = (
(186,329,l),
(670,329,l),
(670,479,l),
(186,479,l)
);
}
);
width = 819;
}
);
unicode = 72;
},
{
glyphname = I;
kernLeft = B;
kernRight = H;
lastChange = "2026-04-28 15:11:49 +0000";
layers = (
{
layerId = m01;
shapes = (
{
closed = 1;
nodes = (
(98,0,l),
(214,0,l),
(214,780,l),
(98,780,l)
);
}
);
width = 312;
},
{
layerId = m002;
shapes = (
{
closed = 1;
nodes = (
(90,0,l),
(278,0,l),
(278,780,l),
(90,780,l)
);
}
);
width = 368;
}
);
unicode = 73;
},
{
glyphname = J;
lastChange = "2026-04-28 15:46:44 +0000";
layers = (
{
layerId = m01;
shapes = (
{
closed = 1;
nodes = (
(15,14,l),
(50,-2,o),
(110,-13,o),
(154,-13,cs),
(283,-13,o),
(367,64,o),
(367,175,cs),
(367,780,l),
(252,780,l),
(252,195,ls),
(252,131,o),
(208,87,o),
(134,87,cs),
(98,87,o),
(48,102,o),
(20,124,c),
(15,124,l)
);
}
);
width = 457;
},
{
layerId = m002;
shapes = (
{
closed = 1;
nodes = (
(25,14,l),
(65,-2,o),
(120,-13,o),
(174,-13,cs),
(329,-13,o),
(434,77,o),
(434,215,cs),
(434,780,l),
(246,780,l),
(246,245,ls),
(246,179,o),
(217,137,o),
(154,137,cs),
(116,137,o),
(60,152,o),
(30,174,c),
(25,174,l)
);
}
);
width = 514;
}
);
unicode = 74;
},
{
glyphname = K;
kernLeft = B;
lastChange = "2026-04-28 15:20:23 +0000";
layers = (
{
layerId = m01;
shapes = (
{
closed = 1;
nodes = (
(94,0,l),
(207,0,l),
(207,780,l),
(94,780,l)
);
},
{
closed = 1;
nodes = (
(181,404,l),
(534,0,l),
(683,0,l),
(293,439,l),
(292,371,l),
(683,780,l),
(534,780,l)
);
}
);
width = 693;
},
{
layerId = m002;
shapes = (
{
closed = 1;
nodes = (
(90,0,l),
(278,0,l),
(278,780,l),
(90,780,l)
);
},
{
closed = 1;
nodes = (
(244,404,l),
(527,0,l),
(759,0,l),
(439,439,l),
(438,371,l),
(759,780,l),
(527,780,l)
);
}
);
width = 744;
}
);
unicode = 75;
},
{
glyphname = L;
kernLeft = B;
lastChange = "2026-04-28 15:15:18 +0000";
layers = (
{
layerId = m01;
shapes = (
{
closed = 1;
nodes = (
(94,0,l),
(210,0,l),
(210,780,l),
(94,780,l)
);
},
{
closed = 1;
nodes = (
(154,0,l),
(571,0,l),
(571,104,l),
(154,104,l)
);
}
);
width = 599;
},
{
layerId = m002;
shapes = (
{
closed = 1;
nodes = (
(90,0,l),
(278,0,l),
(278,780,l),
(90,780,l)
);
},
{
closed = 1;
nodes = (
(186,0,l),
(603,0,l),
(603,160,l),
(186,160,l)
);
}
);
width = 633;
}
);
unicode = 76;
},
{
glyphname = M;
kernLeft = B;
kernRight = H;
lastChange = "2026-04-28 15:50:18 +0000";
layers = (
{
layerId = m01;
shapes = (
{
closed = 1;
nodes = (
(94,0,l),
(200,0,l),
(200,589,l),
(190,780,l),
(94,780,l)
);
},
{
closed = 1;
nodes = (
(749,780,l),
(739,589,l),
(739,0,l),
(845,0,l),
(845,780,l)
);
},
{
closed = 1;
nodes = (
(451,232,l),
(256,780,l),
(148,780,l),
(421,0,l),
(507,0,l)
);
},
{
closed = 1;
nodes = (
(516,0,l),
(789,780,l),
(682,780,l),
(488,232,l),
(432,0,l)
);
}
);
width = 939;
},
{
layerId = m002;
shapes = (
{
closed = 1;
nodes = (
(90,0,l),
(260,0,l),
(260,589,l),
(245,780,l),
(90,780,l)
);
},
{
closed = 1;
nodes = (
(742,780,l),
(716,589,l),
(716,0,l),
(901,0,l),
(901,780,l)
);
},
{
closed = 1;
nodes = (
(511,232,l),
(344,780,l),
(174,780,l),
(409,0,l),
(559,0,l)
);
},
{
closed = 1;
nodes = (
(568,0,l),
(803,780,l),
(645,780,l),
(478,232,l),
(430,0,l)
);
}
);
width = 991;
}
);
unicode = 77;
},
{
glyphname = N;
kernLeft = B;
kernRight = H;
lastChange = "2026-04-28 15:30:39 +0000";
layers = (
{
layerId = m01;
shapes = (
{
closed = 1;
nodes = (
(94,0,l),
(203,0,l),
(203,550,l),
(183,780,l),
(94,780,l)
);
},
{
closed = 1;
nodes = (
(592,230,l),
(612,0,l),
(701,0,l),
(701,780,l),
(592,780,l)
);
},
{
closed = 1;
nodes = (
(160,699,l),
(558,0,l),
(684,0,l),
(636,84,l),
(240,780,l),
(114,780,l)
);
}
);
width = 795;
},
{
layerId = m002;
shapes = (
{
closed = 1;
nodes = (
(90,0,l),
(265,0,l),
(265,550,l),
(233,780,l),
(90,780,l)
);
},
{
closed = 1;
nodes = (
(568,230,l),
(600,0,l),
(743,0,l),
(743,780,l),
(568,780,l)
);
},
{
closed = 1;
nodes = (
(200,563,l),
(567,0,l),
(716,0,l),
(630,222,l),
(269,780,l),
(122,780,l)
);
}
);
width = 833;
}
);
unicode = 78;
},
{
glyphname = O;
kernLeft = C;
kernRight = D;
lastChange = "2026-04-28 15:18:21 +0000";
layers = (
{
layerId = m01;
shapes = (
{
closed = 1;
nodes = (
(634,-18,o),
(781,148,o),
(781,390,cs),
(781,632,o),
(634,798,o),
(419,798,cs),
(204,798,o),
(57,632,o),
(57,390,cs),
(57,148,o),
(204,-18,o),
(419,-18,cs)
);
},
{
closed = 1;
nodes = (
(274,82,o),
(174,207,o),
(174,390,cs),
(174,573,o),
(274,698,o),
(419,698,cs),
(564,698,o),
(664,573,o),
(664,390,cs),
(664,207,o),
(564,82,o),
(419,82,cs)
);
}
);
width = 838;
},
{
layerId = m002;
shapes = (
{
closed = 1;
nodes = (
(635,-18,o),
(784,148,o),
(784,390,cs),
(784,632,o),
(635,798,o),
(417,798,cs),
(199,798,o),
(50,632,o),
(50,390,cs),
(50,148,o),
(199,-18,o),
(417,-18,cs)
);
},
{
closed = 1;
nodes = (
(310,142,o),
(237,243,o),
(237,390,cs),
(237,537,o),
(310,638,o),
(417,638,cs),
(524,638,o),
(597,537,o),
(597,390,cs),
(597,243,o),
(524,142,o),
(417,142,cs)
);
}
);
width = 834;
}
);
unicode = 79;
},
{
glyphname = P;
lastChange = "2026-04-28 15:32:07 +0000";
layers = (
{
layerId = m01;
shapes = (
{
closed = 1;
nodes = (
(94,0,l),
(209,0,l),
(209,780,l),
(94,780,l)
);
},
{
closed = 1;
nodes = (
(364,683,ls),
(457,683,o),
(517,625,o),
(517,536,cs),
(517,447,o),
(457,389,o),
(364,389,cs),
(162,389,l),
(162,292,l),
(364,292,ls),
(526,292,o),
(630,388,o),
(630,536,cs),
(630,684,o),
(526,780,o),
(364,780,cs),
(167,780,l),
(167,683,l)
);
}
);
width = 675;
},
{
layerId = m002;
shapes = (
{
closed = 1;
nodes = (
(90,0,l),
(270,0,l),
(270,780,l),
(90,780,l)
);
},
{
closed = 1;
nodes = (
(405,625,ls),
(464,625,o),
(504,585,o),
(504,526,cs),
(504,467,o),
(464,427,o),
(405,427,cs),
(196,427,l),
(196,272,l),
(425,272,ls),
(580,272,o),
(686,375,o),
(686,526,cs),
(686,677,o),
(580,780,o),
(425,780,cs),
(204,780,l),
(204,625,l)
);
}
);
width = 731;
}
);
unicode = 80;
},
{
glyphname = Q;
kernLeft = C;
kernRight = D;
lastChange = "2026-04-28 15:18:36 +0000";
layers = (
{
layerId = m01;
shapes = (
{
closed = 1;
nodes = (
(760,-72,l),
(464,309,l),
(338,309,l),
(634,-72,l)
);
},
{
closed = 1;
nodes = (
(634,-18,o),
(781,148,o),
(781,390,cs),
(781,632,o),
(634,798,o),
(419,798,cs),
(204,798,o),
(57,632,o),
(57,390,cs),
(57,148,o),
(204,-18,o),
(419,-18,cs)
);
},
{
closed = 1;
nodes = (
(274,82,o),
(174,207,o),
(174,390,cs),
(174,573,o),
(274,698,o),
(419,698,cs),
(564,698,o),
(664,573,o),
(664,390,cs),
(664,207,o),
(564,82,o),
(419,82,cs)
);
}
);
width = 838;
},
{
layerId = m002;
shapes = (
{
closed = 1;
nodes = (
(800,-72,l),
(504,309,l),
(308,309,l),
(604,-72,l)
);
},
{
closed = 1;
nodes = (
(635,-18,o),
(784,148,o),
(784,390,cs),
(784,632,o),
(635,798,o),
(417,798,cs),
(199,798,o),
(50,632,o),
(50,390,cs),
(50,148,o),
(199,-18,o),
(417,-18,cs)
);
},
{
closed = 1;
nodes = (
(310,142,o),
(237,243,o),
(237,390,cs),
(237,537,o),
(310,638,o),
(417,638,cs),
(524,638,o),
(597,537,o),
(597,390,cs),
(597,243,o),
(524,142,o),
(417,142,cs)
);
}
);
width = 838;
}
);
unicode = 81;
},
{
glyphname = R;
lastChange = "2026-04-28 15:33:27 +0000";
layers = (
{
layerId = m01;
shapes = (
{
closed = 1;
nodes = (
(94,0,l),
(209,0,l),
(209,780,l),
(94,780,l)
);
},
{
closed = 1;
nodes = (
(394,684,ls),
(481,684,o),
(537,630,o),
(537,546,cs),
(537,462,o),
(481,407,o),
(394,407,cs),
(162,407,l),
(162,314,l),
(394,314,ls),
(550,314,o),
(650,405,o),
(650,546,cs),
(650,688,o),
(550,780,o),
(394,780,cs),
(167,780,l),
(167,684,l)
);
},
{
closed = 1;
nodes = (
(682,0,l),
(407,366,l),
(270,366,l),
(545,0,l)
);
}
);
width = 707;
},
{
layerId = m002;
shapes = (
{
closed = 1;
nodes = (
(90,0,l),
(270,0,l),
(270,780,l),
(90,780,l)
);
},
{
closed = 1;
nodes = (
(405,625,ls),
(458,625,o),
(494,589,o),
(494,536,cs),
(494,483,o),
(458,447,o),
(405,447,cs),
(196,447,l),
(196,292,l),
(425,292,ls),
(574,292,o),
(676,391,o),
(676,536,cs),
(676,681,o),
(574,780,o),
(425,780,cs),
(204,780,l),
(204,625,l)
);
},
{
closed = 1;
nodes = (
(702,0,l),
(507,366,l),
(308,366,l),
(493,0,l)
);
}
);
width = 717;
}
);
unicode = 82;
},
{
glyphname = S;
lastChange = "2026-04-28 15:42:19 +0000";
layers = (
{
layerId = m01;
shapes = (
{
closed = 1;
nodes = (
(551,601,l),
(609,686,l),
(550,752,o),
(444,798,o),
(341,798,cs),
(188,798,o),
(78,698,o),
(78,574,cs),
(78,474,o),
(149,400,o),
(253,371,cs),
(388,333,ls),
(459,313,o),
(508,275,o),
(508,214,cs),
(508,146,o),
(446,82,o),
(350,82,cs),
(264,82,o),
(170,133,o),
(123,207,c),
(118,207,l),
(55,127,l),
(106,41,o),
(231,-18,o),
(353,-18,cs),
(516,-18,o),
(621,87,o),
(621,214,cs),
(621,324,o),
(542,403,o),
(428,435,cs),
(298,471,ls),
(235,488,o),
(191,521,o),
(191,577,cs),
(191,641,o),
(248,702,o),
(341,702,cs),
(418,702,o),
(505,661,o),
(546,601,c)
);
}
);
width = 676;
},
{
layerId = m002;
shapes = (
{
closed = 1;
nodes = (
(541,556,l),
(638,680,l),
(575,750,o),
(466,798,o),
(354,798,cs),
(193,798,o),
(70,698,o),
(70,564,cs),
(70,461,o),
(143,377,o),
(250,345,cs),
(370,309,ls),
(425,293,o),
(462,264,o),
(462,224,cs),
(462,177,o),
(411,137,o),
(340,137,cs),
(265,137,o),
(186,182,o),
(143,248,c),
(136,248,l),
(45,133,l),
(99,43,o),
(237,-18,o),
(363,-18,cs),
(540,-18,o),
(647,102,o),
(647,234,cs),
(647,348,o),
(568,422,o),
(452,457,cs),
(336,491,ls),
(288,506,o),
(255,528,o),
(255,563,cs),
(255,603,o),
(296,643,o),
(364,643,cs),
(427,643,o),
(500,608,o),
(536,556,c)
);
}
);
width = 692;
}
);
unicode = 83;
},
{
glyphname = T;
lastChange = "2026-04-28 15:17:26 +0000";
layers = (
{
layerId = m01;
shapes = (
{
closed = 1;
nodes = (
(366,0,l),
(366,780,l),
(250,780,l),
(250,0,l)
);
},
{
closed = 1;
nodes = (
(597,682,l),
(597,780,l),
(18,780,l),
(18,682,l)
);
}
);
width = 614;
},
{
layerId = m002;
shapes = (
{
closed = 1;
nodes = (
(406,0,l),
(406,780,l),
(220,780,l),
(220,0,l)
);
},
{
closed = 1;
nodes = (
(611,625,l),
(611,780,l),
(15,780,l),
(15,625,l)
);
}
);
width = 626;
}
);
unicode = 84;
},
{
glyphname = U;
lastChange = "2026-04-28 15:43:17 +0000";
layers = (
{
layerId = m01;
shapes = (
{
closed = 1;
nodes = (
(559,780,l),
(559,260,ls),
(559,147,o),
(494,82,o),
(381,82,cs),
(268,82,o),
(203,147,o),
(203,260,cs),
(203,780,l),
(86,780,l),
(86,260,ls),
(86,83,o),
(193,-18,o),
(381,-18,cs),
(569,-18,o),
(676,83,o),
(676,260,cs),
(676,780,l)
);
}
);
width = 762;
},
{
layerId = m002;
shapes = (
{
closed = 1;
nodes = (
(518,780,l),
(518,260,ls),
(518,189,o),
(466,137,o),
(394,137,cs),
(322,137,o),
(270,189,o),
(270,260,cs),
(270,780,l),
(85,780,l),
(85,260,ls),
(85,99,o),
(215,-18,o),
(394,-18,cs),
(573,-18,o),
(703,99,o),
(703,260,cs),
(703,780,l)
);
}
);
width = 788;
}
);
unicode = 85;
},
{
glyphname = V;
lastChange = "2026-04-28 15:47:43 +0000";
layers = (
{
layerId = m01;
shapes = (
{
closed = 1;
nodes = (
(318,170,l),
(106,780,l),
(-9,780,l),
(275,0,l),
(367,0,l)
);
},
{
closed = 1;
nodes = (
(392,0,l),
(676,780,l),
(563,780,l),
(351,170,l),
(302,0,l)
);
}
);
width = 685;
},
{
layerId = m002;
shapes = (
{
closed = 1;
nodes = (
(395,170,l),
(197,780,l),
(0,780,l),
(265,0,l),
(443,0,l)
);
},
{
closed = 1;
nodes = (
(466,0,l),
(731,780,l),
(536,780,l),
(338,170,l),
(290,0,l)
);
}
);
width = 731;
}
);
unicode = 86;
},
{
glyphname = W;
lastChange = "2026-04-28 15:51:59 +0000";
layers = (
{
layerId = m01;
shapes = (
{
closed = 1;
nodes = (
(283,207,l),
(139,780,l),
(25,780,l),
(236,0,l),
(314,0,l)
);
},
{
closed = 1;
nodes = (
(349,0,l),
(492,581,l),
(523,780,l),
(443,780,l),
(298,201,l),
(267,0,l)
);
},
{
closed = 1;
nodes = (
(757,0,l),
(964,780,l),
(850,780,l),
(708,207,l),
(673,0,l)
);
},
{
closed = 1;
nodes = (
(694,201,l),
(549,780,l),
(474,780,l),
(501,581,l),
(643,0,l),
(728,0,l)
);
}
);
width = 989;
},
{
layerId = m002;
shapes = (
{
closed = 1;
nodes = (
(348,207,l),
(209,780,l),
(20,780,l),
(224,0,l),
(384,0,l)
);
},
{
closed = 1;
nodes = (
(418,0,l),
(557,581,l),
(587,780,l),
(440,780,l),
(298,201,l),
(254,0,l)
);
},
{
closed = 1;
nodes = (
(814,0,l),
(1014,780,l),
(824,780,l),
(687,207,l),
(648,0,l)
);
},
{
closed = 1;
nodes = (
(737,201,l),
(596,780,l),
(455,780,l),
(481,581,l),
(619,0,l),
(785,0,l)
);
}
);
width = 1034;
}
);
unicode = 87;
},
{
glyphname = X;
lastChange = "2026-04-28 15:43:55 +0000";
layers = (
{
layerId = m01;
shapes = (
{
closed = 1;
nodes = (
(493,780,l),
(5,0,l),
(129,0,l),
(617,780,l)
);
},
{
closed = 1;
nodes = (
(516,0,l),
(644,0,l),
(156,780,l),
(29,780,l)
);
}
);
width = 649;
},
{
layerId = m002;
shapes = (
{
closed = 1;
nodes = (
(474,780,l),
(5,0,l),
(205,0,l),
(674,780,l)
);
},
{
closed = 1;
nodes = (
(496,0,l),
(700,0,l),
(232,780,l),
(28,780,l)
);
}
);
width = 705;
}
);
unicode = 88;
},
{
glyphname = Y;
lastChange = "2026-04-28 15:44:59 +0000";
layers = (
{
layerId = m01;
shapes = (
{
closed = 1;
nodes = (
(312,402,l),
(121,780,l),
(-8,780,l),
(289,232,l),
(354,313,l)
);
},
{
closed = 1;
nodes = (
(354,236,l),
(649,780,l),
(522,780,l),
(330,402,l),
(289,313,l)
);
},
{
closed = 1;
nodes = (
(260,0,l),
(376,0,l),
(376,343,l),
(260,343,l)
);
}
);
width = 641;
},
{
layerId = m002;
shapes = (
{
closed = 1;
nodes = (
(355,402,l),
(181,780,l),
(-15,780,l),
(260,232,l),
(381,313,l)
);
},
{
closed = 1;
nodes = (
(393,236,l),
(666,780,l),
(471,780,l),
(296,402,l),
(271,313,l)
);
},
{
closed = 1;
nodes = (
(231,0,l),
(416,0,l),
(416,343,l),
(231,343,l)
);
}
);
width = 651;
}
);
unicode = 89;
},
{
glyphname = Z;
lastChange = "2026-04-28 15:45:40 +0000";
layers = (
{
layerId = m01;
shapes = (
{
closed = 1;
nodes = (
(609,683,l),
(609,780,l),
(50,780,l),
(50,683,l)
);
},
{
closed = 1;
nodes = (
(609,0,l),
(609,97,l),
(50,97,l),
(50,0,l)
);
},
{
closed = 1;
nodes = (
(50,97,l),
(157,64,l),
(609,683,l),
(502,714,l)
);
}
);
width = 659;
},
{
layerId = m002;
shapes = (
{
closed = 1;
nodes = (
(619,625,l),
(619,780,l),
(60,780,l),
(60,625,l)
);
},
{
closed = 1;
nodes = (
(619,0,l),
(619,155,l),
(60,155,l),
(60,0,l)
);
},
{
closed = 1;
nodes = (
(60,155,l),
(227,102,l),
(619,625,l),
(452,675,l)
);
}
);
width = 679;
}
);
unicode = 90;
},
{
color = 11;
glyphname = I.ss01;
lastChange = "2026-04-29 14:15:34 +0000";
layers = (
{
layerId = m01;
shapes = (
{
closed = 1;
nodes = (
(163,0,l),
(279,0,l),
(279,780,l),
(163,780,l)
);
},
{
closed = 1;
nodes = (
(40,683,l),
(402,683,l),
(402,780,l),
(40,780,l)
);
},
{
closed = 1;
nodes = (
(40,0,l),
(402,0,l),
(402,97,l),
(40,97,l)
);
}
);
width = 442;
},
{
layerId = m002;
shapes = (
{
closed = 1;
nodes = (
(137,0,l),
(325,0,l),
(325,780,l),
(137,780,l)
);
},
{
closed = 1;
nodes = (
(35,633,l),
(427,633,l),
(427,780,l),
(35,780,l)
);
},
{
closed = 1;
nodes = (
(35,0,l),
(427,0,l),
(427,147,l),
(35,147,l)
);
}
);
width = 462;
}
);
},
{
glyphname = a;
kernLeft = c;
lastChange = "2026-04-28 16:46:03 +0000";
layers = (
{
layerId = m01;
shapes = (
{
closed = 1;
nodes = (
(529,0,l),
(529,5,l),
(523,17,ls),
(514,35,o),
(510,65,o),
(510,90,cs),
(510,387,ls),
(510,491,o),
(426,562,o),
(303,562,cs),
(216,562,o),
(122,527,o),
(72,475,c),
(115,394,l),
(120,394,l),
(164,442,o),
(234,475,o),
(295,475,cs),
(355,475,o),
(398,444,o),
(398,399,cs),
(398,335,l),
(401,324,l),
(401,128,l),
(408,109,l),
(408,60,ls),
(408,37,o),
(413,13,o),
(420,0,c)
);
},
{
closed = 1;
nodes = (
(401,213,l),
(401,132,o),
(329,76,o),
(249,76,cs),
(184,76,o),
(156,113,o),
(156,153,cs),
(156,196,o),
(187,223,o),
(232,233,cs),
(336,254,ls),
(401,268,o),
(446,314,o),
(446,367,c),
(398,396,l),
(398,368,o),
(371,342,o),
(332,334,cs),
(214,312,ls),
(117,293,o),
(50,237,o),
(50,152,cs),
(50,65,o),
(119,-10,o),
(234,-10,cs),
(361,-10,o),
(459,81,o),
(459,213,c)
);
}
);
width = 579;
},
{
layerId = m002;
shapes = (
{
closed = 1;
nodes = (
(559,0,l),
(559,5,l),
(553,20,ls),
(546,38,o),
(541,68,o),
(541,92,cs),
(541,394,ls),
(541,500,o),
(445,572,o),
(309,572,cs),
(218,572,o),
(116,536,o),
(54,484,c),
(107,354,l),
(113,354,l),
(162,400,o),
(236,432,o),
(291,432,cs),
(335,432,o),
(363,414,o),
(363,388,cs),
(363,341,l),
(368,330,l),
(368,130,l),
(379,111,l),
(379,61,ls),
(379,44,o),
(385,19,o),
(393,0,c)
);
},
{
closed = 1;
nodes = (
(368,197,l),
(368,146,o),
(320,111,o),
(271,111,cs),
(229,111,o),
(215,137,o),
(215,159,cs),
(215,187,o),
(238,204,o),
(271,215,cs),
(332,234,ls),
(384,250,o),
(420,295,o),
(420,344,c),
(363,385,l),
(363,367,o),
(345,350,o),
(318,343,cs),
(218,318,ls),
(115,291,o),
(45,231,o),
(45,148,cs),
(45,63,o),
(120,-10,o),
(229,-10,cs),
(346,-10,o),
(427,74,o),
(427,197,c)
);
}
);
width = 599;
}
);
unicode = 97;
},
{
glyphname = b;
kernLeft = h;
kernRight = b;
lastChange = "2026-04-28 16:04:16 +0000";
layers = (
{
layerId = m01;
shapes = (
{
closed = 1;
nodes = (
(74,0,l),
(143,0,l),
(183,119,l),
(183,778,l),
(74,778,l)
);
},
{
closed = 1;
nodes = (
(182,327,l),
(182,415,o),
(241,476,o),
(325,476,cs),
(421,476,o),
(484,399,o),
(484,277,cs),
(484,162,o),
(428,77,o),
(325,77,cs),
(238,77,o),
(165,138,o),
(165,227,c),
(110,227,l),
(110,85,o),
(211,-12,o),
(347,-12,cs),
(498,-12,o),
(594,107,o),
(594,277,cs),
(594,449,o),
(496,565,o),
(350,565,cs),
(217,565,o),
(124,468,o),
(124,327,c)
);
}
);
width = 639;
},
{
layerId = m002;
shapes = (
{
closed = 1;
nodes = (
(70,0,l),
(180,0,l),
(245,121,l),
(245,780,l),
(70,780,l)
);
},
{
closed = 1;
nodes = (
(243,333,l),
(243,393,o),
(290,434,o),
(343,434,cs),
(410,434,o),
(446,373,o),
(446,282,cs),
(446,192,o),
(412,129,o),
(337,129,cs),
(275,129,o),
(216,171,o),
(216,231,c),
(147,231,l),
(147,87,o),
(234,-12,o),
(370,-12,cs),
(517,-12,o),
(624,105,o),
(624,282,cs),
(624,453,o),
(523,575,o),
(387,575,cs),
(265,575,o),
(190,476,o),
(190,333,c)
);
}
);
width = 674;
}
);
unicode = 98;
},
{
glyphname = c;
kernLeft = c;
lastChange = "2026-04-29 14:00:08 +0000";
layers = (
{
layerId = m01;
shapes = (
{
closed = 1;
nodes = (
(477,413,l),
(517,496,l),
(474,537,o),
(407,565,o),
(328,565,cs),
(170,565,o),
(45,451,o),
(45,277,cs),
(45,109,o),
(162,-12,o),
(326,-12,cs),
(399,-12,o),
(470,12,o),
(509,47,c),
(509,156,l),
(504,156,l),
(469,109,o),
(402,77,o),
(334,78,cs),
(230,79,o),
(155,158,o),
(155,277,cs),
(155,392,o),
(225,475,o),
(328,475,cs),
(384,475,o),
(442,450,o),
(472,413,c)
);
}
);
width = 553;
},
{
layerId = m002;
shapes = (
{
closed = 1;
nodes = (
(489,371,l),
(530,505,l),
(480,546,o),
(411,575,o),
(331,575,cs),
(170,575,o),
(40,458,o),
(40,282,cs),
(40,110,o),
(164,-12,o),
(339,-12,cs),
(403,-12,o),
(467,4,o),
(502,28,c),
(502,172,l),
(496,172,l),
(468,146,o),
(413,128,o),
(364,128,cs),
(276,129,o),
(218,189,o),
(218,282,cs),
(218,370,o),
(271,435,o),
(351,435,cs),
(402,435,o),
(457,409,o),
(484,371,c)
);
}
);
width = 550;
}
);
unicode = 99;
},
{
glyphname = d;
kernLeft = c;
kernRight = l;
lastChange = "2026-04-28 16:04:43 +0000";
layers = (
{
layerId = m01;
shapes = (
{
closed = 1;
nodes = (
(457,780,l),
(457,121,l),
(466,121,l),
(466,0,l),
(566,0,l),
(566,780,l)
);
},
{
closed = 1;
nodes = (
(457,223,l),
(457,135,o),
(398,74,o),
(314,74,cs),
(218,74,o),
(155,151,o),
(155,273,cs),
(155,388,o),
(211,473,o),
(314,473,cs),
(401,473,o),
(474,412,o),
(474,323,c),
(529,323,l),
(529,465,o),
(428,562,o),
(292,562,cs),
(141,562,o),
(45,443,o),
(45,273,cs),
(45,101,o),
(143,-15,o),
(289,-15,cs),
(422,-15,o),
(515,82,o),
(515,223,c)
);
}
);
width = 640;
},
{
layerId = m002;
shapes = (
{
closed = 1;
nodes = (
(419,780,l),
(419,183,l),
(433,183,l),
(433,0,l),
(594,0,l),
(594,780,l)
);
},
{
closed = 1;
nodes = (
(421,227,l),
(421,167,o),
(374,126,o),
(321,126,cs),
(254,126,o),
(218,187,o),
(218,278,cs),
(218,368,o),
(252,431,o),
(327,431,cs),
(389,431,o),
(448,389,o),
(448,329,c),
(517,329,l),
(517,473,o),
(430,572,o),
(294,572,cs),
(147,572,o),
(40,456,o),
(40,278,cs),
(40,108,o),
(138,-15,o),
(277,-15,cs),
(402,-15,o),
(484,84,o),
(484,227,c)
);
}
);
width = 664;
}
);
unicode = 100;
},
{
glyphname = e;
kernLeft = c;
kernRight = b;
lastChange = "2026-04-28 16:29:37 +0000";
layers = (
{
layerId = m01;
shapes = (
{
closed = 1;
nodes = (
(126,332,l),
(126,249,l),
(563,249,l),
(563,284,ls),
(563,451,o),
(464,565,o),
(312,565,cs),
(157,565,o),
(45,445,o),
(45,277,cs),
(45,103,o),
(165,-12,o),
(333,-12,cs),
(411,-12,o),
(485,11,o),
(521,44,c),
(521,150,l),
(516,150,l),
(481,106,o),
(413,77,o),
(341,78,cs),
(231,79,o),
(150,153,o),
(150,259,cs),
(150,317,ls),
(150,412,o),
(220,477,o),
(311,477,cs),
(402,477,o),
(458,411,o),
(458,316,c),
(503,332,l)
);
}
);
width = 608;
},
{
layerId = m002;
shapes = (
{
closed = 1;
nodes = (
(160,348,l),
(160,234,l),
(579,234,l),
(579,289,ls),
(579,459,o),
(477,575,o),
(317,575,cs),
(155,575,o),
(35,455,o),
(35,282,cs),
(35,107,o),
(157,-12,o),
(346,-12,cs),
(417,-12,o),
(501,5,o),
(538,30,c),
(538,177,l),
(533,177,l),
(492,145,o),
(414,124,o),
(355,125,cs),
(262,126,o),
(206,183,o),
(206,264,cs),
(206,323,ls),
(206,392,o),
(250,439,o),
(312,439,cs),
(374,439,o),
(415,391,o),
(415,322,c),
(485,348,l)
);
}
);
width = 614;
}
);
unicode = 101;
},
{
glyphname = f;
lastChange = "2026-04-28 16:32:30 +0000";
layers = (
{
layerId = m01;
shapes = (
{
closed = 1;
nodes = (
(312,695,o),
(332,691,o),
(352,683,c),
(352,773,l),
(325,782,o),
(296,787,o),
(271,787,cs),
(171,787,o),
(114,731,o),
(114,634,cs),
(114,0,l),
(223,0,l),
(223,626,ls),
(223,670,o),
(250,695,o),
(298,695,cs)
);
},
{
closed = 1;
nodes = (
(20,463,l),
(351,463,l),
(351,550,l),
(20,550,l)
);
}
);
width = 357;
},
{
layerId = m002;
shapes = (
{
closed = 1;
nodes = (
(347,641,o),
(374,637,o),
(393,631,c),
(393,775,l),
(361,782,o),
(331,786,o),
(300,786,cs),
(176,786,o),
(98,722,o),
(98,610,cs),
(98,0,l),
(273,0,l),
(273,590,ls),
(273,622,o),
(290,641,o),
(328,641,cs)
);
},
{
closed = 1;
nodes = (
(15,426,l),
(382,426,l),
(382,560,l),
(15,560,l)
);
}
);
width = 388;
}
);
unicode = 102;
},
{
glyphname = g;
kernLeft = c;
lastChange = "2026-04-28 16:34:40 +0000";
layers = (
{
layerId = m01;
shapes = (
{
closed = 1;
nodes = (
(564,550,l),
(495,550,l),
(455,431,l),
(455,21,ls),
(455,-62,o),
(402,-119,o),
(310,-119,cs),
(248,-119,o),
(158,-93,o),
(104,-55,c),
(99,-55,l),
(99,-162,l),
(150,-190,o),
(250,-209,o),
(320,-209,cs),
(475,-209,o),
(564,-115,o),
(564,21,cs)
);
},
{
closed = 1;
nodes = (
(455,263,l),
(455,172,o),
(408,109,o),
(321,109,cs),
(237,109,o),
(165,169,o),
(165,283,cs),
(165,385,o),
(222,473,o),
(321,473,cs),
(404,473,o),
(473,412,o),
(473,323,c),
(528,323,l),
(528,465,o),
(431,562,o),
(299,562,cs),
(152,562,o),
(58,440,o),
(58,283,cs),
(58,119,o),
(161,20,o),
(296,20,cs),
(431,20,o),
(513,119,o),
(513,263,c)
);
}
);
width = 630;
},
{
layerId = m002;
shapes = (
{
closed = 1;
nodes = (
(570,560,l),
(458,560,l),
(402,439,l),
(402,31,ls),
(402,-27,o),
(354,-66,o),
(278,-66,cs),
(227,-66,o),
(148,-48,o),
(90,-23,c),
(85,-23,l),
(85,-170,l),
(134,-193,o),
(242,-208,o),
(310,-208,cs),
(480,-208,o),
(570,-115,o),
(570,21,cs)
);
},
{
closed = 1;
nodes = (
(402,232,l),
(402,191,o),
(363,162,o),
(315,162,cs),
(250,162,o),
(212,214,o),
(212,292,cs),
(212,375,o),
(254,433,o),
(321,433,cs),
(377,433,o),
(419,392,o),
(419,333,c),
(488,333,l),
(488,474,o),
(405,572,o),
(278,572,cs),
(140,572,o),
(40,456,o),
(40,292,cs),
(40,137,o),
(130,33,o),
(261,33,cs),
(376,33,o),
(455,114,o),
(455,232,c)
);
}
);
width = 640;
}
);
unicode = 103;
},
{
glyphname = h;
kernLeft = h;
kernRight = n;
lastChange = "2026-04-28 15:55:12 +0000";
layers = (
{
layerId = m01;
shapes = (
{
closed = 1;
nodes = (
(74,0,l),
(183,0,l),
(183,780,l),
(74,780,l)
);
},
{
closed = 1;
nodes = (
(183,416,o),
(241,474,o),
(320,474,cs),
(399,474,o),
(450,416,o),
(450,332,cs),
(450,0,l),
(559,0,l),
(559,350,ls),
(559,478,o),
(476,566,o),
(352,566,cs),
(231,566,o),
(146,483,o),
(146,363,c),
(183,332,l)
);
}
);
width = 631;
},
{
layerId = m002;
shapes = (
{
closed = 1;
nodes = (
(70,0,l),
(244,0,l),
(244,780,l),
(70,780,l)
);
},
{
closed = 1;
nodes = (
(244,394,o),
(283,435,o),
(336,435,cs),
(389,435,o),
(422,394,o),
(422,336,cs),
(422,0,l),
(598,0,l),
(598,356,ls),
(598,486,o),
(519,576,o),
(396,576,cs),
(276,576,o),
(189,488,o),
(189,360,c),
(244,336,l)
);
}
);
width = 666;
}
);
unicode = 104;
},
{
glyphname = i;
lastChange = "2026-04-28 15:56:46 +0000";
layers = (
{
layerId = m01;
shapes = (
{
closed = 1;
nodes = (
(77,0,l),
(186,0,l),
(186,550,l),
(77,550,l)
);
},
{
closed = 1;
nodes = (
(74,655,l),
(190,655,l),
(190,780,l),
(74,780,l)
);
}
);
width = 264;
},
{
layerId = m002;
shapes = (
{
closed = 1;
nodes = (
(65,0,l),
(250,0,l),
(250,560,l),
(65,560,l)
);
},
{
closed = 1;
nodes = (
(68,627,l),
(248,627,l),
(248,782,l),
(68,782,l)
);
}
);
width = 315;
}
);
unicode = 105;
},
{
glyphname = j;
lastChange = "2026-04-28 16:34:20 +0000";
layers = (
{
layerId = m01;
shapes = (
{
closed = 1;
nodes = (
(74,655,l),
(190,655,l),
(190,780,l),
(74,780,l)
);
},
{
closed = 1;
nodes = (
(-12,-117,o),
(-42,-113,o),
(-72,-107,c),
(-72,-197,l),
(-39,-205,o),
(-3,-209,o),
(29,-209,cs),
(131,-209,o),
(186,-155,o),
(186,-56,cs),
(186,550,l),
(77,550,l),
(77,-48,ls),
(77,-93,o),
(54,-117,o),
(12,-117,cs)
);
}
);
width = 264;
},
{
layerId = m002;
shapes = (
{
closed = 1;
nodes = (
(69,628,l),
(249,628,l),
(249,783,l),
(69,783,l)
);
},
{
closed = 1;
nodes = (
(-11,-61,o),
(-41,-57,o),
(-79,-51,c),
(-79,-197,l),
(-34,-205,o),
(11,-209,o),
(49,-209,cs),
(180,-209,o),
(251,-144,o),
(251,-24,cs),
(251,560,l),
(66,560,l),
(66,-17,ls),
(66,-46,o),
(45,-61,o),
(7,-61,cs)
);
}
);
width = 316;
}
);
unicode = 106;
},
{
glyphname = k;
lastChange = "2026-04-28 16:35:48 +0000";
layers = (
{
layerId = m01;
shapes = (
{
closed = 1;
nodes = (
(62,0,l),
(169,0,l),
(169,780,l),
(62,780,l)
);
},
{
closed = 1;
nodes = (
(143,285,l),
(410,0,l),
(546,0,l),
(252,310,l),
(254,262,l),
(550,550,l),
(410,550,l)
);
}
);
width = 553;
},
{
layerId = m002;
shapes = (
{
closed = 1;
nodes = (
(75,0,l),
(250,0,l),
(250,780,l),
(75,780,l)
);
},
{
closed = 1;
nodes = (
(220,290,l),
(422,0,l),
(628,0,l),
(399,316,l),
(401,267,l),
(632,560,l),
(422,560,l)
);
}
);
width = 617;
}
);
unicode = 107;
},
{
glyphname = l;
lastChange = "2026-04-28 16:11:19 +0000";
layers = (
{
layerId = m01;
shapes = (
{
closed = 1;
nodes = (
(198,83,o),
(184,97,o),
(184,122,cs),
(184,780,l),
(75,780,l),
(75,114,ls),
(75,34,o),
(121,-9,o),
(207,-9,cs),
(228,-9,o),
(252,-6,o),
(273,0,c),
(273,90,l),
(250,85,o),
(233,83,o),
(224,83,cs)
);
}
);
width = 288;
},
{
layerId = m002;
shapes = (
{
closed = 1;
nodes = (
(261,135,o),
(245,149,o),
(245,174,cs),
(245,780,l),
(65,780,l),
(65,146,ls),
(65,45,o),
(124,-9,o),
(234,-9,cs),
(273,-9,o),
(307,-6,o),
(331,0,c),
(331,142,l),
(318,136,o),
(298,135,o),
(291,135,cs)
);
}
);
width = 341;
}
);
unicode = 108;
},
{
glyphname = m;
kernLeft = m;
kernRight = n;
lastChange = "2026-04-28 15:58:21 +0000";
layers = (
{
layerId = m01;
shapes = (
{
closed = 1;
nodes = (
(74,0,l),
(183,0,l),
(183,426,l),
(174,443,l),
(174,550,l),
(74,550,l)
);
},
{
closed = 1;
nodes = (
(183,422,o),
(227,474,o),
(293,474,cs),
(359,474,o),
(400,422,o),
(400,342,cs),
(400,0,l),
(509,0,l),
(509,360,ls),
(509,485,o),
(434,566,o),
(322,566,cs),
(213,566,o),
(146,490,o),
(146,373,c),
(183,342,l)
);
},
{
closed = 1;
nodes = (
(509,422,o),
(553,474,o),
(619,474,cs),
(685,474,o),
(726,422,o),
(726,342,cs),
(726,0,l),
(835,0,l),
(835,360,ls),
(835,485,o),
(763,566,o),
(648,566,cs),
(536,566,o),
(462,490,o),
(462,373,c),
(509,342,l)
);
}
);
width = 907;
},
{
layerId = m002;
shapes = (
{
closed = 1;
nodes = (
(70,0,l),
(244,0,l),
(244,434,l),
(230,451,l),
(230,560,l),
(70,560,l)
);
},
{
closed = 1;
nodes = (
(244,403,o),
(276,435,o),
(320,435,cs),
(364,435,o),
(392,403,o),
(392,356,cs),
(392,0,l),
(568,0,l),
(568,376,ls),
(568,495,o),
(499,576,o),
(386,576,cs),
(274,576,o),
(189,496,o),
(189,380,c),
(244,356,l)
);
},
{
closed = 1;
nodes = (
(568,403,o),
(600,435,o),
(644,435,cs),
(688,435,o),
(716,403,o),
(716,356,cs),
(716,0,l),
(892,0,l),
(892,376,ls),
(892,495,o),
(823,576,o),
(710,576,cs),
(598,576,o),
(513,496,o),
(513,380,c),
(568,356,l)
);
}
);
width = 960;
}
);
unicode = 109;
},
{
glyphname = n;
kernLeft = m;
kernRight = n;
lastChange = "2026-04-28 15:55:56 +0000";
layers = (
{
layerId = m01;
shapes = (
{
closed = 1;
nodes = (
(74,0,l),
(183,0,l),
(183,426,l),
(174,443,l),
(174,550,l),
(74,550,l)
);
},
{
closed = 1;
nodes = (
(183,416,o),
(241,474,o),
(320,474,cs),
(399,474,o),
(450,416,o),
(450,332,cs),
(450,0,l),
(559,0,l),
(559,350,ls),
(559,478,o),
(476,566,o),
(352,566,cs),
(231,566,o),
(146,483,o),
(146,363,c),
(183,332,l)
);
}
);
width = 631;
},
{
layerId = m002;
shapes = (
{
closed = 1;
nodes = (
(70,0,l),
(244,0,l),
(244,434,l),
(230,451,l),
(230,560,l),
(70,560,l)
);
},
{
closed = 1;
nodes = (
(244,395,o),
(283,435,o),
(336,435,cs),
(389,435,o),
(422,395,o),
(422,336,cs),
(422,0,l),
(598,0,l),
(598,356,ls),
(598,486,o),
(512,576,o),
(390,576,cs),
(270,576,o),
(189,488,o),
(189,360,c),
(244,336,l)
);
}
);
width = 665;
}
);
unicode = 110;
},
{
glyphname = o;
kernLeft = c;
kernRight = b;
lastChange = "2026-04-28 16:04:06 +0000";
layers = (
{
layerId = m01;
shapes = (
{
closed = 1;
nodes = (
(485,-12,o),
(593,102,o),
(593,277,cs),
(593,452,o),
(485,565,o),
(319,565,cs),
(153,565,o),
(45,452,o),
(45,277,cs),
(45,102,o),
(153,-12,o),
(319,-12,cs)
);
},
{
closed = 1;
nodes = (
(220,77,o),
(156,156,o),
(156,277,cs),
(156,398,o),
(220,476,o),
(319,476,cs),
(418,476,o),
(482,398,o),
(482,277,cs),
(482,156,o),
(418,77,o),
(319,77,cs)
);
}
);
width = 638;
},
{
layerId = m002;
shapes = (
{
closed = 1;
nodes = (
(509,-12,o),
(624,104,o),
(624,282,cs),
(624,460,o),
(509,575,o),
(332,575,cs),
(155,575,o),
(40,460,o),
(40,282,cs),
(40,104,o),
(155,-12,o),
(332,-12,cs)
);
},
{
closed = 1;
nodes = (
(263,129,o),
(218,189,o),
(218,282,cs),
(218,374,o),
(263,434,o),
(332,434,cs),
(401,434,o),
(446,374,o),
(446,282,cs),
(446,189,o),
(401,129,o),
(332,129,cs)
);
}
);
width = 664;
}
);
unicode = 111;
},
{
glyphname = p;
kernLeft = m;
kernRight = b;
lastChange = "2026-04-28 16:04:47 +0000";
layers = (
{
layerId = m01;
shapes = (
{
closed = 1;
nodes = (
(183,-200,l),
(183,429,l),
(174,429,l),
(174,550,l),
(74,550,l),
(74,-200,l)
);
},
{
closed = 1;
nodes = (
(183,327,l),
(183,415,o),
(242,476,o),
(326,476,cs),
(422,476,o),
(485,399,o),
(485,277,cs),
(485,162,o),
(429,77,o),
(326,77,cs),
(239,77,o),
(166,138,o),
(166,227,c),
(111,227,l),
(111,85,o),
(212,-12,o),
(348,-12,cs),
(499,-12,o),
(595,107,o),
(595,277,cs),
(595,449,o),
(497,565,o),
(351,565,cs),
(218,565,o),
(125,468,o),
(125,327,c)
);
}
);
width = 640;
},
{
layerId = m002;
shapes = (
{
closed = 1;
nodes = (
(245,-200,l),
(245,377,l),
(229,377,l),
(229,560,l),
(70,560,l),
(70,-200,l)
);
},
{
closed = 1;
nodes = (
(243,333,l),
(243,393,o),
(290,434,o),
(343,434,cs),
(410,434,o),
(446,373,o),
(446,282,cs),
(446,192,o),
(412,129,o),
(337,129,cs),
(275,129,o),
(216,171,o),
(216,231,c),
(147,231,l),
(147,87,o),
(234,-12,o),
(370,-12,cs),
(517,-12,o),
(624,104,o),
(624,282,cs),
(624,452,o),
(526,575,o),
(387,575,cs),
(262,575,o),
(180,476,o),
(180,333,c)
);
}
);
width = 664;
}
);
unicode = 112;
},
{
glyphname = q;
kernLeft = c;
kernRight = q;
lastChange = "2026-04-28 16:07:14 +0000";
layers = (
{
layerId = m01;
shapes = (
{
closed = 1;
nodes = (
(565,550,l),
(496,550,l),
(456,431,l),
(456,-200,l),
(565,-200,l)
);
},
{
closed = 1;
nodes = (
(456,223,l),
(456,135,o),
(397,74,o),
(314,74,cs),
(218,74,o),
(155,151,o),
(155,273,cs),
(155,388,o),
(211,473,o),
(314,473,cs),
(401,473,o),
(474,412,o),
(474,323,c),
(529,323,l),
(529,465,o),
(428,562,o),
(292,562,cs),
(141,562,o),
(45,443,o),
(45,273,cs),
(45,101,o),
(143,-15,o),
(289,-15,cs),
(421,-15,o),
(514,82,o),
(514,223,c)
);
}
);
width = 639;
},
{
layerId = m002;
shapes = (
{
closed = 1;
nodes = (
(594,560,l),
(484,560,l),
(419,439,l),
(419,-200,l),
(594,-200,l)
);
},
{
closed = 1;
nodes = (
(421,227,l),
(421,167,o),
(374,126,o),
(321,126,cs),
(254,126,o),
(218,187,o),
(218,278,cs),
(218,368,o),
(252,431,o),
(327,431,cs),
(389,431,o),
(448,389,o),
(448,329,c),
(517,329,l),
(517,473,o),
(430,572,o),
(294,572,cs),
(147,572,o),
(40,455,o),
(40,278,cs),
(40,107,o),
(141,-15,o),
(277,-15,cs),
(399,-15,o),
(474,84,o),
(474,227,c)
);
}
);
width = 664;
}
);
unicode = 113;
},
{
glyphname = r;
kernLeft = m;
lastChange = "2026-04-28 16:37:41 +0000";
layers = (
{
layerId = m01;
shapes = (
{
closed = 1;
nodes = (
(74,0,l),
(183,0,l),
(183,426,l),
(174,443,l),
(174,550,l),
(74,550,l)
);
},
{
closed = 1;
nodes = (
(383,545,l),
(364,553,o),
(332,558,o),
(307,558,cs),
(211,558,o),
(146,487,o),
(146,384,c),
(183,344,l),
(183,415,o),
(236,464,o),
(308,464,cs),
(335,464,o),
(364,457,o),
(383,448,c)
);
}
);
width = 404;
},
{
layerId = m002;
shapes = (
{
closed = 1;
nodes = (
(70,0,l),
(245,0,l),
(245,434,l),
(231,451,l),
(231,560,l),
(70,560,l)
);
},
{
closed = 1;
nodes = (
(428,555,l),
(412,563,o),
(384,568,o),
(361,568,cs),
(270,568,o),
(207,496,o),
(207,391,c),
(245,330,l),
(245,389,o),
(289,430,o),
(352,430,cs),
(378,430,o),
(409,423,o),
(428,414,c)
);
}
);
width = 448;
}
);
unicode = 114;
},
{
glyphname = s;
kernLeft = c;
lastChange = "2026-04-28 21:20:50 +0000";
layers = (
{
layerId = m01;
shapes = (
{
closed = 1;
nodes = (
(415,412,l),
(472,486,l),
(430,534,o),
(347,565,o),
(265,565,cs),
(139,565,o),
(61,492,o),
(61,402,cs),
(61,328,o),
(114,280,o),
(195,259,cs),
(284,236,ls),
(339,221,o),
(375,196,o),
(375,156,cs),
(375,115,o),
(338,78,o),
(271,78,cs),
(209,78,o),
(142,109,o),
(110,156,c),
(105,156,l),
(42,90,l),
(83,28,o),
(177,-12,o),
(273,-12,cs),
(403,-12,o),
(483,62,o),
(483,156,cs),
(483,241,o),
(419,298,o),
(321,323,cs),
(237,344,ls),
(196,355,o),
(169,374,o),
(169,408,cs),
(169,445,o),
(202,479,o),
(265,479,cs),
(320,479,o),
(382,453,o),
(410,412,c)
);
}
);
width = 520;
},
{
layerId = m002;
shapes = (
{
closed = 1;
nodes = (
(412,390,l),
(498,499,l),
(454,545,o),
(365,574,o),
(277,574,cs),
(134,574,o),
(47,497,o),
(47,398,cs),
(47,318,o),
(103,263,o),
(189,239,cs),
(275,215,ls),
(308,206,o),
(329,190,o),
(329,167,cs),
(329,143,o),
(306,122,o),
(261,122,cs),
(209,122,o),
(150,150,o),
(121,192,c),
(116,192,l),
(25,92,l),
(69,28,o),
(168,-13,o),
(273,-13,cs),
(415,-13,o),
(504,63,o),
(504,168,cs),
(504,255,o),
(444,318,o),
(351,341,cs),
(266,362,ls),
(239,369,o),
(222,385,o),
(222,404,cs),
(222,428,o),
(247,443,o),
(287,443,cs),
(334,443,o),
(382,422,o),
(407,390,c)
);
}
);
width = 529;
}
);
unicode = 115;
},
{
glyphname = t;
lastChange = "2026-04-28 16:48:55 +0000";
layers = (
{
layerId = m01;
shapes = (
{
closed = 1;
nodes = (
(244,85,o),
(218,109,o),
(218,154,cs),
(218,699,l),
(109,699,l),
(109,146,ls),
(109,47,o),
(166,-7,o),
(273,-7,cs),
(308,-7,o),
(341,-2,o),
(367,7,c),
(367,97,l),
(337,89,o),
(311,85,o),
(293,85,cs)
);
},
{
closed = 1;
nodes = (
(350,463,l),
(350,550,l),
(25,550,l),
(25,463,l)
);
}
);
width = 387;
},
{
layerId = m002;
shapes = (
{
closed = 1;
nodes = (
(296,137,o),
(283,155,o),
(283,187,cs),
(283,702,l),
(109,702,l),
(109,149,ls),
(109,48,o),
(163,-7,o),
(277,-7,cs),
(320,-7,o),
(369,1,o),
(403,17,c),
(403,149,l),
(386,141,o),
(358,137,o),
(338,137,cs)
);
},
{
closed = 1;
nodes = (
(396,426,l),
(396,560,l),
(25,560,l),
(25,426,l)
);
}
);
width = 418;
}
);
unicode = 116;
},
{
glyphname = u;
kernLeft = m;
kernRight = q;
lastChange = "2026-04-28 15:56:01 +0000";
layers = (
{
layerId = m01;
shapes = (
{
closed = 1;
nodes = (
(557,550,l),
(448,550,l),
(448,124,l),
(457,107,l),
(457,0,l),
(557,0,l)
);
},
{
closed = 1;
nodes = (
(448,134,o),
(390,76,o),
(311,76,cs),
(232,76,o),
(181,134,o),
(181,218,cs),
(181,550,l),
(72,550,l),
(72,200,ls),
(72,72,o),
(155,-16,o),
(279,-16,cs),
(400,-16,o),
(485,67,o),
(485,187,c),
(448,218,l)
);
}
);
width = 631;
},
{
layerId = m002;
shapes = (
{
closed = 1;
nodes = (
(595,560,l),
(421,560,l),
(421,126,l),
(435,109,l),
(435,0,l),
(595,0,l)
);
},
{
closed = 1;
nodes = (
(421,165,o),
(382,125,o),
(329,125,cs),
(276,125,o),
(243,165,o),
(243,224,cs),
(243,560,l),
(67,560,l),
(67,204,ls),
(67,74,o),
(153,-16,o),
(275,-16,cs),
(395,-16,o),
(476,72,o),
(476,200,c),
(421,224,l)
);
}
);
width = 665;
}
);
unicode = 117;
},
{
glyphname = v;
lastChange = "2026-04-28 16:49:34 +0000";
layers = (
{
layerId = m01;
shapes = (
{
closed = 1;
nodes = (
(260,146,l),
(116,550,l),
(5,550,l),
(209,0,l),
(303,0,l)
);
},
{
closed = 1;
nodes = (
(327,0,l),
(531,550,l),
(424,550,l),
(279,142,l),
(237,0,l)
);
}
);
width = 537;
},
{
layerId = m002;
shapes = (
{
closed = 1;
nodes = (
(307,149,l),
(177,560,l),
(-9,560,l),
(187,0,l),
(347,0,l)
);
},
{
closed = 1;
nodes = (
(379,0,l),
(575,560,l),
(393,560,l),
(262,145,l),
(213,0,l)
);
}
);
width = 566;
}
);
unicode = 118;
},
{
glyphname = w;
lastChange = "2026-04-28 16:53:12 +0000";
layers = (
{
layerId = m01;
shapes = (
{
closed = 1;
nodes = (
(217,146,l),
(112,550,l),
(7,550,l),
(168,0,l),
(240,0,l)
);
},
{
closed = 1;
nodes = (
(280,0,l),
(384,410,l),
(406,550,l),
(333,550,l),
(228,142,l),
(205,0,l)
);
},
{
closed = 1;
nodes = (
(606,0,l),
(764,550,l),
(659,550,l),
(555,146,l),
(530,0,l)
);
},
{
closed = 1;
nodes = (
(545,142,l),
(440,550,l),
(371,550,l),
(391,410,l),
(494,0,l),
(570,0,l)
);
}
);
width = 771;
},
{
layerId = m002;
shapes = (
{
closed = 1;
nodes = (
(270,149,l),
(180,560,l),
(-3,560,l),
(150,0,l),
(303,0,l)
);
},
{
closed = 1;
nodes = (
(336,0,l),
(444,417,l),
(470,560,l),
(331,560,l),
(221,145,l),
(186,0,l)
);
},
{
closed = 1;
nodes = (
(679,0,l),
(830,560,l),
(647,560,l),
(558,149,l),
(524,0,l)
);
},
{
closed = 1;
nodes = (
(608,145,l),
(498,560,l),
(354,560,l),
(386,417,l),
(494,0,l),
(646,0,l)
);
}
);
width = 827;
}
);
unicode = 119;
},
{
glyphname = x;
lastChange = "2026-04-28 16:53:48 +0000";
layers = (
{
layerId = m01;
shapes = (
{
closed = 1;
nodes = (
(403,0,l),
(519,0,l),
(132,550,l),
(17,550,l)
);
},
{
closed = 1;
nodes = (
(384,550,l),
(-3,0,l),
(113,0,l),
(499,550,l)
);
}
);
width = 516;
},
{
layerId = m002;
shapes = (
{
closed = 1;
nodes = (
(364,0,l),
(552,0,l),
(188,560,l),
(1,560,l)
);
},
{
closed = 1;
nodes = (
(349,560,l),
(-15,0,l),
(173,0,l),
(536,560,l)
);
}
);
width = 537;
}
);
unicode = 120;
},
{
glyphname = y;
lastChange = "2026-04-28 16:54:27 +0000";
layers = (
{
layerId = m01;
shapes = (
{
closed = 1;
nodes = (
(282,146,l),
(118,550,l),
(5,550,l),
(229,20,l),
(323,20,l)
);
},
{
closed = 1;
nodes = (
(245,98,l),
(128,-200,l),
(237,-200,l),
(532,550,l),
(423,550,l)
);
}
);
width = 537;
},
{
layerId = m002;
shapes = (
{
closed = 1;
nodes = (
(364,149,l),
(207,560,l),
(12,560,l),
(241,20,l),
(336,20,l)
);
},
{
closed = 1;
nodes = (
(278,176,l),
(121,-200,l),
(312,-200,l),
(610,560,l),
(419,560,l)
);
}
);
width = 622;
}
);
unicode = 121;
},
{
glyphname = z;
lastChange = "2026-04-28 16:55:10 +0000";
layers = (
{
layerId = m01;
shapes = (
{
closed = 1;
nodes = (
(474,463,l),
(474,550,l),
(35,550,l),
(35,463,l)
);
},
{
closed = 1;
nodes = (
(474,0,l),
(474,87,l),
(35,87,l),
(35,0,l)
);
},
{
closed = 1;
nodes = (
(35,87,l),
(135,67,l),
(474,463,l),
(374,483,l)
);
}
);
width = 512;
},
{
layerId = m002;
shapes = (
{
closed = 1;
nodes = (
(492,418,l),
(492,560,l),
(35,560,l),
(35,418,l)
);
},
{
closed = 1;
nodes = (
(492,0,l),
(492,142,l),
(35,142,l),
(35,0,l)
);
},
{
closed = 1;
nodes = (
(35,142,l),
(218,110,l),
(492,418,l),
(309,450,l)
);
}
);
width = 527;
}
);
unicode = 122;
},
{
color = 11;
glyphname = b.ss01;
kernLeft = h;
kernRight = b;
lastChange = "2026-04-29 14:12:56 +0000";
layers = (
{
layerId = m01;
shapes = (
{
closed = 1;
nodes = (
(74,-2,l),
(143,-2,l),
(183,119,l),
(183,808,l),
(74,808,l)
);
},
{
closed = 1;
nodes = (
(182,327,l),
(182,415,o),
(241,476,o),
(325,476,cs),
(421,476,o),
(484,399,o),
(484,277,cs),
(484,162,o),
(428,77,o),
(325,77,cs),
(238,77,o),
(165,138,o),
(165,227,c),
(110,227,l),
(110,85,o),
(211,-12,o),
(347,-12,cs),
(498,-12,o),
(594,107,o),
(594,277,cs),
(594,449,o),
(496,565,o),
(350,565,cs),
(217,565,o),
(124,468,o),
(124,327,c)
);
}
);
width = 639;
},
{
layerId = m002;
shapes = (
{
closed = 1;
nodes = (
(70,0,l),
(180,0,l),
(245,121,l),
(245,810,l),
(70,810,l)
);
},
{
closed = 1;
nodes = (
(243,333,l),
(243,393,o),
(290,434,o),
(343,434,cs),
(410,434,o),
(446,373,o),
(446,282,cs),
(446,192,o),
(412,129,o),
(337,129,cs),
(275,129,o),
(216,171,o),
(216,231,c),
(147,231,l),
(147,87,o),
(234,-12,o),
(370,-12,cs),
(517,-12,o),
(624,105,o),
(624,282,cs),
(624,453,o),
(523,575,o),
(387,575,cs),
(265,575,o),
(190,476,o),
(190,333,c)
);
}
);
width = 674;
}
);
},
{
color = 11;
glyphname = d.ss01;
lastChange = "2026-04-29 14:13:06 +0000";
layers = (
{
layerId = m01;
shapes = (
{
closed = 1;
nodes = (
(457,810,l),
(457,121,l),
(466,121,l),
(466,0,l),
(566,0,l),
(566,810,l)
);
},
{
closed = 1;
nodes = (
(457,223,l),
(457,135,o),
(398,74,o),
(314,74,cs),
(218,74,o),
(155,151,o),
(155,273,cs),
(155,388,o),
(211,473,o),
(314,473,cs),
(401,473,o),
(474,412,o),
(474,323,c),
(529,323,l),
(529,465,o),
(428,562,o),
(292,562,cs),
(141,562,o),
(45,443,o),
(45,273,cs),
(45,101,o),
(143,-15,o),
(289,-15,cs),
(422,-15,o),
(515,82,o),
(515,223,c)
);
}
);
width = 640;
},
{
layerId = m002;
shapes = (
{
closed = 1;
nodes = (
(419,810,l),
(419,183,l),
(433,183,l),
(433,0,l),
(594,0,l),
(594,810,l)
);
},
{
closed = 1;
nodes = (
(421,227,l),
(421,167,o),
(374,126,o),
(321,126,cs),
(254,126,o),
(218,187,o),
(218,278,cs),
(218,368,o),
(252,431,o),
(327,431,cs),
(389,431,o),
(448,389,o),
(448,329,c),
(517,329,l),
(517,473,o),
(430,572,o),
(294,572,cs),
(147,572,o),
(40,456,o),
(40,278,cs),
(40,108,o),
(138,-15,o),
(277,-15,cs),
(402,-15,o),
(484,84,o),
(484,227,c)
);
}
);
width = 664;
}
);
},
{
color = 11;
glyphname = h.ss01;
kernLeft = h;
kernRight = n;
lastChange = "2026-04-29 14:13:14 +0000";
layers = (
{
layerId = m01;
shapes = (
{
closed = 1;
nodes = (
(74,0,l),
(183,0,l),
(183,810,l),
(74,810,l)
);
},
{
closed = 1;
nodes = (
(183,416,o),
(241,474,o),
(320,474,cs),
(399,474,o),
(450,416,o),
(450,332,cs),
(450,0,l),
(559,0,l),
(559,350,ls),
(559,478,o),
(476,566,o),
(352,566,cs),
(231,566,o),
(146,483,o),
(146,363,c),
(183,332,l)
);
}
);
width = 631;
},
{
layerId = m002;
shapes = (
{
closed = 1;
nodes = (
(70,0,l),
(244,0,l),
(244,810,l),
(70,810,l)
);
},
{
closed = 1;
nodes = (
(244,394,o),
(283,435,o),
(336,435,cs),
(389,435,o),
(422,394,o),
(422,336,cs),
(422,0,l),
(598,0,l),
(598,356,ls),
(598,486,o),
(519,576,o),
(396,576,cs),
(276,576,o),
(189,488,o),
(189,360,c),
(244,336,l)
);
}
);
width = 666;
}
);
},
{
color = 11;
glyphname = i.ss01;
lastChange = "2026-04-29 14:15:42 +0000";
layers = (
{
layerId = m01;
shapes = (
{
closed = 1;
nodes = (
(99,0,l),
(208,0,l),
(208,550,l),
(99,550,l)
);
},
{
closed = 1;
nodes = (
(96,670,l),
(212,670,l),
(212,795,l),
(96,795,l)
);
},
{
closed = 1;
nodes = (
(20,463,l),
(152,463,l),
(152,550,l),
(20,550,l)
);
}
);
width = 286;
},
{
layerId = m002;
shapes = (
{
closed = 1;
nodes = (
(65,0,l),
(250,0,l),
(250,560,l),
(65,560,l)
);
},
{
closed = 1;
nodes = (
(68,639,l),
(248,639,l),
(248,794,l),
(68,794,l)
);
},
{
closed = 1;
nodes = (
(0,423,l),
(132,423,l),
(132,560,l),
(0,560,l)
);
}
);
width = 315;
}
);
},
{
color = 11;
glyphname = j.ss01;
lastChange = "2026-04-29 14:14:34 +0000";
layers = (
{
layerId = m01;
shapes = (
{
closed = 1;
nodes = (
(96,669,l),
(212,669,l),
(212,794,l),
(96,794,l)
);
},
{
closed = 1;
nodes = (
(10,-117,o),
(-20,-113,o),
(-50,-107,c),
(-50,-197,l),
(-17,-205,o),
(19,-209,o),
(51,-209,cs),
(153,-209,o),
(208,-155,o),
(208,-56,cs),
(208,550,l),
(99,550,l),
(99,-48,ls),
(99,-93,o),
(76,-117,o),
(34,-117,cs)
);
},
{
closed = 1;
nodes = (
(20,463,l),
(152,463,l),
(152,550,l),
(20,550,l)
);
}
);
width = 286;
},
{
layerId = m002;
shapes = (
{
closed = 1;
nodes = (
(69,639,l),
(249,639,l),
(249,794,l),
(69,794,l)
);
},
{
closed = 1;
nodes = (
(-11,-61,o),
(-41,-57,o),
(-79,-51,c),
(-79,-197,l),
(-34,-205,o),
(11,-209,o),
(49,-209,cs),
(180,-209,o),
(251,-144,o),
(251,-24,cs),
(251,560,l),
(66,560,l),
(66,-17,ls),
(66,-46,o),
(45,-61,o),
(7,-61,cs)
);
},
{
closed = 1;
nodes = (
(0,423,l),
(132,423,l),
(132,560,l),
(0,560,l)
);
}
);
width = 316;
}
);
},
{
color = 11;
glyphname = k.ss01;
lastChange = "2026-04-29 14:15:08 +0000";
layers = (
{
layerId = m01;
shapes = (
{
closed = 1;
nodes = (
(62,0,l),
(169,0,l),
(169,810,l),
(62,810,l)
);
},
{
closed = 1;
nodes = (
(143,285,l),
(410,0,l),
(546,0,l),
(252,310,l),
(254,262,l),
(550,550,l),
(410,550,l)
);
}
);
width = 553;
},
{
layerId = m002;
shapes = (
{
closed = 1;
nodes = (
(75,0,l),
(250,0,l),
(250,810,l),
(75,810,l)
);
},
{
closed = 1;
nodes = (
(220,290,l),
(422,0,l),
(628,0,l),
(399,316,l),
(401,267,l),
(632,560,l),
(422,560,l)
);
}
);
width = 617;
}
);
},
{
color = 11;
glyphname = l.ss01;
lastChange = "2026-04-29 14:14:57 +0000";
layers = (
{
layerId = m01;
shapes = (
{
closed = 1;
nodes = (
(198,83,o),
(184,97,o),
(184,122,cs),
(184,810,l),
(75,810,l),
(75,114,ls),
(75,34,o),
(121,-9,o),
(207,-9,cs),
(228,-9,o),
(252,-6,o),
(273,0,c),
(273,90,l),
(250,85,o),
(233,83,o),
(224,83,cs)
);
}
);
width = 288;
},
{
layerId = m002;
shapes = (
{
closed = 1;
nodes = (
(261,135,o),
(245,149,o),
(245,174,cs),
(245,810,l),
(65,810,l),
(65,146,ls),
(65,45,o),
(124,-9,o),
(234,-9,cs),
(273,-9,o),
(307,-6,o),
(331,0,c),
(331,142,l),
(318,136,o),
(298,135,o),
(291,135,cs)
);
}
);
width = 341;
}
);
},
{
glyphname = zero;
lastChange = "2026-04-28 17:16:20 +0000";
layers = (
{
layerId = m01;
shapes = (
{
closed = 1;
nodes = (
(532,-18,o),
(640,131,o),
(640,390,cs),
(640,649,o),
(532,798,o),
(345,798,cs),
(158,798,o),
(50,649,o),
(50,390,cs),
(50,131,o),
(158,-18,o),
(345,-18,cs)
);
},
{
closed = 1;
nodes = (
(230,82,o),
(164,194,o),
(164,390,cs),
(164,586,o),
(230,698,o),
(345,698,cs),
(460,698,o),
(526,586,o),
(526,390,cs),
(526,194,o),
(460,82,o),
(345,82,cs)
);
}
);
width = 690;
},
{
layerId = m002;
shapes = (
{
closed = 1;
nodes = (
(535,-18,o),
(650,136,o),
(650,390,cs),
(650,644,o),
(535,798,o),
(345,798,cs),
(155,798,o),
(40,644,o),
(40,390,cs),
(40,136,o),
(155,-18,o),
(345,-18,cs)
);
},
{
closed = 1;
nodes = (
(267,138,o),
(220,233,o),
(220,390,cs),
(220,547,o),
(267,642,o),
(345,642,cs),
(423,642,o),
(470,547,o),
(470,390,cs),
(470,233,o),
(423,138,o),
(345,138,cs)
);
}
);
width = 690;
}
);
unicode = 48;
},
{
glyphname = one;
lastChange = "2026-04-28 16:59:49 +0000";
layers = (
{
layerId = m01;
shapes = (
{
closed = 1;
nodes = (
(452,0,l),
(452,780,l),
(449,780,l),
(335,780,l),
(125,603,l),
(185,519,l),
(397,709,l),
(337,724,l),
(337,0,l)
);
}
);
width = 690;
},
{
layerId = m002;
shapes = (
{
closed = 1;
nodes = (
(497,0,l),
(497,780,l),
(492,780,l),
(311,780,l),
(86,603,l),
(185,475,l),
(419,675,l),
(314,724,l),
(314,0,l)
);
}
);
width = 690;
}
);
unicode = 49;
},
{
glyphname = two;
lastChange = "2026-04-28 17:02:58 +0000";
layers = (
{
layerId = m01;
shapes = (
{
closed = 1;
nodes = (
(153,572,l),
(157,572,l),
(193,651,o),
(268,702,o),
(347,702,cs),
(437,702,o),
(496,635,o),
(496,557,cs),
(496,497,o),
(461,439,o),
(407,385,cs),
(87,65,l),
(198,38,l),
(476,310,ls),
(557,390,o),
(609,465,o),
(609,554,cs),
(609,681,o),
(504,798,o),
(351,798,cs),
(240,798,o),
(136,737,o),
(76,644,c)
);
},
{
closed = 1;
nodes = (
(87,0,l),
(615,0,l),
(615,101,l),
(222,101,l),
(87,65,l)
);
}
);
width = 690;
},
{
layerId = m002;
shapes = (
{
closed = 1;
nodes = (
(197,531,l),
(201,531,l),
(231,599,o),
(289,643,o),
(347,643,cs),
(407,643,o),
(445,596,o),
(445,547,cs),
(445,506,o),
(418,466,o),
(376,423,cs),
(87,130,l),
(251,75,l),
(506,330,ls),
(580,404,o),
(628,469,o),
(628,554,cs),
(628,679,o),
(526,798,o),
(360,798,cs),
(231,798,o),
(114,726,o),
(70,615,c)
);
},
{
closed = 1;
nodes = (
(87,0,l),
(625,0,l),
(625,158,l),
(222,158,l),
(87,130,l)
);
}
);
width = 690;
}
);
unicode = 50;
},
{
glyphname = three;
lastChange = "2026-04-28 17:06:07 +0000";
layers = (
{
layerId = m01;
shapes = (
{
closed = 1;
nodes = (
(160,600,l),
(196,663,o),
(260,707,o),
(333,707,cs),
(411,707,o),
(477,658,o),
(477,582,cs),
(477,510,o),
(418,458,o),
(333,458,cs),
(245,458,l),
(245,363,l),
(333,363,ls),
(434,363,o),
(503,310,o),
(503,226,cs),
(503,142,o),
(433,79,o),
(323,79,cs),
(242,79,o),
(143,113,o),
(87,162,c),
(83,162,l),
(83,39,l),
(146,5,o),
(242,-18,o),
(323,-18,cs),
(495,-18,o),
(616,85,o),
(616,221,cs),
(616,323,o),
(547,403,o),
(447,432,c),
(448,409,l),
(528,436,o),
(583,504,o),
(583,589,cs),
(583,710,o),
(473,801,o),
(333,801,cs),
(227,801,o),
(132,748,o),
(79,671,c),
(155,600,l)
);
}
);
width = 690;
},
{
layerId = m002;
shapes = (
{
closed = 1;
nodes = (
(155,560,l),
(189,612,o),
(256,647,o),
(318,647,cs),
(377,647,o),
(415,616,o),
(415,571,cs),
(415,522,o),
(371,488,o),
(308,488,cs),
(220,488,l),
(220,333,l),
(308,333,ls),
(389,333,o),
(445,301,o),
(445,236,cs),
(445,184,o),
(409,136,o),
(318,136,cs),
(250,136,o),
(138,163,o),
(82,203,c),
(78,203,l),
(78,33,l),
(145,3,o),
(247,-18,o),
(328,-18,cs),
(505,-18,o),
(625,81,o),
(625,221,cs),
(625,334,o),
(546,419,o),
(432,435,c),
(433,402,l),
(529,416,o),
(595,494,o),
(595,589,cs),
(595,717,o),
(475,801,o),
(328,801,cs),
(212,801,o),
(111,748,o),
(54,671,c),
(150,560,l)
);
}
);
width = 690;
}
);
unicode = 51;
},
{
glyphname = four;
lastChange = "2026-04-28 17:06:16 +0000";
layers = (
{
layerId = m01;
shapes = (
{
closed = 1;
nodes = (
(32,283,l),
(32,186,l),
(651,186,l),
(651,283,l)
);
},
{
closed = 1;
nodes = (
(494,780,l),
(383,780,l),
(32,283,l),
(126,256,l)
);
},
{
closed = 1;
nodes = (
(527,0,l),
(527,780,l),
(420,780,l),
(420,0,l)
);
}
);
width = 690;
},
{
layerId = m002;
shapes = (
{
closed = 1;
nodes = (
(32,332,l),
(32,177,l),
(661,177,l),
(661,332,l)
);
},
{
closed = 1;
nodes = (
(519,780,l),
(353,780,l),
(32,332,l),
(181,289,l)
);
},
{
closed = 1;
nodes = (
(551,0,l),
(551,780,l),
(376,780,l),
(376,0,l)
);
}
);
width = 690;
}
);
unicode = 52;
},
{
glyphname = five;
lastChange = "2026-04-28 17:08:30 +0000";
layers = (
{
layerId = m01;
shapes = (
{
closed = 1;
nodes = (
(197,343,l),
(263,780,l),
(162,780,l),
(100,377,l)
);
},
{
closed = 1;
nodes = (
(597,682,l),
(597,780,l),
(170,780,l),
(170,682,l)
);
},
{
closed = 1;
nodes = (
(511,515,o),
(363,515,cs),
(268,515,o),
(202,474,o),
(162,410,c),
(197,343,l),
(226,390,o),
(285,420,o),
(353,420,cs),
(450,420,o),
(516,360,o),
(516,258,cs),
(516,153,o),
(446,79,o),
(330,79,cs),
(250,79,o),
(156,114,o),
(100,167,c),
(96,167,l),
(96,44,l),
(157,6,o),
(246,-18,o),
(330,-18,cs),
(509,-18,o),
(629,90,o),
(629,253,cs),
(629,414,o)
);
}
);
width = 690;
},
{
layerId = m002;
shapes = (
{
closed = 1;
nodes = (
(232,313,l),
(296,780,l),
(140,780,l),
(75,347,l)
);
},
{
closed = 1;
nodes = (
(597,627,l),
(597,780,l),
(153,780,l),
(180,627,l)
);
},
{
closed = 1;
nodes = (
(519,515,o),
(383,515,cs),
(295,515,o),
(233,472,o),
(192,410,c),
(232,313,l),
(251,353,o),
(293,380,o),
(343,380,cs),
(409,380,o),
(461,332,o),
(461,265,cs),
(461,189,o),
(395,138,o),
(300,138,cs),
(230,138,o),
(140,166,o),
(80,206,c),
(76,206,l),
(76,34,l),
(138,3,o),
(248,-18,o),
(330,-18,cs),
(520,-18,o),
(639,95,o),
(639,253,cs),
(639,411,o)
);
}
);
width = 690;
}
);
unicode = 53;
},
{
glyphname = six;
lastChange = "2026-04-28 17:12:21 +0000";
layers = (
{
layerId = m01;
shapes = (
{
closed = 1;
nodes = (
(558,788,l),
(527,794,o),
(507,798,o),
(472,798,cs),
(246,798,o),
(65,625,o),
(65,350,cs),
(65,141,o),
(169,-18,o),
(353,-18,cs),
(502,-18,o),
(627,86,o),
(627,243,cs),
(627,395,o),
(509,502,o),
(363,502,cs),
(239,502,o),
(153,425,o),
(124,312,c),
(172,390,l),
(172,576,o),
(299,704,o),
(472,704,cs),
(506,704,o),
(536,699,o),
(558,691,c)
);
},
{
closed = 1;
nodes = (
(255,76,o),
(185,149,o),
(185,248,cs),
(185,347,o),
(255,410,o),
(354,410,cs),
(453,410,o),
(520,347,o),
(520,248,cs),
(520,149,o),
(453,76,o),
(354,76,cs)
);
}
);
width = 690;
},
{
layerId = m002;
shapes = (
{
closed = 1;
nodes = (
(576,783,l),
(547,792,o),
(503,798,o),
(460,798,cs),
(221,798,o),
(52,615,o),
(52,350,cs),
(52,131,o),
(167,-18,o),
(362,-18,cs),
(519,-18,o),
(649,75,o),
(649,246,cs),
(649,387,o),
(561,509,o),
(402,509,cs),
(296,509,o),
(201,453,o),
(201,373,c),
(232,400,l),
(232,544,o),
(323,643,o),
(460,643,cs),
(501,643,o),
(551,634,o),
(576,620,c)
);
},
{
closed = 1;
nodes = (
(288,127,o),
(237,180,o),
(237,252,cs),
(237,326,o),
(288,372,o),
(358,372,cs),
(430,372,o),
(476,325,o),
(476,252,cs),
(476,179,o),
(430,127,o),
(358,127,cs)
);
}
);
width = 690;
}
);
unicode = 54;
},
{
glyphname = seven;
lastChange = "2026-04-28 17:15:49 +0000";
layers = (
{
layerId = m01;
shapes = (
{
closed = 1;
nodes = (
(631,683,l),
(631,780,l),
(72,780,l),
(72,683,l)
);
},
{
closed = 1;
nodes = (
(164,0,l),
(280,0,l),
(631,683,l),
(532,714,l)
);
}
);
width = 690;
},
{
layerId = m002;
shapes = (
{
closed = 1;
nodes = (
(631,620,l),
(631,780,l),
(72,780,l),
(72,620,l)
);
},
{
closed = 1;
nodes = (
(105,0,l),
(300,0,l),
(631,620,l),
(473,671,l)
);
}
);
width = 690;
}
);
unicode = 55;
},
{
glyphname = eight;
lastChange = "2026-04-28 17:18:22 +0000";
layers = (
{
layerId = m01;
shapes = (
{
closed = 1;
nodes = (
(518,-18,o),
(634,86,o),
(634,226,cs),
(634,367,o),
(517,456,o),
(346,456,cs),
(174,456,o),
(56,366,o),
(56,226,cs),
(56,85,o),
(175,-18,o),
(346,-18,cs)
);
},
{
closed = 1;
nodes = (
(238,77,o),
(164,144,o),
(164,231,cs),
(164,320,o),
(240,375,o),
(346,375,cs),
(454,375,o),
(526,319,o),
(526,231,cs),
(526,143,o),
(453,77,o),
(346,77,cs)
);
},
{
closed = 1;
nodes = (
(495,403,o),
(597,474,o),
(597,593,cs),
(597,710,o),
(496,801,o),
(346,801,cs),
(198,801,o),
(94,711,o),
(94,593,cs),
(94,475,o),
(196,403,o),
(346,403,cs)
);
},
{
closed = 1;
nodes = (
(257,468,o),
(195,515,o),
(195,586,cs),
(195,658,o),
(258,709,o),
(346,709,cs),
(434,709,o),
(494,657,o),
(494,586,cs),
(494,514,o),
(434,468,o),
(346,468,cs)
);
}
);
width = 690;
},
{
layerId = m002;
shapes = (
{
closed = 1;
nodes = (
(523,-18,o),
(650,94,o),
(650,233,cs),
(650,379,o),
(522,476,o),
(346,476,cs),
(169,476,o),
(40,378,o),
(40,233,cs),
(40,93,o),
(170,-18,o),
(346,-18,cs)
);
},
{
closed = 1;
nodes = (
(273,132,o),
(220,181,o),
(220,247,cs),
(220,310,o),
(274,355,o),
(346,355,cs),
(419,355,o),
(470,309,o),
(470,247,cs),
(470,180,o),
(418,132,o),
(346,132,cs)
);
},
{
closed = 1;
nodes = (
(498,402,o),
(609,477,o),
(609,593,cs),
(609,708,o),
(499,801,o),
(346,801,cs),
(194,801,o),
(82,709,o),
(82,593,cs),
(82,478,o),
(193,402,o),
(346,402,cs)
);
},
{
closed = 1;
nodes = (
(290,491,o),
(248,528,o),
(248,578,cs),
(248,627,o),
(290,661,o),
(346,661,cs),
(403,661,o),
(443,627,o),
(443,578,cs),
(443,528,o),
(403,491,o),
(346,491,cs)
);
}
);
width = 690;
}
);
unicode = 56;
},
{
glyphname = one.pnum;
lastChange = "2026-04-28 17:17:10 +0000";
layers = (
{
layerId = m01;
shapes = (
{
closed = 1;
nodes = (
(352,0,l),
(352,780,l),
(349,780,l),
(235,780,l),
(25,603,l),
(85,519,l),
(297,709,l),
(237,724,l),
(237,0,l)
);
}
);
width = 456;
},
{
layerId = m002;
shapes = (
{
closed = 1;
nodes = (
(436,0,l),
(436,780,l),
(431,780,l),
(250,780,l),
(25,603,l),
(124,475,l),
(358,675,l),
(253,724,l),
(253,0,l)
);
}
);
width = 526;
}
);
},
{
color = 11;
glyphname = zero.ss01;
lastChange = "2026-04-29 14:16:20 +0000";
layers = (
{
layerId = m01;
shapes = (
{
closed = 1;
nodes = (
(532,-18,o),
(640,131,o),
(640,390,cs),
(640,649,o),
(532,798,o),
(345,798,cs),
(158,798,o),
(50,649,o),
(50,390,cs),
(50,131,o),
(158,-18,o),
(345,-18,cs)
);
},
{
closed = 1;
nodes = (
(230,82,o),
(164,194,o),
(164,390,cs),
(164,586,o),
(230,698,o),
(345,698,cs),
(460,698,o),
(526,586,o),
(526,390,cs),
(526,194,o),
(460,82,o),
(345,82,cs)
);
},
{
closed = 1;
nodes = (
(129,155,l),
(561,506,l),
(561,626,l),
(129,275,l)
);
}
);
width = 690;
},
{
layerId = m002;
shapes = (
{
closed = 1;
nodes = (
(535,-18,o),
(650,136,o),
(650,390,cs),
(650,644,o),
(535,798,o),
(345,798,cs),
(155,798,o),
(40,644,o),
(40,390,cs),
(40,136,o),
(155,-18,o),
(345,-18,cs)
);
},
{
closed = 1;
nodes = (
(267,138,o),
(220,233,o),
(220,390,cs),
(220,547,o),
(267,642,o),
(345,642,cs),
(423,642,o),
(470,547,o),
(470,390,cs),
(470,233,o),
(423,138,o),
(345,138,cs)
);
},
{
closed = 1;
nodes = (
(129,175,l),
(561,436,l),
(561,606,l),
(129,345,l)
);
}
);
width = 690;
}
);
},
{
color = 11;
glyphname = one.ss01;
lastChange = "2026-04-29 14:16:15 +0000";
layers = (
{
layerId = m01;
shapes = (
{
closed = 1;
nodes = (
(432,0,l),
(432,780,l),
(429,780,l),
(315,780,l),
(85,603,l),
(145,519,l),
(377,709,l),
(317,724,l),
(317,0,l)
);
},
{
closed = 1;
nodes = (
(119,0,l),
(614,0,l),
(614,96,l),
(119,96,l)
);
}
);
width = 690;
},
{
layerId = m002;
shapes = (
{
closed = 1;
nodes = (
(460,0,l),
(460,780,l),
(455,780,l),
(274,780,l),
(49,603,l),
(148,475,l),
(382,675,l),
(277,724,l),
(277,0,l)
);
},
{
closed = 1;
nodes = (
(119,0,l),
(614,0,l),
(614,146,l),
(119,146,l)
);
}
);
width = 690;
}
);
},
{
glyphname = period;
kernLeft = period2;
kernRight = period;
lastChange = "2026-04-28 17:21:52 +0000";
layers = (
{
layerId = m01;
shapes = (
{
closed = 1;
nodes = (
(105,0,l),
(230,0,l),
(230,140,l),
(105,140,l)
);
}
);
width = 335;
},
{
layerId = m002;
shapes = (
{
closed = 1;
nodes = (
(75,0,l),
(260,0,l),
(260,175,l),
(75,175,l)
);
}
);
width = 335;
}
);
unicode = 46;
},
{
glyphname = comma;
kernLeft = period2;
kernRight = period;
lastChange = "2026-04-28 17:22:10 +0000";
layers = (
{
layerId = m01;
shapes = (
{
closed = 1;
nodes = (
(105,0,l),
(163,0,l),
(163,-53,o),
(132,-87,o),
(83,-87,c),
(83,-153,l),
(172,-153,o),
(230,-93,o),
(230,0,c),
(230,140,l),
(105,140,l)
);
}
);
width = 335;
},
{
layerId = m002;
shapes = (
{
closed = 1;
nodes = (
(75,0,l),
(169,0,l),
(169,-55,o),
(134,-87,o),
(73,-87,c),
(73,-173,l),
(192,-173,o),
(260,-110,o),
(260,0,c),
(260,175,l),
(75,175,l)
);
}
);
width = 335;
}
);
unicode = 44;
},
{
glyphname = exclam;
lastChange = "2026-04-28 16:26:29 +0000";
layers = (
{
layerId = m01;
shapes = (
{
closed = 1;
nodes = (
(110,0,l),
(235,0,l),
(235,140,l),
(110,140,l)
);
},
{
closed = 1;
nodes = (
(126,225,l),
(219,225,l),
(233,780,l),
(113,780,l)
);
}
);
width = 345;
},
{
layerId = m002;
shapes = (
{
closed = 1;
nodes = (
(100,0,l),
(281,0,l),
(281,174,l),
(100,174,l)
);
},
{
closed = 1;
nodes = (
(119,243,l),
(262,243,l),
(281,780,l),
(101,780,l)
);
}
);
width = 381;
}
);
unicode = 33;
},
{
glyphname = question;
lastChange = "2026-04-28 18:30:09 +0000";
layers = (
{
layerId = m01;
shapes = (
{
closed = 1;
nodes = (
(211,0,l),
(336,0,l),
(336,140,l),
(211,140,l)
);
},
{
closed = 1;
nodes = (
(133,582,l),
(137,582,l),
(169,653,o),
(228,702,o),
(301,702,cs),
(373,702,o),
(436,654,o),
(436,587,cs),
(436,545,o),
(412,501,o),
(378,477,cs),
(307,429,ls),
(257,395,o),
(222,338,o),
(222,288,cs),
(222,225,l),
(328,225,l),
(328,282,ls),
(328,305,o),
(342,331,o),
(362,346,cs),
(450,413,ls),
(509,457,o),
(549,515,o),
(549,584,cs),
(549,700,o),
(436,798,o),
(301,798,cs),
(197,798,o),
(109,739,o),
(56,654,c)
);
}
);
width = 618;
},
{
layerId = m002;
shapes = (
{
closed = 1;
nodes = (
(173,0,l),
(352,0,l),
(352,174,l),
(173,174,l)
);
},
{
closed = 1;
nodes = (
(162,562,l),
(166,562,l),
(191,617,o),
(237,652,o),
(290,652,cs),
(343,652,o),
(383,616,o),
(383,569,cs),
(383,535,o),
(363,505,o),
(331,483,cs),
(290,455,ls),
(225,410,o),
(183,344,o),
(183,288,cs),
(183,243,l),
(346,243,l),
(346,282,ls),
(346,307,o),
(368,337,o),
(402,359,cs),
(439,383,ls),
(515,433,o),
(565,494,o),
(565,576,cs),
(565,696,o),
(457,798,o),
(310,798,cs),
(200,798,o),
(104,741,o),
(45,654,c)
);
}
);
width = 615;
}
);
unicode = 63;
},
{
glyphname = bullet;
lastChange = "2026-04-28 18:30:13 +0000";
layers = (
{
layerId = m01;
shapes = (
{
closed = 1;
nodes = (
(289,182,o),
(344,237,o),
(344,304,cs),
(344,371,o),
(289,426,o),
(222,426,cs),
(155,426,o),
(100,371,o),
(100,304,cs),
(100,237,o),
(155,182,o),
(222,182,cs)
);
}
);
width = 444;
},
{
layerId = m002;
shapes = (
{
closed = 1;
nodes = (
(313,134,o),
(390,211,o),
(390,304,cs),
(390,397,o),
(313,474,o),
(220,474,cs),
(127,474,o),
(50,397,o),
(50,304,cs),
(50,211,o),
(127,134,o),
(220,134,cs)
);
}
);
width = 440;
}
);
unicode = 8226;
},
{
glyphname = asterisk;
lastChange = "2026-04-28 17:30:46 +0000";
layers = (
{
layerId = m01;
shapes = (
{
closed = 1;
nodes = (
(479,302,l),
(402,254,l),
(303,428,l),
(200,256,l),
(123,305,l),
(222,472,l),
(25,472,l),
(25,570,l),
(222,570,l),
(122,740,l),
(199,788,l),
(302,615,l),
(401,788,l),
(480,743,l),
(382,570,l),
(575,570,l),
(575,472,l),
(382,472,l)
);
}
);
width = 600;
},
{
layerId = m002;
shapes = (
{
closed = 1;
nodes = (
(468,314,l),
(360,251,l),
(279,375,l),
(198,251,l),
(90,314,l),
(158,445,l),
(12,453,l),
(12,576,l),
(158,585,l),
(90,718,l),
(198,780,l),
(279,655,l),
(359,780,l),
(468,718,l),
(400,585,l),
(546,576,l),
(546,454,l),
(400,445,l)
);
}
);
width = 558;
}
);
unicode = 42;
},
{
glyphname = numbersign;
lastChange = "2026-04-28 18:30:44 +0000";
layers = (
{
layerId = m01;
shapes = (
{
closed = 1;
nodes = (
(320,0,l),
(487,780,l),
(569,780,l),
(402,0,l)
);
},
{
closed = 1;
nodes = (
(90,0,l),
(257,780,l),
(339,780,l),
(172,0,l)
);
},
{
closed = 1;
nodes = (
(647,594,l),
(647,496,l),
(85,496,l),
(85,594,l)
);
},
{
closed = 1;
nodes = (
(587,309,l),
(587,211,l),
(25,211,l),
(25,309,l)
);
}
);
width = 672;
},
{
layerId = m002;
shapes = (
{
closed = 1;
nodes = (
(310,0,l),
(477,780,l),
(609,780,l),
(442,0,l)
);
},
{
closed = 1;
nodes = (
(80,0,l),
(247,780,l),
(379,780,l),
(212,0,l)
);
},
{
closed = 1;
nodes = (
(677,619,l),
(677,471,l),
(85,471,l),
(85,619,l)
);
},
{
closed = 1;
nodes = (
(617,339,l),
(617,181,l),
(25,181,l),
(25,339,l)
);
}
);
width = 702;
}
);
unicode = 35;
},
{
glyphname = slash;
lastChange = "2026-04-28 18:31:07 +0000";
layers = (
{
layerId = m01;
shapes = (
{
closed = 1;
nodes = (
(0,-23,l),
(309,803,l),
(400,803,l),
(91,-23,l)
);
}
);
width = 400;
},
{
layerId = m002;
shapes = (
{
closed = 1;
nodes = (
(0,-23,l),
(299,803,l),
(440,803,l),
(141,-23,l)
);
}
);
width = 440;
}
);
unicode = 47;
},
{
glyphname = hyphen;
lastChange = "2026-04-28 18:31:19 +0000";
layers = (
{
layerId = m01;
shapes = (
{
closed = 1;
nodes = (
(56,234,l),
(408,234,l),
(408,332,l),
(56,332,l)
);
}
);
width = 464;
},
{
layerId = m002;
shapes = (
{
closed = 1;
nodes = (
(46,205,l),
(418,205,l),
(418,362,l),
(46,362,l)
);
}
);
width = 464;
}
);
unicode = 45;
},
{
glyphname = endash;
lastChange = "2026-04-28 18:31:17 +0000";
layers = (
{
layerId = m01;
shapes = (
{
closed = 1;
nodes = (
(56,234,l),
(558,234,l),
(558,332,l),
(56,332,l)
);
}
);
width = 614;
},
{
layerId = m002;
shapes = (
{
closed = 1;
nodes = (
(46,205,l),
(568,205,l),
(568,362,l),
(46,362,l)
);
}
);
width = 614;
}
);
unicode = 8211;
},
{
glyphname = emdash;
lastChange = "2026-04-28 18:31:24 +0000";
layers = (
{
layerId = m01;
shapes = (
{
closed = 1;
nodes = (
(56,234,l),
(788,234,l),
(788,332,l),
(56,332,l)
);
}
);
width = 844;
},
{
layerId = m002;
shapes = (
{
closed = 1;
nodes = (
(46,205,l),
(798,205,l),
(798,362,l),
(46,362,l)
);
}
);
width = 844;
}
);
unicode = 8212;
},
{
glyphname = underscore;
lastChange = "2026-04-28 18:31:34 +0000";
layers = (
{
layerId = m01;
shapes = (
{
closed = 1;
nodes = (
(0,-90,l),
(500,-90,l),
(500,-160,l),
(0,-160,l)
);
}
);
width = 500;
},
{
layerId = m002;
shapes = (
{
closed = 1;
nodes = (
(0,-65,l),
(500,-65,l),
(500,-165,l),
(0,-165,l)
);
}
);
width = 500;
}
);
unicode = 95;
},
{
glyphname = parenleft;
lastChange = "2026-04-28 18:32:21 +0000";
layers = (
{
layerId = m01;
shapes = (
{
closed = 1;
nodes = (
(178,-62,o),
(85,143,o),
(85,340,cs),
(85,538,o),
(178,743,o),
(313,843,c),
(380,795,l),
(263,707,o),
(182,521,o),
(182,340,cs),
(182,160,o),
(263,-24,o),
(380,-111,c),
(313,-162,l)
);
}
);
width = 400;
},
{
layerId = m002;
shapes = (
{
closed = 1;
nodes = (
(150,-55,o),
(60,128,o),
(60,340,cs),
(60,553,o),
(150,736,o),
(308,843,c),
(395,785,l),
(288,692,o),
(227,530,o),
(227,340,cs),
(227,151,o),
(288,-9,o),
(395,-101,c),
(308,-162,l)
);
}
);
width = 405;
}
);
unicode = 40;
},
{
glyphname = braceleft;
lastChange = "2026-04-28 18:33:25 +0000";
layers = (
{
layerId = m01;
shapes = (
{
closed = 1;
nodes = (
(173,335,ls),
(235,335,o),
(269,356,o),
(269,419,cs),
(269,476,o),
(241,638,o),
(241,682,cs),
(241,727,o),
(270,758,o),
(323,758,cs),
(363,758,l),
(363,839,l),
(305,839,ls),
(201,839,o),
(145,787,o),
(145,703,cs),
(145,644,o),
(173,481,o),
(173,429,cs),
(173,388,o),
(155,381,o),
(123,381,cs),
(90,381,l),
(90,335,l)
);
},
{
closed = 1;
nodes = (
(363,-158,l),
(363,-77,l),
(323,-77,ls),
(270,-77,o),
(241,-46,o),
(241,-1,cs),
(241,43,o),
(269,205,o),
(269,262,cs),
(269,325,o),
(235,346,o),
(173,346,cs),
(90,346,l),
(90,300,l),
(123,300,ls),
(155,300,o),
(173,293,o),
(173,252,cs),
(173,200,o),
(145,37,o),
(145,-22,cs),
(145,-106,o),
(201,-158,o),
(305,-158,cs)
);
}
);
width = 393;
},
{
layerId = m002;
shapes = (
{
closed = 1;
nodes = (
(207,335,ls),
(269,335,o),
(303,364,o),
(303,419,cs),
(303,476,o),
(275,598,o),
(275,642,cs),
(275,691,o),
(304,718,o),
(357,718,cs),
(397,718,l),
(397,839,l),
(339,839,ls),
(206,839,o),
(135,784,o),
(135,683,cs),
(135,628,o),
(163,497,o),
(163,449,cs),
(163,418,o),
(145,401,o),
(113,401,cs),
(80,401,l),
(80,335,l)
);
},
{
closed = 1;
nodes = (
(397,-158,l),
(397,-37,l),
(357,-37,ls),
(304,-37,o),
(275,-10,o),
(275,39,cs),
(275,83,o),
(303,205,o),
(303,262,cs),
(303,317,o),
(269,346,o),
(207,346,cs),
(80,346,l),
(80,280,l),
(113,280,ls),
(145,280,o),
(163,263,o),
(163,232,cs),
(163,184,o),
(135,53,o),
(135,-2,cs),
(135,-103,o),
(191,-158,o),
(295,-158,cs)
);
}
);
width = 422;
}
);
unicode = 123;
},
{
glyphname = bracketleft;
lastChange = "2026-04-28 18:33:57 +0000";
layers = (
{
layerId = m01;
shapes = (
{
closed = 1;
nodes = (
(120,-150,l),
(214,-150,l),
(214,830,l),
(120,830,l)
);
},
{
closed = 1;
nodes = (
(180,744,l),
(381,744,l),
(381,830,l),
(180,830,l)
);
},
{
closed = 1;
nodes = (
(180,-150,l),
(390,-150,l),
(390,-64,l),
(180,-64,l)
);
}
);
width = 410;
},
{
layerId = m002;
shapes = (
{
closed = 1;
nodes = (
(100,-150,l),
(245,-150,l),
(245,830,l),
(100,830,l)
);
},
{
closed = 1;
nodes = (
(193,700,l),
(412,700,l),
(412,830,l),
(193,830,l)
);
},
{
closed = 1;
nodes = (
(193,-150,l),
(421,-150,l),
(421,-20,l),
(193,-20,l)
);
}
);
width = 431;
}
);
unicode = 91;
},
{
glyphname = quotedbl;
lastChange = "2026-04-28 18:34:40 +0000";
layers = (
{
layerId = m01;
shapes = (
{
closed = 1;
nodes = (
(306,494,l),
(294,780,l),
(403,780,l),
(384,494,l)
);
},
{
closed = 1;
nodes = (
(103,494,l),
(90,780,l),
(199,780,l),
(181,494,l)
);
}
);
width = 493;
},
{
layerId = m002;
shapes = (
{
closed = 1;
nodes = (
(314,468,l),
(294,780,l),
(475,780,l),
(443,468,l)
);
},
{
closed = 1;
nodes = (
(82,468,l),
(60,780,l),
(241,780,l),
(211,468,l)
);
}
);
width = 535;
}
);
unicode = 34;
},
{
glyphname = quotesingle;
lastChange = "2026-04-28 18:34:56 +0000";
layers = (
{
layerId = m01;
shapes = (
{
closed = 1;
nodes = (
(103,494,l),
(90,780,l),
(199,780,l),
(181,494,l)
);
}
);
width = 289;
},
{
layerId = m002;
shapes = (
{
closed = 1;
nodes = (
(92,468,l),
(70,780,l),
(251,780,l),
(221,468,l)
);
}
);
width = 321;
}
);
unicode = 39;
},
{
glyphname = at;
lastChange = "2026-04-29 14:08:42 +0000";
layers = (
{
layerId = m01;
shapes = (
{
closed = 1;
nodes = (
(516,497,l),
(516,429,l),
(511,411,l),
(511,276,ls),
(511,191,o),
(568,133,o),
(649,133,cs),
(744,133,o),
(808,213,o),
(808,350,cs),
(808,564,o),
(650,724,o),
(424,724,cs),
(194,724,o),
(40,557,o),
(40,320,cs),
(40,77,o),
(202,-84,o),
(424,-84,cs),
(501,-84,o),
(581,-68,o),
(637,-44,c),
(637,45,l),
(632,45,l),
(577,14,o),
(505,-8,o),
(424,-8,cs),
(254,-8,o),
(118,120,o),
(118,320,cs),
(118,508,o),
(237,648,o),
(424,648,cs),
(599,648,o),
(730,524,o),
(730,350,cs),
(730,263,o),
(699,207,o),
(652,207,cs),
(617,207,o),
(591,234,o),
(591,273,cs),
(591,497,l)
);
},
{
closed = 1;
nodes = (
(511,285,l),
(511,235,o),
(472,201,o),
(422,201,cs),
(365,201,o),
(331,245,o),
(331,317,cs),
(331,384,o),
(360,435,o),
(422,435,cs),
(473,435,o),
(521,400,o),
(521,349,c),
(557,349,l),
(557,440,o),
(493,502,o),
(408,502,cs),
(311,502,o),
(250,425,o),
(250,317,cs),
(250,207,o),
(314,134,o),
(406,134,cs),
(490,134,o),
(548,195,o),
(548,285,c)
);
}
);
width = 848;
},
{
layerId = m002;
shapes = (
{
closed = 1;
nodes = (
(486,507,l),
(486,438,l),
(471,426,l),
(471,296,ls),
(471,201,o),
(539,131,o),
(634,131,cs),
(747,131,o),
(831,231,o),
(831,370,cs),
(831,574,o),
(651,724,o),
(426,724,cs),
(183,724,o),
(21,549,o),
(21,320,cs),
(21,81,o),
(197,-84,o),
(426,-84,cs),
(500,-84,o),
(585,-67,o),
(639,-44,c),
(639,67,l),
(634,67,l),
(583,41,o),
(492,22,o),
(426,22,cs),
(258,22,o),
(141,145,o),
(141,320,cs),
(141,490,o),
(253,619,o),
(426,619,cs),
(583,619,o),
(711,513,o),
(711,370,cs),
(711,299,o),
(679,249,o),
(647,249,cs),
(619,249,o),
(611,268,o),
(611,293,cs),
(611,507,l)
);
},
{
closed = 1;
nodes = (
(471,295,l),
(471,261,o),
(445,237,o),
(417,237,cs),
(382,237,o),
(361,278,o),
(361,324,cs),
(361,378,o),
(390,409,o),
(427,409,cs),
(459,409,o),
(480,388,o),
(480,359,c),
(517,359,l),
(517,451,o),
(469,518,o),
(383,518,cs),
(297,518,o),
(221,437,o),
(221,324,cs),
(221,212,o),
(295,129,o),
(381,129,cs),
(467,129,o),
(520,199,o),
(520,295,c)
);
}
);
width = 848;
}
);
unicode = 64;
},
{
glyphname = ampersand;
lastChange = "2026-04-29 14:03:12 +0000";
layers = (
{
layerId = m01;
shapes = (
{
closed = 1;
nodes = (
(191,71,o),
(132,137,o),
(132,216,cs),
(132,405,o),
(473,411,o),
(473,625,cs),
(473,728,o),
(393,798,o),
(287,798,cs),
(170,798,o),
(97,713,o),
(97,625,cs),
(97,561,o),
(136,497,o),
(193,431,cs),
(567,0,l),
(700,0,l),
(274,476,ls),
(225,531,o),
(191,584,o),
(191,625,cs),
(191,671,o),
(232,716,o),
(290,716,cs),
(344,716,o),
(380,676,o),
(380,622,cs),
(380,455,o),
(36,456,o),
(36,211,cs),
(36,81,o),
(133,-18,o),
(278,-18,cs),
(464,-18,o),
(622,144,o),
(660,379,c),
(580,427,l),
(575,427,l),
(541,216,o),
(420,71,o),
(283,71,cs)
);
}
);
width = 690;
},
{
layerId = m002;
shapes = (
{
closed = 1;
nodes = (
(247,129,o),
(205,171,o),
(205,226,cs),
(205,379,o),
(535,383,o),
(535,605,cs),
(535,720,o),
(446,798,o),
(323,798,cs),
(193,798,o),
(108,710,o),
(108,605,cs),
(108,539,o),
(142,470,o),
(192,413,cs),
(551,0,l),
(756,0,l),
(320,487,ls),
(287,525,o),
(264,573,o),
(264,604,cs),
(264,639,o),
(293,663,o),
(326,663,cs),
(362,663,o),
(380,634,o),
(380,602,cs),
(380,466,o),
(45,468,o),
(45,221,cs),
(45,78,o),
(157,-18,o),
(314,-18,cs),
(518,-18,o),
(681,144,o),
(719,379,c),
(586,427,l),
(579,427,l),
(551,250,o),
(441,129,o),
(319,129,cs)
);
}
);
width = 731;
}
);
unicode = 38;
},
{
glyphname = copyright;
lastChange = "2026-04-29 14:06:19 +0000";
layers = (
{
layerId = m01;
shapes = (
{
closed = 1;
nodes = (
(682,-14,o),
(858,162,o),
(858,390,cs),
(858,618,o),
(682,794,o),
(454,794,cs),
(226,794,o),
(50,618,o),
(50,390,cs),
(50,162,o),
(226,-14,o),
(454,-14,cs)
);
},
{
closed = 1;
nodes = (
(266,59,o),
(123,202,o),
(123,390,cs),
(123,578,o),
(266,721,o),
(454,721,cs),
(642,721,o),
(785,578,o),
(785,390,cs),
(785,202,o),
(642,59,o),
(454,59,cs)
);
},
{
closed = 1;
nodes = (
(229,262,o),
(326,165,o),
(454,165,cs),
(519,165,o),
(576,190,o),
(616,231,c),
(564,281,l),
(537,254,o),
(499,238,o),
(456,238,cs),
(369,238,o),
(303,303,o),
(303,390,cs),
(303,477,o),
(369,542,o),
(456,542,cs),
(499,542,o),
(537,526,o),
(564,499,c),
(616,549,l),
(576,590,o),
(519,615,o),
(454,615,cs),
(326,615,o),
(229,518,o),
(229,390,cs)
);
}
);
width = 908;
},
{
layerId = m002;
shapes = (
{
closed = 1;
nodes = (
(682,-14,o),
(858,162,o),
(858,390,cs),
(858,618,o),
(682,794,o),
(454,794,cs),
(226,794,o),
(50,618,o),
(50,390,cs),
(50,162,o),
(226,-14,o),
(454,-14,cs)
);
},
{
closed = 1;
nodes = (
(281,86,o),
(150,217,o),
(150,390,cs),
(150,563,o),
(281,694,o),
(454,694,cs),
(627,694,o),
(758,563,o),
(758,390,cs),
(758,217,o),
(627,86,o),
(454,86,cs)
);
},
{
closed = 1;
nodes = (
(247,272,o),
(336,183,o),
(454,183,cs),
(514,183,o),
(566,206,o),
(603,244,c),
(520,328,l),
(504,312,o),
(482,303,o),
(458,303,cs),
(408,303,o),
(370,340,o),
(370,390,cs),
(370,440,o),
(408,477,o),
(458,477,cs),
(482,477,o),
(504,468,o),
(520,452,c),
(603,536,l),
(566,574,o),
(514,597,o),
(454,597,cs),
(336,597,o),
(247,508,o),
(247,390,cs)
);
}
);
width = 908;
}
);
unicode = 169;
},
{
glyphname = registered;
lastChange = "2026-04-29 14:07:21 +0000";
layers = (
{
layerId = m01;
shapes = (
{
closed = 1;
nodes = (
(682,-14,o),
(858,162,o),
(858,390,cs),
(858,618,o),
(682,794,o),
(454,794,cs),
(226,794,o),
(50,618,o),
(50,390,cs),
(50,162,o),
(226,-14,o),
(454,-14,cs)
);
},
{
closed = 1;
nodes = (
(266,59,o),
(123,202,o),
(123,390,cs),
(123,578,o),
(266,721,o),
(454,721,cs),
(642,721,o),
(785,578,o),
(785,390,cs),
(785,202,o),
(642,59,o),
(454,59,cs)
);
},
{
closed = 1;
nodes = (
(305,173,l),
(378,173,l),
(378,607,l),
(305,607,l)
);
},
{
closed = 1;
nodes = (
(492,544,ls),
(536,544,o),
(565,519,o),
(565,476,cs),
(565,434,o),
(536,409,o),
(492,409,cs),
(332,409,l),
(332,349,l),
(497,349,ls),
(584,349,o),
(638,397,o),
(638,476,cs),
(638,557,o),
(584,607,o),
(497,607,cs),
(334,607,l),
(334,544,l)
);
},
{
closed = 1;
nodes = (
(655,173,l),
(482,377,l),
(392,377,l),
(562,173,l)
);
}
);
width = 908;
},
{
layerId = m002;
shapes = (
{
closed = 1;
nodes = (
(682,-14,o),
(858,162,o),
(858,390,cs),
(858,618,o),
(682,794,o),
(454,794,cs),
(226,794,o),
(50,618,o),
(50,390,cs),
(50,162,o),
(226,-14,o),
(454,-14,cs)
);
},
{
closed = 1;
nodes = (
(281,86,o),
(150,217,o),
(150,390,cs),
(150,563,o),
(281,694,o),
(454,694,cs),
(627,694,o),
(758,563,o),
(758,390,cs),
(758,217,o),
(627,86,o),
(454,86,cs)
);
},
{
closed = 1;
nodes = (
(290,193,l),
(403,193,l),
(403,597,l),
(290,597,l)
);
},
{
closed = 1;
nodes = (
(472,504,ls),
(500,504,o),
(520,485,o),
(520,460,cs),
(520,433,o),
(500,414,o),
(472,414,cs),
(312,414,l),
(312,324,l),
(477,324,ls),
(567,324,o),
(633,381,o),
(633,460,cs),
(633,539,o),
(567,597,o),
(477,597,cs),
(314,597,l),
(314,504,l)
);
},
{
closed = 1;
nodes = (
(655,193,l),
(527,367,l),
(397,367,l),
(522,193,l)
);
}
);
width = 908;
}
);
unicode = 174;
},
{
glyphname = trademark;
lastChange = "2026-04-29 14:08:25 +0000";
layers = (
{
layerId = m01;
shapes = (
{
closed = 1;
nodes = (
(173,468,l),
(173,780,l),
(113,780,l),
(113,468,l)
);
},
{
closed = 1;
nodes = (
(266,725,l),
(266,780,l),
(20,780,l),
(20,725,l)
);
},
{
closed = 1;
nodes = (
(316,468,l),
(372,468,l),
(372,704,l),
(374,780,l),
(316,780,l)
);
},
{
closed = 1;
nodes = (
(578,780,l),
(574,704,l),
(574,468,l),
(630,468,l),
(630,780,l)
);
},
{
closed = 1;
nodes = (
(473,561,l),
(405,780,l),
(348,780,l),
(447,468,l),
(495,468,l)
);
},
{
closed = 1;
nodes = (
(499,468,l),
(598,780,l),
(541,780,l),
(474,561,l),
(451,468,l)
);
}
);
width = 690;
},
{
layerId = m002;
shapes = (
{
closed = 1;
nodes = (
(226,441,l),
(226,780,l),
(110,780,l),
(110,441,l)
);
},
{
closed = 1;
nodes = (
(317,690,l),
(317,780,l),
(20,780,l),
(20,690,l)
);
},
{
closed = 1;
nodes = (
(373,441,l),
(477,441,l),
(477,697,l),
(480,780,l),
(373,780,l)
);
},
{
closed = 1;
nodes = (
(703,780,l),
(695,697,l),
(695,441,l),
(800,441,l),
(800,780,l)
);
},
{
closed = 1;
nodes = (
(606,542,l),
(536,780,l),
(439,780,l),
(541,441,l),
(591,441,l)
);
},
{
closed = 1;
nodes = (
(633,441,l),
(735,780,l),
(638,780,l),
(569,542,l),
(545,441,l)
);
}
);
width = 860;
}
);
unicode = 8482;
},
{
glyphname = degree;
lastChange = "2026-04-29 12:49:27 +0000";
layers = (
{
layerId = m01;
shapes = (
{
closed = 1;
nodes = (
(294,586,o),
(236,528,o),
(162,528,cs),
(88,528,o),
(30,586,o),
(30,660,cs),
(30,734,o),
(88,792,o),
(162,792,cs),
(236,792,o),
(294,734,o),
(294,660,cs)
);
},
{
closed = 1;
nodes = (
(245,707,o),
(209,743,o),
(162,743,cs),
(115,743,o),
(79,707,o),
(79,661,cs),
(79,614,o),
(115,577,o),
(162,577,cs),
(209,577,o),
(245,614,o),
(245,661,cs)
);
}
);
width = 324;
},
{
layerId = m002;
shapes = (
{
closed = 1;
nodes = (
(344,539,o),
(273,468,o),
(182,468,cs),
(91,468,o),
(20,539,o),
(20,630,cs),
(20,721,o),
(91,792,o),
(182,792,cs),
(273,792,o),
(344,721,o),
(344,630,cs)
);
},
{
closed = 1;
nodes = (
(249,668,o),
(220,697,o),
(182,697,cs),
(144,697,o),
(115,668,o),
(115,630,cs),
(115,593,o),
(144,563,o),
(182,563,cs),
(220,563,o),
(249,593,o),
(249,630,cs)
);
}
);
width = 364;
}
);
unicode = 176;
},
{
glyphname = bar;
lastChange = "2026-04-29 12:49:13 +0000";
layers = (
{
layerId = m01;
shapes = (
{
closed = 1;
nodes = (
(150,803,l),
(233,803,l),
(233,-23,l),
(150,-23,l)
);
}
);
width = 383;
},
{
layerId = m002;
shapes = (
{
closed = 1;
nodes = (
(119,803,l),
(264,803,l),
(264,-23,l),
(119,-23,l)
);
}
);
width = 383;
}
);
unicode = 124;
},
{
glyphname = cent;
lastChange = "2026-04-29 14:00:22 +0000";
layers = (
{
layerId = m01;
shapes = (
{
closed = 1;
nodes = (
(477,413,l),
(517,496,l),
(474,537,o),
(407,565,o),
(328,565,cs),
(170,565,o),
(45,451,o),
(45,277,cs),
(45,109,o),
(162,-12,o),
(326,-12,cs),
(399,-12,o),
(470,12,o),
(509,47,c),
(509,156,l),
(504,156,l),
(469,109,o),
(402,77,o),
(334,78,cs),
(230,79,o),
(155,158,o),
(155,277,cs),
(155,392,o),
(225,475,o),
(328,475,cs),
(384,475,o),
(442,450,o),
(472,413,c)
);
},
{
closed = 1;
nodes = (
(360,-97,l),
(360,657,l),
(304,657,l),
(304,-97,l)
);
}
);
width = 553;
},
{
layerId = m002;
shapes = (
{
closed = 1;
nodes = (
(489,371,l),
(530,505,l),
(480,546,o),
(411,575,o),
(331,575,cs),
(170,575,o),
(40,458,o),
(40,282,cs),
(40,110,o),
(164,-12,o),
(339,-12,cs),
(403,-12,o),
(467,4,o),
(502,28,c),
(502,172,l),
(496,172,l),
(468,146,o),
(413,128,o),
(364,128,cs),
(276,129,o),
(218,189,o),
(218,282,cs),
(218,370,o),
(271,435,o),
(351,435,cs),
(402,435,o),
(457,409,o),
(484,371,c)
);
},
{
closed = 1;
nodes = (
(403,-97,l),
(403,657,l),
(311,657,l),
(311,-97,l)
);
}
);
width = 550;
}
);
metricLeft = c;
metricRight = c;
unicode = 162;
},
{
glyphname = dollar;
lastChange = "2026-04-28 19:03:19 +0000";
layers = (
{
layerId = m01;
shapes = (
{
closed = 1;
nodes = (
(526,590,l),
(582,671,l),
(526,733,o),
(425,777,o),
(327,777,cs),
(182,777,o),
(77,682,o),
(77,564,cs),
(77,469,o),
(145,399,o),
(243,371,cs),
(372,335,ls),
(439,316,o),
(486,280,o),
(486,222,cs),
(486,158,o),
(427,97,o),
(336,97,cs),
(254,97,o),
(165,145,o),
(120,216,c),
(115,216,l),
(55,140,l),
(104,58,o),
(222,2,o),
(338,2,cs),
(493,2,o),
(593,102,o),
(593,222,cs),
(593,327,o),
(518,402,o),
(410,432,cs),
(286,466,ls),
(226,483,o),
(184,514,o),
(184,567,cs),
(184,628,o),
(239,686,o),
(327,686,cs),
(400,686,o),
(483,647,o),
(522,590,c)
);
},
{
closed = 1;
nodes = (
(360,-72,l),
(360,852,l),
(304,852,l),
(304,-72,l)
);
}
);
width = 648;
},
{
layerId = m002;
shapes = (
{
closed = 1;
nodes = (
(516,547,l),
(608,665,l),
(542,735,o),
(436,777,o),
(328,777,cs),
(167,777,o),
(69,685,o),
(69,555,cs),
(69,449,o),
(134,378,o),
(240,347,cs),
(371,307,ls),
(427,291,o),
(461,275,o),
(461,232,cs),
(461,192,o),
(432,149,o),
(355,149,cs),
(280,149,o),
(187,189,o),
(138,255,c),
(131,255,l),
(45,145,l),
(100,56,o),
(233,2,o),
(357,2,cs),
(534,2,o),
(617,113,o),
(617,241,cs),
(617,359,o),
(547,418,o),
(431,453,cs),
(303,492,ls),
(254,506,o),
(224,521,o),
(224,554,cs),
(224,593,o),
(264,630,o),
(338,630,cs),
(405,630,o),
(473,599,o),
(511,547,c)
);
},
{
closed = 1;
nodes = (
(385,-72,l),
(385,852,l),
(297,852,l),
(297,-72,l)
);
}
);
width = 662;
}
);
metricLeft = S;
metricRight = S;
unicode = 36;
},
{
glyphname = euro;
lastChange = "2026-04-29 14:09:15 +0000";
layers = (
{
layerId = m01;
shapes = (
{
closed = 1;
nodes = (
(699,611,l),
(752,700,l),
(695,757,o),
(601,798,o),
(499,798,cs),
(293,798,o),
(122,631,o),
(122,390,cs),
(122,159,o),
(278,-18,o),
(497,-18,cs),
(582,-18,o),
(683,11,o),
(730,52,c),
(730,182,l),
(725,182,l),
(682,125,o),
(592,84,o),
(507,85,cs),
(354,87,o),
(239,213,o),
(239,390,cs),
(239,566,o),
(353,698,o),
(499,698,cs),
(576,698,o),
(654,661,o),
(694,611,c)
);
},
{
closed = 1;
nodes = (
(30,273,l),
(480,273,l),
(521,345,l),
(30,345,l)
);
},
{
closed = 1;
nodes = (
(30,429,l),
(577,429,l),
(618,501,l),
(30,501,l)
);
}
);
width = 787;
},
{
layerId = m002;
shapes = (
{
closed = 1;
nodes = (
(682,551,l),
(755,700,l),
(695,758,o),
(605,798,o),
(500,798,cs),
(289,798,o),
(120,638,o),
(120,390,cs),
(120,154,o),
(274,-18,o),
(499,-18,cs),
(588,-18,o),
(684,9,o),
(735,48,c),
(735,226,l),
(730,226,l),
(675,177,o),
(589,143,o),
(517,143,cs),
(394,143,o),
(308,243,o),
(308,390,cs),
(308,536,o),
(392,638,o),
(509,638,cs),
(577,638,o),
(643,603,o),
(677,551,c)
);
},
{
closed = 1;
nodes = (
(30,239,l),
(500,239,l),
(541,351,l),
(30,351,l)
);
},
{
closed = 1;
nodes = (
(30,423,l),
(567,423,l),
(608,535,l),
(30,535,l)
);
}
);
width = 775;
}
);
metricRight = C;
unicode = 8364;
},
{
glyphname = sterling;
lastChange = "2026-04-29 14:10:28 +0000";
layers = (
{
layerId = m01;
shapes = (
{
closed = 1;
nodes = (
(552,711,l),
(511,766,o),
(421,806,o),
(333,806,cs),
(202,806,o),
(102,718,o),
(102,600,cs),
(102,488,o),
(193,414,o),
(193,306,cs),
(193,221,o),
(137,129,o),
(60,86,c),
(60,0,l),
(550,0,l),
(550,88,l),
(117,88,l),
(135,57,l),
(223,95,o),
(287,202,o),
(287,299,cs),
(287,414,o),
(198,500,o),
(198,590,cs),
(198,660,o),
(253,716,o),
(333,716,cs),
(396,716,o),
(464,681,o),
(489,632,c),
(494,632,l)
);
},
{
closed = 1;
nodes = (
(67,350,l),
(504,350,l),
(504,423,l),
(67,423,l)
);
}
);
width = 602;
},
{
layerId = m002;
shapes = (
{
closed = 1;
nodes = (
(572,711,l),
(531,766,o),
(428,806,o),
(333,806,cs),
(186,806,o),
(82,709,o),
(82,580,cs),
(82,473,o),
(153,366,o),
(153,306,cs),
(153,256,o),
(105,199,o),
(40,133,c),
(40,0,l),
(550,0,l),
(550,136,l),
(117,136,l),
(175,88,l),
(267,153,o),
(332,234,o),
(327,309,cs),
(323,376,o),
(258,505,o),
(258,570,cs),
(258,621,o),
(297,656,o),
(353,656,cs),
(409,656,o),
(467,621,o),
(489,572,c),
(494,572,l)
);
},
{
closed = 1;
nodes = (
(57,320,l),
(531,320,l),
(531,453,l),
(57,453,l)
);
}
);
width = 602;
}
);
unicode = 163;
},
{
glyphname = yen;
lastChange = "2026-04-29 14:11:16 +0000";
layers = (
{
layerId = m01;
shapes = (
{
closed = 1;
nodes = (
(121,780,l),
(-8,780,l),
(289,252,l),
(354,333,l)
);
},
{
closed = 1;
nodes = (
(350,256,l),
(645,780,l),
(518,780,l),
(285,333,l)
);
},
{
closed = 1;
nodes = (
(260,0,l),
(376,0,l),
(376,363,l),
(260,363,l)
);
},
{
closed = 1;
nodes = (
(72,150,l),
(566,150,l),
(566,222,l),
(72,222,l)
);
},
{
closed = 1;
nodes = (
(76,306,l),
(566,306,l),
(566,378,l),
(76,378,l)
);
}
);
width = 637;
},
{
layerId = m002;
shapes = (
{
closed = 1;
nodes = (
(181,780,l),
(-15,780,l),
(260,232,l),
(381,353,l)
);
},
{
closed = 1;
nodes = (
(393,236,l),
(666,780,l),
(471,780,l),
(271,353,l)
);
},
{
closed = 1;
nodes = (
(231,0,l),
(416,0,l),
(416,343,l),
(231,343,l)
);
},
{
closed = 1;
nodes = (
(78,100,l),
(572,100,l),
(572,216,l),
(78,216,l)
);
},
{
closed = 1;
nodes = (
(82,272,l),
(572,272,l),
(572,388,l),
(82,388,l)
);
}
);
width = 651;
}
);
metricLeft = Y;
metricRight = Y;
unicode = 165;
},
{
glyphname = plus;
lastChange = "2026-04-28 18:36:11 +0000";
layers = (
{
layerId = m01;
shapes = (
{
closed = 1;
nodes = (
(393,114,l),
(290,114,l),
(290,348,l),
(60,348,l),
(60,445,l),
(290,445,l),
(290,666,l),
(393,666,l),
(393,445,l),
(630,445,l),
(630,348,l),
(393,348,l)
);
}
);
width = 690;
},
{
layerId = m002;
shapes = (
{
closed = 1;
nodes = (
(421,94,l),
(263,94,l),
(263,318,l),
(40,318,l),
(40,476,l),
(263,476,l),
(263,686,l),
(421,686,l),
(421,476,l),
(650,476,l),
(650,318,l),
(421,318,l)
);
}
);
width = 690;
}
);
unicode = 43;
},
{
glyphname = minus;
lastChange = "2026-04-28 18:36:16 +0000";
layers = (
{
layerId = m01;
shapes = (
{
closed = 1;
nodes = (
(60,348,l),
(60,445,l),
(630,445,l),
(630,348,l)
);
}
);
width = 690;
},
{
layerId = m002;
shapes = (
{
closed = 1;
nodes = (
(40,318,l),
(40,476,l),
(650,476,l),
(650,318,l)
);
}
);
width = 690;
}
);
unicode = 8722;
},
{
glyphname = multiply;
lastChange = "2026-04-28 18:36:42 +0000";
layers = (
{
layerId = m01;
shapes = (
{
closed = 1;
nodes = (
(133,139,l),
(60,212,l),
(247,399,l),
(63,582,l),
(132,651,l),
(315,467,l),
(502,654,l),
(575,581,l),
(388,394,l),
(572,211,l),
(503,142,l),
(320,326,l)
);
}
);
width = 635;
},
{
layerId = m002;
shapes = (
{
closed = 1;
nodes = (
(162,92,l),
(50,204,l),
(239,392,l),
(51,580,l),
(163,692,l),
(351,504,l),
(529,683,l),
(641,571,l),
(462,392,l),
(654,200,l),
(542,89,l),
(351,281,l)
);
}
);
width = 704;
}
);
unicode = 215;
},
{
glyphname = divide;
lastChange = "2026-04-29 14:11:47 +0000";
layers = (
{
layerId = m01;
shapes = (
{
closed = 1;
nodes = (
(60,348,l),
(60,445,l),
(610,445,l),
(610,348,l)
);
},
{
closed = 1;
nodes = (
(273,556,l),
(397,556,l),
(397,680,l),
(273,680,l)
);
},
{
closed = 1;
nodes = (
(273,113,l),
(397,113,l),
(397,237,l),
(273,237,l)
);
}
);
width = 670;
},
{
layerId = m002;
shapes = (
{
closed = 1;
nodes = (
(45,318,l),
(45,476,l),
(625,476,l),
(625,318,l)
);
},
{
closed = 1;
nodes = (
(248,536,l),
(423,536,l),
(423,701,l),
(248,701,l)
);
},
{
closed = 1;
nodes = (
(248,93,l),
(423,93,l),
(423,258,l),
(248,258,l)
);
}
);
width = 670;
}
);
unicode = 247;
},
{
glyphname = equal;
lastChange = "2026-04-29 13:54:20 +0000";
layers = (
{
layerId = m01;
shapes = (
{
closed = 1;
nodes = (
(60,468,l),
(60,565,l),
(610,565,l),
(610,468,l)
);
},
{
closed = 1;
nodes = (
(60,228,l),
(60,325,l),
(610,325,l),
(610,228,l)
);
}
);
width = 670;
},
{
layerId = m002;
shapes = (
{
closed = 1;
nodes = (
(60,452,l),
(60,592,l),
(610,592,l),
(610,452,l)
);
},
{
closed = 1;
nodes = (
(60,192,l),
(60,332,l),
(610,332,l),
(610,192,l)
);
}
);
width = 670;
}
);
unicode = 61;
},
{
glyphname = greater;
lastChange = "2026-04-29 13:54:42 +0000";
layers = (
{
layerId = m01;
shapes = (
{
closed = 1;
nodes = (
(100,240,l),
(499,430,l),
(499,386,l),
(100,578,l),
(100,685,l),
(562,458,l),
(562,358,l),
(100,131,l)
);
}
);
width = 622;
},
{
layerId = m002;
shapes = (
{
closed = 1;
nodes = (
(100,289,l),
(403,414,l),
(403,403,l),
(100,529,l),
(100,685,l),
(562,478,l),
(562,338,l),
(100,131,l)
);
}
);
width = 622;
}
);
unicode = 62;
},
{
glyphname = asciitilde;
lastChange = "2026-04-29 13:55:01 +0000";
layers = (
{
layerId = m01;
shapes = (
{
closed = 1;
nodes = (
(532,351,o),
(453,319,o),
(398,319,cs),
(316,319,o),
(258,382,o),
(190,382,cs),
(132,382,o),
(77,360,o),
(28,317,c),
(28,420,l),
(63,455,o),
(134,482,o),
(190,482,cs),
(270,482,o),
(326,420,o),
(398,420,cs),
(454,420,o),
(511,444,o),
(556,485,c),
(556,383,l)
);
}
);
width = 600;
},
{
layerId = m002;
shapes = (
{
closed = 1;
nodes = (
(528,326,o),
(462,299,o),
(398,299,cs),
(316,299,o),
(258,362,o),
(190,362,cs),
(139,362,o),
(71,335,o),
(28,297,c),
(28,430,l),
(64,466,o),
(132,492,o),
(190,492,cs),
(270,492,o),
(326,430,o),
(398,430,cs),
(448,430,o),
(515,457,o),
(556,495,c),
(556,363,l)
);
}
);
width = 600;
}
);
unicode = 126;
},
{
glyphname = asciicircum;
lastChange = "2026-04-29 13:55:21 +0000";
layers = (
{
layerId = m01;
shapes = (
{
closed = 1;
nodes = (
(235,761,l),
(307,761,l),
(136,500,l),
(45,500,l),
(224,780,l),
(316,780,l),
(496,500,l),
(404,500,l)
);
}
);
width = 541;
},
{
layerId = m002;
shapes = (
{
closed = 1;
nodes = (
(243,700,l),
(298,700,l),
(183,480,l),
(45,480,l),
(204,780,l),
(336,780,l),
(496,480,l),
(357,480,l)
);
}
);
width = 541;
}
);
unicode = 94;
},
{
glyphname = percent;
lastChange = "2026-04-29 13:59:17 +0000";
layers = (
{
layerId = m01;
shapes = (
{
closed = 1;
nodes = (
(404,508,o),
(324,428,o),
(222,428,cs),
(120,428,o),
(40,508,o),
(40,610,cs),
(40,712,o),
(120,792,o),
(222,792,cs),
(324,792,o),
(404,712,o),
(404,610,cs)
);
},
{
closed = 1;
nodes = (
(325,668,o),
(280,713,o),
(222,713,cs),
(164,713,o),
(119,668,o),
(119,611,cs),
(119,553,o),
(164,507,o),
(222,507,cs),
(280,507,o),
(325,553,o),
(325,611,cs)
);
},
{
closed = 1;
nodes = (
(817,68,o),
(737,-12,o),
(635,-12,cs),
(533,-12,o),
(453,68,o),
(453,170,cs),
(453,272,o),
(533,352,o),
(635,352,cs),
(737,352,o),
(817,272,o),
(817,170,cs)
);
},
{
closed = 1;
nodes = (
(738,227,o),
(692,273,o),
(635,273,cs),
(578,273,o),
(532,227,o),
(532,171,cs),
(532,114,o),
(578,67,o),
(635,67,cs),
(692,67,o),
(738,114,o),
(738,171,cs)
);
},
{
closed = 1;
nodes = (
(73,0,l),
(177,0,l),
(787,780,l),
(683,780,l)
);
}
);
width = 857;
},
{
layerId = m002;
shapes = (
{
closed = 1;
nodes = (
(460,474,o),
(370,389,o),
(247,389,cs),
(124,389,o),
(35,474,o),
(35,590,cs),
(35,707,o),
(124,792,o),
(247,792,cs),
(370,792,o),
(460,707,o),
(460,590,cs)
);
},
{
closed = 1;
nodes = (
(320,639,o),
(289,674,o),
(247,674,cs),
(205,674,o),
(175,639,o),
(175,591,cs),
(175,542,o),
(205,507,o),
(247,507,cs),
(289,507,o),
(320,542,o),
(320,591,cs)
);
},
{
closed = 1;
nodes = (
(1013,74,o),
(923,-11,o),
(800,-11,cs),
(677,-11,o),
(588,74,o),
(588,190,cs),
(588,307,o),
(677,392,o),
(800,392,cs),
(923,392,o),
(1013,307,o),
(1013,190,cs)
);
},
{
closed = 1;
nodes = (
(873,239,o),
(842,274,o),
(800,274,cs),
(758,274,o),
(728,239,o),
(728,191,cs),
(728,142,o),
(758,107,o),
(800,107,cs),
(842,107,o),
(873,142,o),
(873,191,cs)
);
},
{
closed = 1;
nodes = (
(148,0,l),
(289,0,l),
(899,780,l),
(758,780,l)
);
}
);
width = 1048;
}
);
unicode = 37;
},
{
glyphname = grave;
lastChange = "2026-04-28 15:09:14 +0000";
layers = (
{
layerId = m01;
shapes = (
{
closed = 1;
nodes = (
(81,749,l),
(139,830,l),
(340,693,l),
(289,615,l)
);
}
);
width = 400;
},
{
layerId = m002;
shapes = (
{
closed = 1;
nodes = (
(81,749,l),
(139,830,l),
(340,693,l),
(289,615,l)
);
}
);
width = 400;
}
);
unicode = 96;
},
{
color = 7;
glyphname = btn_a;
lastChange = "2026-04-28 15:09:14 +0000";
layers = (
{
layerId = m01;
shapes = (
{
closed = 1;
nodes = (
(771,-100,o),
(980,109,o),
(980,380,cs),
(980,651,o),
(771,860,o),
(500,860,cs),
(229,860,o),
(20,651,o),
(20,380,cs),
(20,109,o),
(229,-100,o),
(500,-100,cs)
);
},
{
closed = 1;
nodes = (
(271,-25,o),
(95,151,o),
(95,380,cs),
(95,609,o),
(271,785,o),
(500,785,cs),
(729,785,o),
(905,609,o),
(905,380,cs),
(905,151,o),
(729,-25,o),
(500,-25,cs)
);
},
{
closed = 1;
nodes = (
(458,670,l),
(250,170,l),
(331,170,l),
(517,639,l),
(484,639,l),
(668,170,l),
(750,170,l),
(542,670,l)
);
},
{
closed = 1;
nodes = (
(341,280,l),
(652,280,l),
(652,344,l),
(341,344,l)
);
}
);
width = 1000;
},
{
layerId = m002;
shapes = (
{
closed = 1;
nodes = (
(771,-100,o),
(980,109,o),
(980,380,cs),
(980,651,o),
(771,860,o),
(500,860,cs),
(229,860,o),
(20,651,o),
(20,380,cs),
(20,109,o),
(229,-100,o),
(500,-100,cs)
);
},
{
closed = 1;
nodes = (
(271,-25,o),
(95,151,o),
(95,380,cs),
(95,609,o),
(271,785,o),
(500,785,cs),
(729,785,o),
(905,609,o),
(905,380,cs),
(905,151,o),
(729,-25,o),
(500,-25,cs)
);
},
{
closed = 1;
nodes = (
(458,670,l),
(250,170,l),
(331,170,l),
(517,639,l),
(484,639,l),
(668,170,l),
(750,170,l),
(542,670,l)
);
},
{
closed = 1;
nodes = (
(341,280,l),
(652,280,l),
(652,344,l),
(341,344,l)
);
}
);
width = 1000;
}
);
unicode = 57504;
},
{
color = 7;
glyphname = btn_b;
lastChange = "2026-04-28 15:09:14 +0000";
layers = (
{
layerId = m01;
shapes = (
{
closed = 1;
nodes = (
(771,-100,o),
(980,109,o),
(980,380,cs),
(980,651,o),
(771,860,o),
(500,860,cs),
(229,860,o),
(20,651,o),
(20,380,cs),
(20,109,o),
(229,-100,o),
(500,-100,cs)
);
},
{
closed = 1;
nodes = (
(271,-25,o),
(95,151,o),
(95,380,cs),
(95,609,o),
(271,785,o),
(500,785,cs),
(729,785,o),
(905,609,o),
(905,380,cs),
(905,151,o),
(729,-25,o),
(500,-25,cs)
);
},
{
closed = 1;
nodes = (
(399,140,l),
(399,640,l),
(325,640,l),
(325,140,l)
);
},
{
closed = 1;
nodes = (
(375,140,l),
(564,140,ls),
(660,140,o),
(726,199,o),
(726,284,cs),
(726,364,o),
(660,419,o),
(564,419,cs),
(371,419,l),
(371,367,l),
(564,367,ls),
(616,367,o),
(652,333,o),
(652,284,cs),
(652,237,o),
(616,205,o),
(564,205,cs),
(375,205,l)
);
},
{
closed = 1;
nodes = (
(365,387,l),
(554,387,ls),
(644,387,o),
(706,437,o),
(706,509,cs),
(706,587,o),
(644,640,o),
(554,640,cs),
(361,640,l),
(361,575,l),
(554,575,ls),
(600,575,o),
(632,545,o),
(632,501,cs),
(632,458,o),
(600,428,o),
(554,428,cs),
(365,428,l)
);
}
);
width = 1000;
},
{
layerId = m002;
shapes = (
{
closed = 1;
nodes = (
(771,-100,o),
(980,109,o),
(980,380,cs),
(980,651,o),
(771,860,o),
(500,860,cs),
(229,860,o),
(20,651,o),
(20,380,cs),
(20,109,o),
(229,-100,o),
(500,-100,cs)
);
},
{
closed = 1;
nodes = (
(271,-25,o),
(95,151,o),
(95,380,cs),
(95,609,o),
(271,785,o),
(500,785,cs),
(729,785,o),
(905,609,o),
(905,380,cs),
(905,151,o),
(729,-25,o),
(500,-25,cs)
);
},
{
closed = 1;
nodes = (
(399,140,l),
(399,640,l),
(325,640,l),
(325,140,l)
);
},
{
closed = 1;
nodes = (
(375,140,l),
(564,140,ls),
(660,140,o),
(726,199,o),
(726,284,cs),
(726,364,o),
(660,419,o),
(564,419,cs),
(371,419,l),
(371,367,l),
(564,367,ls),
(616,367,o),
(652,333,o),
(652,284,cs),
(652,237,o),
(616,205,o),
(564,205,cs),
(375,205,l)
);
},
{
closed = 1;
nodes = (
(365,387,l),
(554,387,ls),
(644,387,o),
(706,437,o),
(706,509,cs),
(706,587,o),
(644,640,o),
(554,640,cs),
(361,640,l),
(361,575,l),
(554,575,ls),
(600,575,o),
(632,545,o),
(632,501,cs),
(632,458,o),
(600,428,o),
(554,428,cs),
(365,428,l)
);
}
);
width = 1000;
}
);
unicode = 57505;
},
{
color = 7;
glyphname = btn_x;
lastChange = "2026-04-28 15:09:14 +0000";
layers = (
{
layerId = m01;
shapes = (
{
closed = 1;
nodes = (
(771,-100,o),
(980,109,o),
(980,380,cs),
(980,651,o),
(771,860,o),
(500,860,cs),
(229,860,o),
(20,651,o),
(20,380,cs),
(20,109,o),
(229,-100,o),
(500,-100,cs)
);
},
{
closed = 1;
nodes = (
(271,-25,o),
(95,151,o),
(95,380,cs),
(95,609,o),
(271,785,o),
(500,785,cs),
(729,785,o),
(905,609,o),
(905,380,cs),
(905,151,o),
(729,-25,o),
(500,-25,cs)
);
},
{
closed = 1;
nodes = (
(620,640,l),
(272,140,l),
(360,140,l),
(708,640,l)
);
},
{
closed = 1;
nodes = (
(640,140,l),
(728,140,l),
(380,640,l),
(292,640,l)
);
}
);
width = 1000;
},
{
layerId = m002;
shapes = (
{
closed = 1;
nodes = (
(771,-100,o),
(980,109,o),
(980,380,cs),
(980,651,o),
(771,860,o),
(500,860,cs),
(229,860,o),
(20,651,o),
(20,380,cs),
(20,109,o),
(229,-100,o),
(500,-100,cs)
);
},
{
closed = 1;
nodes = (
(271,-25,o),
(95,151,o),
(95,380,cs),
(95,609,o),
(271,785,o),
(500,785,cs),
(729,785,o),
(905,609,o),
(905,380,cs),
(905,151,o),
(729,-25,o),
(500,-25,cs)
);
},
{
closed = 1;
nodes = (
(620,640,l),
(272,140,l),
(360,140,l),
(708,640,l)
);
},
{
closed = 1;
nodes = (
(640,140,l),
(728,140,l),
(380,640,l),
(292,640,l)
);
}
);
width = 1000;
}
);
unicode = 57506;
},
{
color = 7;
glyphname = btn_y;
lastChange = "2026-04-28 15:09:14 +0000";
layers = (
{
layerId = m01;
shapes = (
{
closed = 1;
nodes = (
(771,-100,o),
(980,109,o),
(980,380,cs),
(980,651,o),
(771,860,o),
(500,860,cs),
(229,860,o),
(20,651,o),
(20,380,cs),
(20,109,o),
(229,-100,o),
(500,-100,cs)
);
},
{
closed = 1;
nodes = (
(271,-25,o),
(95,151,o),
(95,380,cs),
(95,609,o),
(271,785,o),
(500,785,cs),
(729,785,o),
(905,609,o),
(905,380,cs),
(905,151,o),
(729,-25,o),
(500,-25,cs)
);
},
{
closed = 1;
nodes = (
(632,610,l),
(472,344,l),
(511,277,l),
(722,610,l)
);
},
{
closed = 1;
nodes = (
(488,277,l),
(528,344,l),
(368,610,l),
(277,610,l)
);
},
{
closed = 1;
nodes = (
(538,110,l),
(538,368,l),
(463,368,l),
(463,110,l)
);
}
);
width = 1000;
},
{
layerId = m002;
shapes = (
{
closed = 1;
nodes = (
(771,-100,o),
(980,109,o),
(980,380,cs),
(980,651,o),
(771,860,o),
(500,860,cs),
(229,860,o),
(20,651,o),
(20,380,cs),
(20,109,o),
(229,-100,o),
(500,-100,cs)
);
},
{
closed = 1;
nodes = (
(271,-25,o),
(95,151,o),
(95,380,cs),
(95,609,o),
(271,785,o),
(500,785,cs),
(729,785,o),
(905,609,o),
(905,380,cs),
(905,151,o),
(729,-25,o),
(500,-25,cs)
);
},
{
closed = 1;
nodes = (
(632,610,l),
(472,344,l),
(511,277,l),
(722,610,l)
);
},
{
closed = 1;
nodes = (
(488,277,l),
(528,344,l),
(368,610,l),
(277,610,l)
);
},
{
closed = 1;
nodes = (
(538,110,l),
(538,368,l),
(463,368,l),
(463,110,l)
);
}
);
width = 1000;
}
);
unicode = 57507;
},
{
color = 7;
glyphname = btn_circle;
lastChange = "2026-04-28 15:09:14 +0000";
layers = (
{
layerId = m01;
shapes = (
{
closed = 1;
nodes = (
(771,-100,o),
(980,109,o),
(980,380,cs),
(980,651,o),
(771,860,o),
(500,860,cs),
(229,860,o),
(20,651,o),
(20,380,cs),
(20,109,o),
(229,-100,o),
(500,-100,cs)
);
},
{
closed = 1;
nodes = (
(271,-25,o),
(95,151,o),
(95,380,cs),
(95,609,o),
(271,785,o),
(500,785,cs),
(729,785,o),
(905,609,o),
(905,380,cs),
(905,151,o),
(729,-25,o),
(500,-25,cs)
);
},
{
closed = 1;
nodes = (
(651,113,o),
(767,229,o),
(767,380,cs),
(767,531,o),
(651,647,o),
(500,647,cs),
(349,647,o),
(233,531,o),
(233,380,cs),
(233,229,o),
(349,113,o),
(500,113,cs)
);
},
{
closed = 1;
nodes = (
(391,187,o),
(307,271,o),
(307,380,cs),
(307,489,o),
(391,573,o),
(500,573,cs),
(609,573,o),
(693,489,o),
(693,380,cs),
(693,271,o),
(609,187,o),
(500,187,cs)
);
}
);
width = 1000;
},
{
layerId = m002;
shapes = (
{
closed = 1;
nodes = (
(771,-100,o),
(980,109,o),
(980,380,cs),
(980,651,o),
(771,860,o),
(500,860,cs),
(229,860,o),
(20,651,o),
(20,380,cs),
(20,109,o),
(229,-100,o),
(500,-100,cs)
);
},
{
closed = 1;
nodes = (
(271,-25,o),
(95,151,o),
(95,380,cs),
(95,609,o),
(271,785,o),
(500,785,cs),
(729,785,o),
(905,609,o),
(905,380,cs),
(905,151,o),
(729,-25,o),
(500,-25,cs)
);
},
{
closed = 1;
nodes = (
(651,113,o),
(767,229,o),
(767,380,cs),
(767,531,o),
(651,647,o),
(500,647,cs),
(349,647,o),
(233,531,o),
(233,380,cs),
(233,229,o),
(349,113,o),
(500,113,cs)
);
},
{
closed = 1;
nodes = (
(391,187,o),
(307,271,o),
(307,380,cs),
(307,489,o),
(391,573,o),
(500,573,cs),
(609,573,o),
(693,489,o),
(693,380,cs),
(693,271,o),
(609,187,o),
(500,187,cs)
);
}
);
width = 1000;
}
);
unicode = 57508;
},
{
color = 7;
glyphname = btn_cross;
lastChange = "2026-04-28 15:09:14 +0000";
layers = (
{
layerId = m01;
shapes = (
{
closed = 1;
nodes = (
(771,-100,o),
(980,109,o),
(980,380,cs),
(980,651,o),
(771,860,o),
(500,860,cs),
(229,860,o),
(20,651,o),
(20,380,cs),
(20,109,o),
(229,-100,o),
(500,-100,cs)
);
},
{
closed = 1;
nodes = (
(271,-25,o),
(95,151,o),
(95,380,cs),
(95,609,o),
(271,785,o),
(500,785,cs),
(729,785,o),
(905,609,o),
(905,380,cs),
(905,151,o),
(729,-25,o),
(500,-25,cs)
);
},
{
closed = 1;
nodes = (
(270,213,l),
(324,159,l),
(730,567,l),
(676,621,l)
);
},
{
closed = 1;
nodes = (
(270,567,l),
(676,159,l),
(730,213,l),
(324,621,l)
);
}
);
width = 1000;
},
{
layerId = m002;
shapes = (
{
closed = 1;
nodes = (
(771,-100,o),
(980,109,o),
(980,380,cs),
(980,651,o),
(771,860,o),
(500,860,cs),
(229,860,o),
(20,651,o),
(20,380,cs),
(20,109,o),
(229,-100,o),
(500,-100,cs)
);
},
{
closed = 1;
nodes = (
(271,-25,o),
(95,151,o),
(95,380,cs),
(95,609,o),
(271,785,o),
(500,785,cs),
(729,785,o),
(905,609,o),
(905,380,cs),
(905,151,o),
(729,-25,o),
(500,-25,cs)
);
},
{
closed = 1;
nodes = (
(270,213,l),
(324,159,l),
(730,567,l),
(676,621,l)
);
},
{
closed = 1;
nodes = (
(270,567,l),
(676,159,l),
(730,213,l),
(324,621,l)
);
}
);
width = 1000;
}
);
unicode = 57509;
},
{
color = 7;
glyphname = btn_triangle;
lastChange = "2026-04-28 15:09:14 +0000";
layers = (
{
layerId = m01;
shapes = (
{
closed = 1;
nodes = (
(771,-100,o),
(980,109,o),
(980,380,cs),
(980,651,o),
(771,860,o),
(500,860,cs),
(229,860,o),
(20,651,o),
(20,380,cs),
(20,109,o),
(229,-100,o),
(500,-100,cs)
);
},
{
closed = 1;
nodes = (
(271,-25,o),
(95,151,o),
(95,380,cs),
(95,609,o),
(271,785,o),
(500,785,cs),
(729,785,o),
(905,609,o),
(905,380,cs),
(905,151,o),
(729,-25,o),
(500,-25,cs)
);
},
{
closed = 1;
nodes = (
(219,190,l),
(781,190,l),
(500,673,l)
);
},
{
closed = 1;
nodes = (
(652,265,l),
(348,265,l),
(500,525,l)
);
}
);
width = 1000;
},
{
layerId = m002;
shapes = (
{
closed = 1;
nodes = (
(771,-100,o),
(980,109,o),
(980,380,cs),
(980,651,o),
(771,860,o),
(500,860,cs),
(229,860,o),
(20,651,o),
(20,380,cs),
(20,109,o),
(229,-100,o),
(500,-100,cs)
);
},
{
closed = 1;
nodes = (
(271,-25,o),
(95,151,o),
(95,380,cs),
(95,609,o),
(271,785,o),
(500,785,cs),
(729,785,o),
(905,609,o),
(905,380,cs),
(905,151,o),
(729,-25,o),
(500,-25,cs)
);
},
{
closed = 1;
nodes = (
(219,190,l),
(781,190,l),
(500,673,l)
);
},
{
closed = 1;
nodes = (
(652,265,l),
(348,265,l),
(500,525,l)
);
}
);
width = 1000;
}
);
unicode = 57510;
},
{
color = 7;
glyphname = btn_square;
lastChange = "2026-04-28 15:09:14 +0000";
layers = (
{
layerId = m01;
shapes = (
{
closed = 1;
nodes = (
(771,-100,o),
(980,109,o),
(980,380,cs),
(980,651,o),
(771,860,o),
(500,860,cs),
(229,860,o),
(20,651,o),
(20,380,cs),
(20,109,o),
(229,-100,o),
(500,-100,cs)
);
},
{
closed = 1;
nodes = (
(271,-25,o),
(95,151,o),
(95,380,cs),
(95,609,o),
(271,785,o),
(500,785,cs),
(729,785,o),
(905,609,o),
(905,380,cs),
(905,151,o),
(729,-25,o),
(500,-25,cs)
);
},
{
closed = 1;
nodes = (
(260,150,l),
(740,150,l),
(740,630,l),
(260,630,l)
);
},
{
closed = 1;
nodes = (
(665,555,l),
(665,225,l),
(335,225,l),
(335,555,l)
);
}
);
width = 1000;
},
{
layerId = m002;
shapes = (
{
closed = 1;
nodes = (
(771,-100,o),
(980,109,o),
(980,380,cs),
(980,651,o),
(771,860,o),
(500,860,cs),
(229,860,o),
(20,651,o),
(20,380,cs),
(20,109,o),
(229,-100,o),
(500,-100,cs)
);
},
{
closed = 1;
nodes = (
(271,-25,o),
(95,151,o),
(95,380,cs),
(95,609,o),
(271,785,o),
(500,785,cs),
(729,785,o),
(905,609,o),
(905,380,cs),
(905,151,o),
(729,-25,o),
(500,-25,cs)
);
},
{
closed = 1;
nodes = (
(260,150,l),
(740,150,l),
(740,630,l),
(260,630,l)
);
},
{
closed = 1;
nodes = (
(665,555,l),
(665,225,l),
(335,225,l),
(335,555,l)
);
}
);
width = 1000;
}
);
unicode = 57511;
},
{
color = 7;
glyphname = btn_start;
lastChange = "2026-04-28 15:09:14 +0000";
layers = (
{
layerId = m01;
shapes = (
{
closed = 1;
nodes = (
(985,467,o),
(935,515,o),
(865,515,cs),
(645,515,ls),
(575,515,o),
(525,467,o),
(525,400,cs),
(525,333,o),
(575,285,o),
(645,285,cs),
(865,285,ls),
(935,285,o),
(985,333,o),
(985,400,cs)
);
},
{
closed = 1;
nodes = (
(475,458,o),
(433,500,o),
(375,500,cs),
(115,500,ls),
(57,500,o),
(15,458,o),
(15,400,cs),
(15,342,o),
(57,300,o),
(115,300,cs),
(375,300,ls),
(433,300,o),
(475,342,o),
(475,400,cs)
);
},
{
closed = 1;
nodes = (
(398,440,o),
(415,423,o),
(415,400,cs),
(415,377,o),
(398,360,o),
(374,360,cs),
(116,360,ls),
(92,360,o),
(75,377,o),
(75,400,cs),
(75,423,o),
(92,440,o),
(116,440,cs),
(374,440,ls)
);
}
);
width = 1000;
},
{
layerId = m002;
shapes = (
{
closed = 1;
nodes = (
(985,467,o),
(935,515,o),
(865,515,cs),
(645,515,ls),
(575,515,o),
(525,467,o),
(525,400,cs),
(525,333,o),
(575,285,o),
(645,285,cs),
(865,285,ls),
(935,285,o),
(985,333,o),
(985,400,cs)
);
},
{
closed = 1;
nodes = (
(475,458,o),
(433,500,o),
(375,500,cs),
(115,500,ls),
(57,500,o),
(15,458,o),
(15,400,cs),
(15,342,o),
(57,300,o),
(115,300,cs),
(375,300,ls),
(433,300,o),
(475,342,o),
(475,400,cs)
);
},
{
closed = 1;
nodes = (
(398,440,o),
(415,423,o),
(415,400,cs),
(415,377,o),
(398,360,o),
(374,360,cs),
(116,360,ls),
(92,360,o),
(75,377,o),
(75,400,cs),
(75,423,o),
(92,440,o),
(116,440,cs),
(374,440,ls)
);
}
);
width = 1000;
}
);
unicode = 57512;
},
{
color = 7;
glyphname = btn_select;
lastChange = "2026-04-28 15:09:14 +0000";
layers = (
{
layerId = m01;
shapes = (
{
closed = 1;
nodes = (
(15,333,o),
(65,285,o),
(135,285,cs),
(355,285,ls),
(425,285,o),
(475,333,o),
(475,400,cs),
(475,467,o),
(425,515,o),
(355,515,cs),
(135,515,ls),
(65,515,o),
(15,467,o),
(15,400,cs)
);
},
{
closed = 1;
nodes = (
(525,342,o),
(567,300,o),
(625,300,cs),
(885,300,ls),
(943,300,o),
(985,342,o),
(985,400,cs),
(985,458,o),
(943,500,o),
(885,500,cs),
(625,500,ls),
(567,500,o),
(525,458,o),
(525,400,cs)
);
},
{
closed = 1;
nodes = (
(884,440,ls),
(908,440,o),
(925,423,o),
(925,400,cs),
(925,377,o),
(908,360,o),
(884,360,cs),
(626,360,ls),
(602,360,o),
(585,377,o),
(585,400,cs),
(585,423,o),
(602,440,o),
(626,440,cs)
);
}
);
width = 1000;
},
{
layerId = m002;
shapes = (
{
closed = 1;
nodes = (
(15,333,o),
(65,285,o),
(135,285,cs),
(355,285,ls),
(425,285,o),
(475,333,o),
(475,400,cs),
(475,467,o),
(425,515,o),
(355,515,cs),
(135,515,ls),
(65,515,o),
(15,467,o),
(15,400,cs)
);
},
{
closed = 1;
nodes = (
(525,342,o),
(567,300,o),
(625,300,cs),
(885,300,ls),
(943,300,o),
(985,342,o),
(985,400,cs),
(985,458,o),
(943,500,o),
(885,500,cs),
(625,500,ls),
(567,500,o),
(525,458,o),
(525,400,cs)
);
},
{
closed = 1;
nodes = (
(884,440,ls),
(908,440,o),
(925,423,o),
(925,400,cs),
(925,377,o),
(908,360,o),
(884,360,cs),
(626,360,ls),
(602,360,o),
(585,377,o),
(585,400,cs),
(585,423,o),
(602,440,o),
(626,440,cs)
);
}
);
width = 1000;
}
);
unicode = 57513;
},
{
color = 7;
glyphname = btn_plus;
lastChange = "2026-04-28 15:09:14 +0000";
layers = (
{
layerId = m01;
shapes = (
{
closed = 1;
nodes = (
(771,-100,o),
(980,109,o),
(980,380,cs),
(980,651,o),
(771,860,o),
(500,860,cs),
(229,860,o),
(20,651,o),
(20,380,cs),
(20,109,o),
(229,-100,o),
(500,-100,cs)
);
},
{
closed = 1;
nodes = (
(271,-25,o),
(95,151,o),
(95,380,cs),
(95,609,o),
(271,785,o),
(500,785,cs),
(729,785,o),
(905,609,o),
(905,380,cs),
(905,151,o),
(729,-25,o),
(500,-25,cs)
);
},
{
closed = 1;
nodes = (
(239,353,l),
(759,353,l),
(759,427,l),
(239,427,l)
);
},
{
closed = 1;
nodes = (
(463,650,l),
(463,130,l),
(537,130,l),
(537,650,l)
);
}
);
width = 1000;
},
{
layerId = m002;
shapes = (
{
closed = 1;
nodes = (
(771,-100,o),
(980,109,o),
(980,380,cs),
(980,651,o),
(771,860,o),
(500,860,cs),
(229,860,o),
(20,651,o),
(20,380,cs),
(20,109,o),
(229,-100,o),
(500,-100,cs)
);
},
{
closed = 1;
nodes = (
(271,-25,o),
(95,151,o),
(95,380,cs),
(95,609,o),
(271,785,o),
(500,785,cs),
(729,785,o),
(905,609,o),
(905,380,cs),
(905,151,o),
(729,-25,o),
(500,-25,cs)
);
},
{
closed = 1;
nodes = (
(239,353,l),
(759,353,l),
(759,427,l),
(239,427,l)
);
},
{
closed = 1;
nodes = (
(463,650,l),
(463,130,l),
(537,130,l),
(537,650,l)
);
}
);
width = 1000;
}
);
unicode = 57514;
},
{
color = 7;
glyphname = btn_minus;
lastChange = "2026-04-28 15:09:14 +0000";
layers = (
{
layerId = m01;
shapes = (
{
closed = 1;
nodes = (
(771,-100,o),
(980,109,o),
(980,380,cs),
(980,651,o),
(771,860,o),
(500,860,cs),
(229,860,o),
(20,651,o),
(20,380,cs),
(20,109,o),
(229,-100,o),
(500,-100,cs)
);
},
{
closed = 1;
nodes = (
(271,-25,o),
(95,151,o),
(95,380,cs),
(95,609,o),
(271,785,o),
(500,785,cs),
(729,785,o),
(905,609,o),
(905,380,cs),
(905,151,o),
(729,-25,o),
(500,-25,cs)
);
},
{
closed = 1;
nodes = (
(239,353,l),
(759,353,l),
(759,427,l),
(239,427,l)
);
}
);
width = 1000;
},
{
layerId = m002;
shapes = (
{
closed = 1;
nodes = (
(771,-100,o),
(980,109,o),
(980,380,cs),
(980,651,o),
(771,860,o),
(500,860,cs),
(229,860,o),
(20,651,o),
(20,380,cs),
(20,109,o),
(229,-100,o),
(500,-100,cs)
);
},
{
closed = 1;
nodes = (
(271,-25,o),
(95,151,o),
(95,380,cs),
(95,609,o),
(271,785,o),
(500,785,cs),
(729,785,o),
(905,609,o),
(905,380,cs),
(905,151,o),
(729,-25,o),
(500,-25,cs)
);
},
{
closed = 1;
nodes = (
(239,353,l),
(759,353,l),
(759,427,l),
(239,427,l)
);
}
);
width = 1000;
}
);
unicode = 57515;
},
{
color = 7;
glyphname = btn_plus1;
lastChange = "2026-04-28 15:09:14 +0000";
layers = (
{
layerId = m01;
shapes = (
{
closed = 1;
nodes = (
(60,230,l),
(340,230,l),
(340,-50,l),
(650,-50,l),
(650,230,l),
(940,230,l),
(940,550,l),
(650,550,l),
(650,830,l),
(340,830,l),
(340,550,l),
(60,550,l)
);
},
{
closed = 1;
nodes = (
(405,485,l),
(405,765,l),
(585,765,l),
(585,485,l),
(875,485,l),
(875,295,l),
(585,295,l),
(585,15,l),
(405,15,l),
(405,295,l),
(125,295,l),
(125,485,l)
);
}
);
width = 1000;
},
{
layerId = m002;
shapes = (
{
closed = 1;
nodes = (
(60,230,l),
(340,230,l),
(340,-50,l),
(650,-50,l),
(650,230,l),
(940,230,l),
(940,550,l),
(650,550,l),
(650,830,l),
(340,830,l),
(340,550,l),
(60,550,l)
);
},
{
closed = 1;
nodes = (
(405,485,l),
(405,765,l),
(585,765,l),
(585,485,l),
(875,485,l),
(875,295,l),
(585,295,l),
(585,15,l),
(405,15,l),
(405,295,l),
(125,295,l),
(125,485,l)
);
}
);
width = 1000;
}
);
unicode = 57516;
},
{
color = 7;
glyphname = btn_minus1;
lastChange = "2026-04-28 15:09:14 +0000";
layers = (
{
layerId = m01;
shapes = (
{
closed = 1;
nodes = (
(60,230,l),
(940,230,l),
(940,550,l),
(60,550,l)
);
},
{
closed = 1;
nodes = (
(875,485,l),
(875,295,l),
(125,295,l),
(125,485,l)
);
}
);
width = 1000;
},
{
layerId = m002;
shapes = (
{
closed = 1;
nodes = (
(60,230,l),
(940,230,l),
(940,550,l),
(60,550,l)
);
},
{
closed = 1;
nodes = (
(875,485,l),
(875,295,l),
(125,295,l),
(125,485,l)
);
}
);
width = 1000;
}
);
unicode = 57517;
},
{
color = 7;
glyphname = btn_arrow_up;
lastChange = "2026-04-28 15:09:14 +0000";
layers = (
{
layerId = m01;
shapes = (
{
closed = 1;
nodes = (
(771,-100,o),
(980,109,o),
(980,380,cs),
(980,651,o),
(771,860,o),
(500,860,cs),
(229,860,o),
(20,651,o),
(20,380,cs),
(20,109,o),
(229,-100,o),
(500,-100,cs)
);
},
{
closed = 1;
nodes = (
(271,-25,o),
(95,151,o),
(95,380,cs),
(95,609,o),
(271,785,o),
(500,785,cs),
(716,785,o),
(905,609,o),
(905,380,cs),
(905,151,o),
(729,-25,o),
(500,-25,cs)
);
},
{
closed = 1;
nodes = (
(500,625,l),
(271,221,l),
(729,221,l)
);
}
);
width = 1000;
},
{
layerId = m002;
shapes = (
{
closed = 1;
nodes = (
(771,-100,o),
(980,109,o),
(980,380,cs),
(980,651,o),
(771,860,o),
(500,860,cs),
(229,860,o),
(20,651,o),
(20,380,cs),
(20,109,o),
(229,-100,o),
(500,-100,cs)
);
},
{
closed = 1;
nodes = (
(271,-25,o),
(95,151,o),
(95,380,cs),
(95,609,o),
(271,785,o),
(500,785,cs),
(716,785,o),
(905,609,o),
(905,380,cs),
(905,151,o),
(729,-25,o),
(500,-25,cs)
);
},
{
closed = 1;
nodes = (
(500,625,l),
(271,221,l),
(729,221,l)
);
}
);
width = 1000;
}
);
unicode = 57518;
},
{
color = 7;
glyphname = btn_arrow_down;
lastChange = "2026-04-28 15:09:14 +0000";
layers = (
{
layerId = m01;
shapes = (
{
closed = 1;
nodes = (
(771,-100,o),
(980,109,o),
(980,380,cs),
(980,651,o),
(771,860,o),
(500,860,cs),
(229,860,o),
(20,651,o),
(20,380,cs),
(20,109,o),
(229,-100,o),
(500,-100,cs)
);
},
{
closed = 1;
nodes = (
(271,-25,o),
(95,151,o),
(95,380,cs),
(95,609,o),
(271,785,o),
(500,785,cs),
(729,785,o),
(905,609,o),
(905,380,cs),
(905,151,o),
(729,-25,o),
(500,-25,cs)
);
},
{
closed = 1;
nodes = (
(271,539,l),
(500,135,l),
(729,539,l)
);
}
);
width = 1000;
},
{
layerId = m002;
shapes = (
{
closed = 1;
nodes = (
(771,-100,o),
(980,109,o),
(980,380,cs),
(980,651,o),
(771,860,o),
(500,860,cs),
(229,860,o),
(20,651,o),
(20,380,cs),
(20,109,o),
(229,-100,o),
(500,-100,cs)
);
},
{
closed = 1;
nodes = (
(271,-25,o),
(95,151,o),
(95,380,cs),
(95,609,o),
(271,785,o),
(500,785,cs),
(729,785,o),
(905,609,o),
(905,380,cs),
(905,151,o),
(729,-25,o),
(500,-25,cs)
);
},
{
closed = 1;
nodes = (
(271,539,l),
(500,135,l),
(729,539,l)
);
}
);
width = 1000;
}
);
unicode = 57519;
},
{
color = 7;
glyphname = btn_arrow_left;
lastChange = "2026-04-28 15:09:14 +0000";
layers = (
{
layerId = m01;
shapes = (
{
closed = 1;
nodes = (
(771,-100,o),
(980,109,o),
(980,380,cs),
(980,651,o),
(771,860,o),
(500,860,cs),
(229,860,o),
(20,651,o),
(20,380,cs),
(20,109,o),
(229,-100,o),
(500,-100,cs)
);
},
{
closed = 1;
nodes = (
(271,-25,o),
(95,151,o),
(95,380,cs),
(95,609,o),
(271,785,o),
(500,785,cs),
(729,785,o),
(905,609,o),
(905,380,cs),
(905,151,o),
(729,-25,o),
(500,-25,cs)
);
},
{
closed = 1;
nodes = (
(245,380,l),
(649,151,l),
(649,609,l)
);
}
);
width = 1000;
},
{
layerId = m002;
shapes = (
{
closed = 1;
nodes = (
(771,-100,o),
(980,109,o),
(980,380,cs),
(980,651,o),
(771,860,o),
(500,860,cs),
(229,860,o),
(20,651,o),
(20,380,cs),
(20,109,o),
(229,-100,o),
(500,-100,cs)
);
},
{
closed = 1;
nodes = (
(271,-25,o),
(95,151,o),
(95,380,cs),
(95,609,o),
(271,785,o),
(500,785,cs),
(729,785,o),
(905,609,o),
(905,380,cs),
(905,151,o),
(729,-25,o),
(500,-25,cs)
);
},
{
closed = 1;
nodes = (
(245,380,l),
(649,151,l),
(649,609,l)
);
}
);
width = 1000;
}
);
unicode = 57520;
},
{
color = 7;
glyphname = btn_arrow_right;
lastChange = "2026-04-28 15:09:14 +0000";
layers = (
{
layerId = m01;
shapes = (
{
closed = 1;
nodes = (
(771,-100,o),
(980,109,o),
(980,380,cs),
(980,651,o),
(771,860,o),
(500,860,cs),
(229,860,o),
(20,651,o),
(20,380,cs),
(20,109,o),
(229,-100,o),
(500,-100,cs)
);
},
{
closed = 1;
nodes = (
(271,-25,o),
(95,151,o),
(95,380,cs),
(95,609,o),
(271,785,o),
(500,785,cs),
(729,785,o),
(905,609,o),
(905,380,cs),
(905,151,o),
(729,-25,o),
(500,-25,cs)
);
},
{
closed = 1;
nodes = (
(351,151,l),
(755,380,l),
(351,609,l)
);
}
);
width = 1000;
},
{
layerId = m002;
shapes = (
{
closed = 1;
nodes = (
(771,-100,o),
(980,109,o),
(980,380,cs),
(980,651,o),
(771,860,o),
(500,860,cs),
(229,860,o),
(20,651,o),
(20,380,cs),
(20,109,o),
(229,-100,o),
(500,-100,cs)
);
},
{
closed = 1;
nodes = (
(271,-25,o),
(95,151,o),
(95,380,cs),
(95,609,o),
(271,785,o),
(500,785,cs),
(729,785,o),
(905,609,o),
(905,380,cs),
(905,151,o),
(729,-25,o),
(500,-25,cs)
);
},
{
closed = 1;
nodes = (
(351,151,l),
(755,380,l),
(351,609,l)
);
}
);
width = 1000;
}
);
unicode = 57521;
},
{
color = 7;
glyphname = btn_blank;
lastChange = "2026-04-28 15:09:14 +0000";
layers = (
{
layerId = m01;
shapes = (
{
closed = 1;
nodes = (
(771,-100,o),
(980,109,o),
(980,380,cs),
(980,651,o),
(771,860,o),
(500,860,cs),
(229,860,o),
(20,651,o),
(20,380,cs),
(20,109,o),
(229,-100,o),
(500,-100,cs)
);
},
{
closed = 1;
nodes = (
(271,-25,o),
(95,151,o),
(95,380,cs),
(95,609,o),
(271,785,o),
(500,785,cs),
(729,785,o),
(905,609,o),
(905,380,cs),
(905,151,o),
(729,-25,o),
(500,-25,cs)
);
}
);
width = 1000;
},
{
layerId = m002;
shapes = (
{
closed = 1;
nodes = (
(771,-100,o),
(980,109,o),
(980,380,cs),
(980,651,o),
(771,860,o),
(500,860,cs),
(229,860,o),
(20,651,o),
(20,380,cs),
(20,109,o),
(229,-100,o),
(500,-100,cs)
);
},
{
closed = 1;
nodes = (
(271,-25,o),
(95,151,o),
(95,380,cs),
(95,609,o),
(271,785,o),
(500,785,cs),
(729,785,o),
(905,609,o),
(905,380,cs),
(905,151,o),
(729,-25,o),
(500,-25,cs)
);
}
);
width = 1000;
}
);
unicode = 57522;
},
{
color = 7;
glyphname = btn;
lastChange = "2026-04-28 15:09:14 +0000";
layers = (
{
layerId = m01;
shapes = (
{
closed = 1;
nodes = (
(599,510,o),
(675,586,o),
(675,685,cs),
(675,784,o),
(599,860,o),
(500,860,cs),
(401,860,o),
(325,784,o),
(325,685,cs),
(325,586,o),
(401,510,o),
(500,510,cs)
);
},
{
closed = 1;
nodes = (
(599,-100,o),
(675,-24,o),
(675,75,cs),
(675,174,o),
(599,250,o),
(500,250,cs),
(401,250,o),
(325,174,o),
(325,75,cs),
(325,-24,o),
(401,-100,o),
(500,-100,cs)
);
},
{
closed = 1;
nodes = (
(441,580,o),
(395,626,o),
(395,685,cs),
(395,744,o),
(441,790,o),
(500,790,cs),
(559,790,o),
(605,744,o),
(605,685,cs),
(605,626,o),
(559,580,o),
(500,580,cs)
);
},
{
closed = 1;
nodes = (
(441,-30,o),
(395,16,o),
(395,75,cs),
(395,134,o),
(441,180,o),
(500,180,cs),
(559,180,o),
(605,134,o),
(605,75,cs),
(605,16,o),
(559,-30,o),
(500,-30,cs)
);
},
{
closed = 1;
nodes = (
(294,215,o),
(370,291,o),
(370,390,cs),
(370,489,o),
(294,565,o),
(195,565,cs),
(96,565,o),
(20,489,o),
(20,390,cs),
(20,291,o),
(96,215,o),
(195,215,cs)
);
},
{
closed = 1;
nodes = (
(136,285,o),
(90,331,o),
(90,390,cs),
(90,449,o),
(136,495,o),
(195,495,cs),
(254,495,o),
(300,449,o),
(300,390,cs),
(300,331,o),
(254,285,o),
(195,285,cs)
);
},
{
closed = 1;
nodes = (
(904,215,o),
(980,291,o),
(980,390,cs),
(980,489,o),
(904,565,o),
(805,565,cs),
(706,565,o),
(630,489,o),
(630,390,cs),
(630,291,o),
(706,215,o),
(805,215,cs)
);
},
{
closed = 1;
nodes = (
(746,285,o),
(700,331,o),
(700,390,cs),
(700,449,o),
(746,495,o),
(805,495,cs),
(864,495,o),
(910,449,o),
(910,390,cs),
(910,331,o),
(864,285,o),
(805,285,cs)
);
}
);
width = 1000;
},
{
layerId = m002;
shapes = (
{
closed = 1;
nodes = (
(599,510,o),
(675,586,o),
(675,685,cs),
(675,784,o),
(599,860,o),
(500,860,cs),
(401,860,o),
(325,784,o),
(325,685,cs),
(325,586,o),
(401,510,o),
(500,510,cs)
);
},
{
closed = 1;
nodes = (
(599,-100,o),
(675,-24,o),
(675,75,cs),
(675,174,o),
(599,250,o),
(500,250,cs),
(401,250,o),
(325,174,o),
(325,75,cs),
(325,-24,o),
(401,-100,o),
(500,-100,cs)
);
},
{
closed = 1;
nodes = (
(441,580,o),
(395,626,o),
(395,685,cs),
(395,744,o),
(441,790,o),
(500,790,cs),
(559,790,o),
(605,744,o),
(605,685,cs),
(605,626,o),
(559,580,o),
(500,580,cs)
);
},
{
closed = 1;
nodes = (
(441,-30,o),
(395,16,o),
(395,75,cs),
(395,134,o),
(441,180,o),
(500,180,cs),
(559,180,o),
(605,134,o),
(605,75,cs),
(605,16,o),
(559,-30,o),
(500,-30,cs)
);
},
{
closed = 1;
nodes = (
(294,215,o),
(370,291,o),
(370,390,cs),
(370,489,o),
(294,565,o),
(195,565,cs),
(96,565,o),
(20,489,o),
(20,390,cs),
(20,291,o),
(96,215,o),
(195,215,cs)
);
},
{
closed = 1;
nodes = (
(136,285,o),
(90,331,o),
(90,390,cs),
(90,449,o),
(136,495,o),
(195,495,cs),
(254,495,o),
(300,449,o),
(300,390,cs),
(300,331,o),
(254,285,o),
(195,285,cs)
);
},
{
closed = 1;
nodes = (
(904,215,o),
(980,291,o),
(980,390,cs),
(980,489,o),
(904,565,o),
(805,565,cs),
(706,565,o),
(630,489,o),
(630,390,cs),
(630,291,o),
(706,215,o),
(805,215,cs)
);
},
{
closed = 1;
nodes = (
(746,285,o),
(700,331,o),
(700,390,cs),
(700,449,o),
(746,495,o),
(805,495,cs),
(864,495,o),
(910,449,o),
(910,390,cs),
(910,331,o),
(864,285,o),
(805,285,cs)
);
}
);
width = 1000;
}
);
unicode = 57523;
},
{
color = 7;
glyphname = btn_up;
lastChange = "2026-04-28 15:09:14 +0000";
layers = (
{
layerId = m01;
shapes = (
{
closed = 1;
nodes = (
(607,480,o),
(690,563,o),
(690,670,cs),
(690,777,o),
(607,860,o),
(500,860,cs),
(393,860,o),
(310,777,o),
(310,670,cs),
(310,563,o),
(393,480,o),
(500,480,cs)
);
},
{
closed = 1;
nodes = (
(599,-100,o),
(675,-24,o),
(675,75,cs),
(675,174,o),
(599,250,o),
(500,250,cs),
(401,250,o),
(325,174,o),
(325,75,cs),
(325,-24,o),
(401,-100,o),
(500,-100,cs)
);
},
{
closed = 1;
nodes = (
(441,-30,o),
(395,16,o),
(395,75,cs),
(395,134,o),
(441,180,o),
(500,180,cs),
(559,180,o),
(605,134,o),
(605,75,cs),
(605,16,o),
(559,-30,o),
(500,-30,cs)
);
},
{
closed = 1;
nodes = (
(294,215,o),
(370,291,o),
(370,390,cs),
(370,489,o),
(294,565,o),
(195,565,cs),
(96,565,o),
(20,489,o),
(20,390,cs),
(20,291,o),
(96,215,o),
(195,215,cs)
);
},
{
closed = 1;
nodes = (
(136,285,o),
(90,331,o),
(90,390,cs),
(90,449,o),
(136,495,o),
(195,495,cs),
(254,495,o),
(300,449,o),
(300,390,cs),
(300,331,o),
(254,285,o),
(195,285,cs)
);
},
{
closed = 1;
nodes = (
(904,215,o),
(980,291,o),
(980,390,cs),
(980,489,o),
(904,565,o),
(805,565,cs),
(706,565,o),
(630,489,o),
(630,390,cs),
(630,291,o),
(706,215,o),
(805,215,cs)
);
},
{
closed = 1;
nodes = (
(746,285,o),
(700,331,o),
(700,390,cs),
(700,449,o),
(746,495,o),
(805,495,cs),
(864,495,o),
(910,449,o),
(910,390,cs),
(910,331,o),
(864,285,o),
(805,285,cs)
);
}
);
width = 1000;
},
{
layerId = m002;
shapes = (
{
closed = 1;
nodes = (
(607,480,o),
(690,563,o),
(690,670,cs),
(690,777,o),
(607,860,o),
(500,860,cs),
(393,860,o),
(310,777,o),
(310,670,cs),
(310,563,o),
(393,480,o),
(500,480,cs)
);
},
{
closed = 1;
nodes = (
(599,-100,o),
(675,-24,o),
(675,75,cs),
(675,174,o),
(599,250,o),
(500,250,cs),
(401,250,o),
(325,174,o),
(325,75,cs),
(325,-24,o),
(401,-100,o),
(500,-100,cs)
);
},
{
closed = 1;
nodes = (
(441,-30,o),
(395,16,o),
(395,75,cs),
(395,134,o),
(441,180,o),
(500,180,cs),
(559,180,o),
(605,134,o),
(605,75,cs),
(605,16,o),
(559,-30,o),
(500,-30,cs)
);
},
{
closed = 1;
nodes = (
(294,215,o),
(370,291,o),
(370,390,cs),
(370,489,o),
(294,565,o),
(195,565,cs),
(96,565,o),
(20,489,o),
(20,390,cs),
(20,291,o),
(96,215,o),
(195,215,cs)
);
},
{
closed = 1;
nodes = (
(136,285,o),
(90,331,o),
(90,390,cs),
(90,449,o),
(136,495,o),
(195,495,cs),
(254,495,o),
(300,449,o),
(300,390,cs),
(300,331,o),
(254,285,o),
(195,285,cs)
);
},
{
closed = 1;
nodes = (
(904,215,o),
(980,291,o),
(980,390,cs),
(980,489,o),
(904,565,o),
(805,565,cs),
(706,565,o),
(630,489,o),
(630,390,cs),
(630,291,o),
(706,215,o),
(805,215,cs)
);
},
{
closed = 1;
nodes = (
(746,285,o),
(700,331,o),
(700,390,cs),
(700,449,o),
(746,495,o),
(805,495,cs),
(864,495,o),
(910,449,o),
(910,390,cs),
(910,331,o),
(864,285,o),
(805,285,cs)
);
}
);
width = 1000;
}
);
unicode = 57524;
},
{
color = 7;
glyphname = btn_down;
lastChange = "2026-04-28 15:09:14 +0000";
layers = (
{
layerId = m01;
shapes = (
{
closed = 1;
nodes = (
(599,510,o),
(675,586,o),
(675,685,cs),
(675,784,o),
(599,860,o),
(500,860,cs),
(401,860,o),
(325,784,o),
(325,685,cs),
(325,586,o),
(401,510,o),
(500,510,cs)
);
},
{
closed = 1;
nodes = (
(607,-100,o),
(690,-17,o),
(690,90,cs),
(690,197,o),
(607,280,o),
(500,280,cs),
(393,280,o),
(310,197,o),
(310,90,cs),
(310,-17,o),
(393,-100,o),
(500,-100,cs)
);
},
{
closed = 1;
nodes = (
(441,580,o),
(395,626,o),
(395,685,cs),
(395,744,o),
(441,790,o),
(500,790,cs),
(559,790,o),
(605,744,o),
(605,685,cs),
(605,626,o),
(559,580,o),
(500,580,cs)
);
},
{
closed = 1;
nodes = (
(294,215,o),
(370,291,o),
(370,390,cs),
(370,489,o),
(294,565,o),
(195,565,cs),
(96,565,o),
(20,489,o),
(20,390,cs),
(20,291,o),
(96,215,o),
(195,215,cs)
);
},
{
closed = 1;
nodes = (
(136,285,o),
(90,331,o),
(90,390,cs),
(90,449,o),
(136,495,o),
(195,495,cs),
(254,495,o),
(300,449,o),
(300,390,cs),
(300,331,o),
(254,285,o),
(195,285,cs)
);
},
{
closed = 1;
nodes = (
(904,215,o),
(980,291,o),
(980,390,cs),
(980,489,o),
(904,565,o),
(805,565,cs),
(706,565,o),
(630,489,o),
(630,390,cs),
(630,291,o),
(706,215,o),
(805,215,cs)
);
},
{
closed = 1;
nodes = (
(746,285,o),
(700,331,o),
(700,390,cs),
(700,449,o),
(746,495,o),
(805,495,cs),
(864,495,o),
(910,449,o),
(910,390,cs),
(910,331,o),
(864,285,o),
(805,285,cs)
);
}
);
width = 1000;
},
{
layerId = m002;
shapes = (
{
closed = 1;
nodes = (
(599,510,o),
(675,586,o),
(675,685,cs),
(675,784,o),
(599,860,o),
(500,860,cs),
(401,860,o),
(325,784,o),
(325,685,cs),
(325,586,o),
(401,510,o),
(500,510,cs)
);
},
{
closed = 1;
nodes = (
(607,-100,o),
(690,-17,o),
(690,90,cs),
(690,197,o),
(607,280,o),
(500,280,cs),
(393,280,o),
(310,197,o),
(310,90,cs),
(310,-17,o),
(393,-100,o),
(500,-100,cs)
);
},
{
closed = 1;
nodes = (
(441,580,o),
(395,626,o),
(395,685,cs),
(395,744,o),
(441,790,o),
(500,790,cs),
(559,790,o),
(605,744,o),
(605,685,cs),
(605,626,o),
(559,580,o),
(500,580,cs)
);
},
{
closed = 1;
nodes = (
(294,215,o),
(370,291,o),
(370,390,cs),
(370,489,o),
(294,565,o),
(195,565,cs),
(96,565,o),
(20,489,o),
(20,390,cs),
(20,291,o),
(96,215,o),
(195,215,cs)
);
},
{
closed = 1;
nodes = (
(136,285,o),
(90,331,o),
(90,390,cs),
(90,449,o),
(136,495,o),
(195,495,cs),
(254,495,o),
(300,449,o),
(300,390,cs),
(300,331,o),
(254,285,o),
(195,285,cs)
);
},
{
closed = 1;
nodes = (
(904,215,o),
(980,291,o),
(980,390,cs),
(980,489,o),
(904,565,o),
(805,565,cs),
(706,565,o),
(630,489,o),
(630,390,cs),
(630,291,o),
(706,215,o),
(805,215,cs)
);
},
{
closed = 1;
nodes = (
(746,285,o),
(700,331,o),
(700,390,cs),
(700,449,o),
(746,495,o),
(805,495,cs),
(864,495,o),
(910,449,o),
(910,390,cs),
(910,331,o),
(864,285,o),
(805,285,cs)
);
}
);
width = 1000;
}
);
unicode = 57525;
},
{
color = 7;
glyphname = btn_left;
lastChange = "2026-04-28 15:09:14 +0000";
layers = (
{
layerId = m01;
shapes = (
{
closed = 1;
nodes = (
(599,510,o),
(675,586,o),
(675,685,cs),
(675,784,o),
(599,860,o),
(500,860,cs),
(401,860,o),
(325,784,o),
(325,685,cs),
(325,586,o),
(401,510,o),
(500,510,cs)
);
},
{
closed = 1;
nodes = (
(599,-100,o),
(675,-24,o),
(675,75,cs),
(675,174,o),
(599,250,o),
(500,250,cs),
(401,250,o),
(325,174,o),
(325,75,cs),
(325,-24,o),
(401,-100,o),
(500,-100,cs)
);
},
{
closed = 1;
nodes = (
(441,580,o),
(395,626,o),
(395,685,cs),
(395,744,o),
(441,790,o),
(500,790,cs),
(559,790,o),
(605,744,o),
(605,685,cs),
(605,626,o),
(559,580,o),
(500,580,cs)
);
},
{
closed = 1;
nodes = (
(441,-30,o),
(395,16,o),
(395,75,cs),
(395,134,o),
(441,180,o),
(500,180,cs),
(559,180,o),
(605,134,o),
(605,75,cs),
(605,16,o),
(559,-30,o),
(500,-30,cs)
);
},
{
closed = 1;
nodes = (
(317,200,o),
(400,283,o),
(400,390,cs),
(400,497,o),
(317,580,o),
(210,580,cs),
(103,580,o),
(20,497,o),
(20,390,cs),
(20,283,o),
(103,200,o),
(210,200,cs)
);
},
{
closed = 1;
nodes = (
(904,215,o),
(980,291,o),
(980,390,cs),
(980,489,o),
(904,565,o),
(805,565,cs),
(706,565,o),
(630,489,o),
(630,390,cs),
(630,291,o),
(706,215,o),
(805,215,cs)
);
},
{
closed = 1;
nodes = (
(746,285,o),
(700,331,o),
(700,390,cs),
(700,449,o),
(746,495,o),
(805,495,cs),
(864,495,o),
(910,449,o),
(910,390,cs),
(910,331,o),
(864,285,o),
(805,285,cs)
);
}
);
width = 1000;
},
{
layerId = m002;
shapes = (
{
closed = 1;
nodes = (
(599,510,o),
(675,586,o),
(675,685,cs),
(675,784,o),
(599,860,o),
(500,860,cs),
(401,860,o),
(325,784,o),
(325,685,cs),
(325,586,o),
(401,510,o),
(500,510,cs)
);
},
{
closed = 1;
nodes = (
(599,-100,o),
(675,-24,o),
(675,75,cs),
(675,174,o),
(599,250,o),
(500,250,cs),
(401,250,o),
(325,174,o),
(325,75,cs),
(325,-24,o),
(401,-100,o),
(500,-100,cs)
);
},
{
closed = 1;
nodes = (
(441,580,o),
(395,626,o),
(395,685,cs),
(395,744,o),
(441,790,o),
(500,790,cs),
(559,790,o),
(605,744,o),
(605,685,cs),
(605,626,o),
(559,580,o),
(500,580,cs)
);
},
{
closed = 1;
nodes = (
(441,-30,o),
(395,16,o),
(395,75,cs),
(395,134,o),
(441,180,o),
(500,180,cs),
(559,180,o),
(605,134,o),
(605,75,cs),
(605,16,o),
(559,-30,o),
(500,-30,cs)
);
},
{
closed = 1;
nodes = (
(317,200,o),
(400,283,o),
(400,390,cs),
(400,497,o),
(317,580,o),
(210,580,cs),
(103,580,o),
(20,497,o),
(20,390,cs),
(20,283,o),
(103,200,o),
(210,200,cs)
);
},
{
closed = 1;
nodes = (
(904,215,o),
(980,291,o),
(980,390,cs),
(980,489,o),
(904,565,o),
(805,565,cs),
(706,565,o),
(630,489,o),
(630,390,cs),
(630,291,o),
(706,215,o),
(805,215,cs)
);
},
{
closed = 1;
nodes = (
(746,285,o),
(700,331,o),
(700,390,cs),
(700,449,o),
(746,495,o),
(805,495,cs),
(864,495,o),
(910,449,o),
(910,390,cs),
(910,331,o),
(864,285,o),
(805,285,cs)
);
}
);
width = 1000;
}
);
unicode = 57526;
},
{
color = 7;
glyphname = btn_right;
lastChange = "2026-04-28 15:09:14 +0000";
layers = (
{
layerId = m01;
shapes = (
{
closed = 1;
nodes = (
(599,510,o),
(675,586,o),
(675,685,cs),
(675,784,o),
(599,860,o),
(500,860,cs),
(401,860,o),
(325,784,o),
(325,685,cs),
(325,586,o),
(401,510,o),
(500,510,cs)
);
},
{
closed = 1;
nodes = (
(599,-100,o),
(675,-24,o),
(675,75,cs),
(675,174,o),
(599,250,o),
(500,250,cs),
(401,250,o),
(325,174,o),
(325,75,cs),
(325,-24,o),
(401,-100,o),
(500,-100,cs)
);
},
{
closed = 1;
nodes = (
(441,580,o),
(395,626,o),
(395,685,cs),
(395,744,o),
(441,790,o),
(500,790,cs),
(559,790,o),
(605,744,o),
(605,685,cs),
(605,626,o),
(559,580,o),
(500,580,cs)
);
},
{
closed = 1;
nodes = (
(441,-30,o),
(395,16,o),
(395,75,cs),
(395,134,o),
(441,180,o),
(500,180,cs),
(559,180,o),
(605,134,o),
(605,75,cs),
(605,16,o),
(559,-30,o),
(500,-30,cs)
);
},
{
closed = 1;
nodes = (
(294,215,o),
(370,291,o),
(370,390,cs),
(370,489,o),
(294,565,o),
(195,565,cs),
(96,565,o),
(20,489,o),
(20,390,cs),
(20,291,o),
(96,215,o),
(195,215,cs)
);
},
{
closed = 1;
nodes = (
(136,285,o),
(90,331,o),
(90,390,cs),
(90,449,o),
(136,495,o),
(195,495,cs),
(254,495,o),
(300,449,o),
(300,390,cs),
(300,331,o),
(254,285,o),
(195,285,cs)
);
},
{
closed = 1;
nodes = (
(897,200,o),
(980,283,o),
(980,390,cs),
(980,497,o),
(897,580,o),
(790,580,cs),
(683,580,o),
(600,497,o),
(600,390,cs),
(600,283,o),
(683,200,o),
(790,200,cs)
);
}
);
width = 1000;
},
{
layerId = m002;
shapes = (
{
closed = 1;
nodes = (
(599,510,o),
(675,586,o),
(675,685,cs),
(675,784,o),
(599,860,o),
(500,860,cs),
(401,860,o),
(325,784,o),
(325,685,cs),
(325,586,o),
(401,510,o),
(500,510,cs)
);
},
{
closed = 1;
nodes = (
(599,-100,o),
(675,-24,o),
(675,75,cs),
(675,174,o),
(599,250,o),
(500,250,cs),
(401,250,o),
(325,174,o),
(325,75,cs),
(325,-24,o),
(401,-100,o),
(500,-100,cs)
);
},
{
closed = 1;
nodes = (
(441,580,o),
(395,626,o),
(395,685,cs),
(395,744,o),
(441,790,o),
(500,790,cs),
(559,790,o),
(605,744,o),
(605,685,cs),
(605,626,o),
(559,580,o),
(500,580,cs)
);
},
{
closed = 1;
nodes = (
(441,-30,o),
(395,16,o),
(395,75,cs),
(395,134,o),
(441,180,o),
(500,180,cs),
(559,180,o),
(605,134,o),
(605,75,cs),
(605,16,o),
(559,-30,o),
(500,-30,cs)
);
},
{
closed = 1;
nodes = (
(294,215,o),
(370,291,o),
(370,390,cs),
(370,489,o),
(294,565,o),
(195,565,cs),
(96,565,o),
(20,489,o),
(20,390,cs),
(20,291,o),
(96,215,o),
(195,215,cs)
);
},
{
closed = 1;
nodes = (
(136,285,o),
(90,331,o),
(90,390,cs),
(90,449,o),
(136,495,o),
(195,495,cs),
(254,495,o),
(300,449,o),
(300,390,cs),
(300,331,o),
(254,285,o),
(195,285,cs)
);
},
{
closed = 1;
nodes = (
(897,200,o),
(980,283,o),
(980,390,cs),
(980,497,o),
(897,580,o),
(790,580,cs),
(683,580,o),
(600,497,o),
(600,390,cs),
(600,283,o),
(683,200,o),
(790,200,cs)
);
}
);
width = 1000;
}
);
unicode = 57527;
},
{
color = 0;
glyphname = dpad;
lastChange = "2026-04-28 15:09:14 +0000";
layers = (
{
layerId = m01;
shapes = (
{
closed = 1;
nodes = (
(40,200,l),
(310,200,l),
(310,-70,l),
(690,-70,l),
(690,200,l),
(960,200,l),
(960,580,l),
(690,580,l),
(690,850,l),
(310,850,l),
(310,580,l),
(40,580,l)
);
},
{
closed = 1;
nodes = (
(375,515,l),
(375,785,l),
(625,785,l),
(625,515,l),
(895,515,l),
(895,265,l),
(625,265,l),
(625,-5,l),
(375,-5,l),
(375,265,l),
(105,265,l),
(105,515,l)
);
}
);
width = 1000;
},
{
layerId = m002;
shapes = (
{
closed = 1;
nodes = (
(40,200,l),
(310,200,l),
(310,-70,l),
(690,-70,l),
(690,200,l),
(960,200,l),
(960,580,l),
(690,580,l),
(690,850,l),
(310,850,l),
(310,580,l),
(40,580,l)
);
},
{
closed = 1;
nodes = (
(375,515,l),
(375,785,l),
(625,785,l),
(625,515,l),
(895,515,l),
(895,265,l),
(625,265,l),
(625,-5,l),
(375,-5,l),
(375,265,l),
(105,265,l),
(105,515,l)
);
}
);
width = 1000;
}
);
unicode = 57528;
},
{
color = 0;
glyphname = dpad_up;
lastChange = "2026-04-28 15:09:14 +0000";
layers = (
{
layerId = m01;
shapes = (
{
closed = 1;
nodes = (
(40,200,l),
(310,200,l),
(310,-70,l),
(690,-70,l),
(690,200,l),
(960,200,l),
(960,580,l),
(690,580,l),
(690,850,l),
(310,850,l),
(310,580,l),
(40,580,l)
);
},
{
closed = 1;
nodes = (
(895,515,l),
(895,265,l),
(625,265,l),
(625,-5,l),
(375,-5,l),
(375,265,l),
(105,265,l),
(105,515,l)
);
}
);
width = 1000;
},
{
layerId = m002;
shapes = (
{
closed = 1;
nodes = (
(40,200,l),
(310,200,l),
(310,-70,l),
(690,-70,l),
(690,200,l),
(960,200,l),
(960,580,l),
(690,580,l),
(690,850,l),
(310,850,l),
(310,580,l),
(40,580,l)
);
},
{
closed = 1;
nodes = (
(895,515,l),
(895,265,l),
(625,265,l),
(625,-5,l),
(375,-5,l),
(375,265,l),
(105,265,l),
(105,515,l)
);
}
);
width = 1000;
}
);
unicode = 57529;
},
{
color = 0;
glyphname = dpad_down;
lastChange = "2026-04-28 15:09:14 +0000";
layers = (
{
layerId = m01;
shapes = (
{
closed = 1;
nodes = (
(40,200,l),
(310,200,l),
(310,-70,l),
(690,-70,l),
(690,200,l),
(960,200,l),
(960,580,l),
(690,580,l),
(690,850,l),
(310,850,l),
(310,580,l),
(40,580,l)
);
},
{
closed = 1;
nodes = (
(375,515,l),
(375,785,l),
(625,785,l),
(625,515,l),
(895,515,l),
(895,265,l),
(105,265,l),
(105,515,l)
);
}
);
width = 1000;
},
{
layerId = m002;
shapes = (
{
closed = 1;
nodes = (
(40,200,l),
(310,200,l),
(310,-70,l),
(690,-70,l),
(690,200,l),
(960,200,l),
(960,580,l),
(690,580,l),
(690,850,l),
(310,850,l),
(310,580,l),
(40,580,l)
);
},
{
closed = 1;
nodes = (
(375,515,l),
(375,785,l),
(625,785,l),
(625,515,l),
(895,515,l),
(895,265,l),
(105,265,l),
(105,515,l)
);
}
);
width = 1000;
}
);
unicode = 57530;
},
{
color = 0;
glyphname = dpad_left;
lastChange = "2026-04-28 15:09:14 +0000";
layers = (
{
layerId = m01;
shapes = (
{
closed = 1;
nodes = (
(40,200,l),
(310,200,l),
(310,-70,l),
(690,-70,l),
(690,200,l),
(960,200,l),
(960,580,l),
(690,580,l),
(690,850,l),
(310,850,l),
(310,580,l),
(40,580,l)
);
},
{
closed = 1;
nodes = (
(375,785,l),
(625,785,l),
(625,515,l),
(895,515,l),
(895,265,l),
(625,265,l),
(625,-5,l),
(375,-5,l)
);
}
);
width = 1000;
},
{
layerId = m002;
shapes = (
{
closed = 1;
nodes = (
(40,200,l),
(310,200,l),
(310,-70,l),
(690,-70,l),
(690,200,l),
(960,200,l),
(960,580,l),
(690,580,l),
(690,850,l),
(310,850,l),
(310,580,l),
(40,580,l)
);
},
{
closed = 1;
nodes = (
(375,785,l),
(625,785,l),
(625,515,l),
(895,515,l),
(895,265,l),
(625,265,l),
(625,-5,l),
(375,-5,l)
);
}
);
width = 1000;
}
);
unicode = 57531;
},
{
color = 0;
glyphname = dpad_right;
lastChange = "2026-04-28 15:09:14 +0000";
layers = (
{
layerId = m01;
shapes = (
{
closed = 1;
nodes = (
(40,200,l),
(310,200,l),
(310,-70,l),
(690,-70,l),
(690,200,l),
(960,200,l),
(960,580,l),
(690,580,l),
(690,850,l),
(310,850,l),
(310,580,l),
(40,580,l)
);
},
{
closed = 1;
nodes = (
(375,515,l),
(375,785,l),
(625,785,l),
(625,-5,l),
(375,-5,l),
(375,265,l),
(105,265,l),
(105,515,l)
);
}
);
width = 1000;
},
{
layerId = m002;
shapes = (
{
closed = 1;
nodes = (
(40,200,l),
(310,200,l),
(310,-70,l),
(690,-70,l),
(690,200,l),
(960,200,l),
(960,580,l),
(690,580,l),
(690,850,l),
(310,850,l),
(310,580,l),
(40,580,l)
);
},
{
closed = 1;
nodes = (
(375,515,l),
(375,785,l),
(625,785,l),
(625,-5,l),
(375,-5,l),
(375,265,l),
(105,265,l),
(105,515,l)
);
}
);
width = 1000;
}
);
unicode = 57532;
},
{
color = 3;
glyphname = stick;
lastChange = "2026-04-28 15:09:14 +0000";
layers = (
{
layerId = m01;
shapes = (
{
closed = 1;
nodes = (
(20,123,o),
(229,-90,o),
(500,-90,cs),
(771,-90,o),
(980,123,o),
(980,399,cs),
(980,665,o),
(771,870,o),
(500,870,cs),
(229,870,o),
(20,665,o),
(20,399,cs)
);
},
{
closed = 1;
nodes = (
(265,51,o),
(85,218,o),
(85,435,cs),
(85,650,o),
(265,814,o),
(500,814,cs),
(735,814,o),
(915,650,o),
(915,435,cs),
(915,218,o),
(735,51,o),
(500,51,cs)
);
},
{
closed = 1;
nodes = (
(697,129,o),
(850,269,o),
(850,452,cs),
(850,634,o),
(697,773,o),
(500,773,cs),
(303,773,o),
(150,634,o),
(150,452,cs),
(150,269,o),
(303,129,o),
(500,129,cs)
);
},
{
closed = 1;
nodes = (
(332,183,o),
(201,300,o),
(201,453,cs),
(201,607,o),
(332,727,o),
(500,727,cs),
(668,727,o),
(799,607,o),
(799,453,cs),
(799,300,o),
(668,183,o),
(500,183,cs)
);
}
);
width = 1000;
},
{
layerId = m002;
shapes = (
{
closed = 1;
nodes = (
(20,123,o),
(229,-90,o),
(500,-90,cs),
(771,-90,o),
(980,123,o),
(980,399,cs),
(980,665,o),
(771,870,o),
(500,870,cs),
(229,870,o),
(20,665,o),
(20,399,cs)
);
},
{
closed = 1;
nodes = (
(265,51,o),
(85,218,o),
(85,435,cs),
(85,650,o),
(265,814,o),
(500,814,cs),
(735,814,o),
(915,650,o),
(915,435,cs),
(915,218,o),
(735,51,o),
(500,51,cs)
);
},
{
closed = 1;
nodes = (
(697,129,o),
(850,269,o),
(850,452,cs),
(850,634,o),
(697,773,o),
(500,773,cs),
(303,773,o),
(150,634,o),
(150,452,cs),
(150,269,o),
(303,129,o),
(500,129,cs)
);
},
{
closed = 1;
nodes = (
(332,183,o),
(201,300,o),
(201,453,cs),
(201,607,o),
(332,727,o),
(500,727,cs),
(668,727,o),
(799,607,o),
(799,453,cs),
(799,300,o),
(668,183,o),
(500,183,cs)
);
}
);
width = 1000;
}
);
unicode = 57533;
},
{
color = 3;
glyphname = stick_left;
lastChange = "2026-04-28 15:09:14 +0000";
layers = (
{
layerId = m01;
shapes = (
{
closed = 1;
nodes = (
(20,123,o),
(229,-90,o),
(500,-90,cs),
(771,-90,o),
(980,123,o),
(980,399,cs),
(980,665,o),
(771,870,o),
(500,870,cs),
(229,870,o),
(20,665,o),
(20,399,cs)
);
},
{
closed = 1;
nodes = (
(265,51,o),
(85,218,o),
(85,435,cs),
(85,650,o),
(265,814,o),
(500,814,cs),
(735,814,o),
(915,650,o),
(915,435,cs),
(915,218,o),
(735,51,o),
(500,51,cs)
);
},
{
closed = 1;
nodes = (
(395,293,l),
(447,293,l),
(447,623,l),
(395,623,l)
);
},
{
closed = 1;
nodes = (
(423,293,l),
(605,293,l),
(605,341,l),
(423,341,l)
);
},
{
closed = 1;
nodes = (
(697,129,o),
(850,269,o),
(850,452,cs),
(850,634,o),
(697,773,o),
(500,773,cs),
(303,773,o),
(150,634,o),
(150,452,cs),
(150,269,o),
(303,129,o),
(500,129,cs)
);
},
{
closed = 1;
nodes = (
(332,183,o),
(201,300,o),
(201,453,cs),
(201,607,o),
(332,727,o),
(500,727,cs),
(668,727,o),
(799,607,o),
(799,453,cs),
(799,300,o),
(668,183,o),
(500,183,cs)
);
}
);
width = 1000;
},
{
layerId = m002;
shapes = (
{
closed = 1;
nodes = (
(20,123,o),
(229,-90,o),
(500,-90,cs),
(771,-90,o),
(980,123,o),
(980,399,cs),
(980,665,o),
(771,870,o),
(500,870,cs),
(229,870,o),
(20,665,o),
(20,399,cs)
);
},
{
closed = 1;
nodes = (
(265,51,o),
(85,218,o),
(85,435,cs),
(85,650,o),
(265,814,o),
(500,814,cs),
(735,814,o),
(915,650,o),
(915,435,cs),
(915,218,o),
(735,51,o),
(500,51,cs)
);
},
{
closed = 1;
nodes = (
(395,293,l),
(447,293,l),
(447,623,l),
(395,623,l)
);
},
{
closed = 1;
nodes = (
(423,293,l),
(605,293,l),
(605,341,l),
(423,341,l)
);
},
{
closed = 1;
nodes = (
(697,129,o),
(850,269,o),
(850,452,cs),
(850,634,o),
(697,773,o),
(500,773,cs),
(303,773,o),
(150,634,o),
(150,452,cs),
(150,269,o),
(303,129,o),
(500,129,cs)
);
},
{
closed = 1;
nodes = (
(332,183,o),
(201,300,o),
(201,453,cs),
(201,607,o),
(332,727,o),
(500,727,cs),
(668,727,o),
(799,607,o),
(799,453,cs),
(799,300,o),
(668,183,o),
(500,183,cs)
);
}
);
width = 1000;
}
);
unicode = 57534;
},
{
color = 3;
glyphname = stick_right;
lastChange = "2026-04-28 15:09:14 +0000";
layers = (
{
layerId = m01;
shapes = (
{
closed = 1;
nodes = (
(20,123,o),
(229,-90,o),
(500,-90,cs),
(771,-90,o),
(980,123,o),
(980,399,cs),
(980,665,o),
(771,870,o),
(500,870,cs),
(229,870,o),
(20,665,o),
(20,399,cs)
);
},
{
closed = 1;
nodes = (
(265,51,o),
(85,218,o),
(85,435,cs),
(85,650,o),
(265,814,o),
(500,814,cs),
(735,814,o),
(915,650,o),
(915,435,cs),
(915,218,o),
(735,51,o),
(500,51,cs)
);
},
{
closed = 1;
nodes = (
(697,129,o),
(850,269,o),
(850,452,cs),
(850,634,o),
(697,773,o),
(500,773,cs),
(303,773,o),
(150,634,o),
(150,452,cs),
(150,269,o),
(303,129,o),
(500,129,cs)
);
},
{
closed = 1;
nodes = (
(332,183,o),
(201,300,o),
(201,453,cs),
(201,607,o),
(332,727,o),
(500,727,cs),
(668,727,o),
(799,607,o),
(799,453,cs),
(799,300,o),
(668,183,o),
(500,183,cs)
);
},
{
closed = 1;
nodes = (
(374,295,l),
(425,295,l),
(425,625,l),
(374,625,l)
);
},
{
closed = 1;
nodes = (
(517,581,ls),
(554,581,o),
(579,560,o),
(579,526,cs),
(579,492,o),
(554,471,o),
(517,471,cs),
(395,471,l),
(395,428,l),
(521,428,ls),
(587,428,o),
(629,466,o),
(629,526,cs),
(629,587,o),
(587,625,o),
(521,625,cs),
(397,625,l),
(397,581,l)
);
},
{
closed = 1;
nodes = (
(642,295,l),
(510,450,l),
(447,450,l),
(578,295,l)
);
}
);
width = 1000;
},
{
layerId = m002;
shapes = (
{
closed = 1;
nodes = (
(20,123,o),
(229,-90,o),
(500,-90,cs),
(771,-90,o),
(980,123,o),
(980,399,cs),
(980,665,o),
(771,870,o),
(500,870,cs),
(229,870,o),
(20,665,o),
(20,399,cs)
);
},
{
closed = 1;
nodes = (
(265,51,o),
(85,218,o),
(85,435,cs),
(85,650,o),
(265,814,o),
(500,814,cs),
(735,814,o),
(915,650,o),
(915,435,cs),
(915,218,o),
(735,51,o),
(500,51,cs)
);
},
{
closed = 1;
nodes = (
(697,129,o),
(850,269,o),
(850,452,cs),
(850,634,o),
(697,773,o),
(500,773,cs),
(303,773,o),
(150,634,o),
(150,452,cs),
(150,269,o),
(303,129,o),
(500,129,cs)
);
},
{
closed = 1;
nodes = (
(332,183,o),
(201,300,o),
(201,453,cs),
(201,607,o),
(332,727,o),
(500,727,cs),
(668,727,o),
(799,607,o),
(799,453,cs),
(799,300,o),
(668,183,o),
(500,183,cs)
);
},
{
closed = 1;
nodes = (
(374,295,l),
(425,295,l),
(425,625,l),
(374,625,l)
);
},
{
closed = 1;
nodes = (
(517,581,ls),
(554,581,o),
(579,560,o),
(579,526,cs),
(579,492,o),
(554,471,o),
(517,471,cs),
(395,471,l),
(395,428,l),
(521,428,ls),
(587,428,o),
(629,466,o),
(629,526,cs),
(629,587,o),
(587,625,o),
(521,625,cs),
(397,625,l),
(397,581,l)
);
},
{
closed = 1;
nodes = (
(642,295,l),
(510,450,l),
(447,450,l),
(578,295,l)
);
}
);
width = 1000;
}
);
unicode = 57535;
},
{
color = 5;
glyphname = trigger_l;
lastChange = "2026-04-28 15:09:14 +0000";
layers = (
{
layerId = m01;
shapes = (
{
closed = 1;
nodes = (
(40,-20,l),
(960,-20,l),
(960,800,l),
(376,800,ls),
(158,800,o),
(40,682,o),
(40,464,cs)
);
},
{
closed = 1;
nodes = (
(885,725,l),
(885,55,l),
(115,55,l),
(115,464,ls),
(115,634,o),
(207,725,o),
(376,725,cs)
);
},
{
closed = 1;
nodes = (
(370,160,l),
(442,160,l),
(442,620,l),
(370,620,l)
);
},
{
closed = 1;
nodes = (
(407,160,l),
(683,160,l),
(683,227,l),
(407,227,l)
);
}
);
width = 1000;
},
{
layerId = m002;
shapes = (
{
closed = 1;
nodes = (
(40,-20,l),
(960,-20,l),
(960,800,l),
(376,800,ls),
(158,800,o),
(40,682,o),
(40,464,cs)
);
},
{
closed = 1;
nodes = (
(885,725,l),
(885,55,l),
(115,55,l),
(115,464,ls),
(115,634,o),
(207,725,o),
(376,725,cs)
);
},
{
closed = 1;
nodes = (
(370,160,l),
(442,160,l),
(442,620,l),
(370,620,l)
);
},
{
closed = 1;
nodes = (
(407,160,l),
(683,160,l),
(683,227,l),
(407,227,l)
);
}
);
width = 1000;
}
);
unicode = 57536;
},
{
color = 5;
glyphname = trigger_r;
lastChange = "2026-04-28 15:09:14 +0000";
layers = (
{
layerId = m01;
shapes = (
{
closed = 1;
nodes = (
(960,682,o),
(842,800,o),
(624,800,cs),
(40,800,l),
(40,-20,l),
(960,-20,l),
(960,464,ls)
);
},
{
closed = 1;
nodes = (
(793,725,o),
(885,634,o),
(885,464,cs),
(885,55,l),
(115,55,l),
(115,725,l),
(624,725,ls)
);
},
{
closed = 1;
nodes = (
(308,160,l),
(380,160,l),
(380,620,l),
(308,620,l)
);
},
{
closed = 1;
nodes = (
(492,558,ls),
(544,558,o),
(578,529,o),
(578,482,cs),
(578,435,o),
(544,406,o),
(492,406,cs),
(339,406,l),
(339,345,l),
(498,345,ls),
(590,345,o),
(649,399,o),
(649,482,cs),
(649,566,o),
(590,620,o),
(498,620,cs),
(342,620,l),
(342,558,l)
);
},
{
closed = 1;
nodes = (
(668,160,l),
(497,376,l),
(410,376,l),
(581,160,l)
);
}
);
width = 1000;
},
{
layerId = m002;
shapes = (
{
closed = 1;
nodes = (
(960,682,o),
(842,800,o),
(624,800,cs),
(40,800,l),
(40,-20,l),
(960,-20,l),
(960,464,ls)
);
},
{
closed = 1;
nodes = (
(793,725,o),
(885,634,o),
(885,464,cs),
(885,55,l),
(115,55,l),
(115,725,l),
(624,725,ls)
);
},
{
closed = 1;
nodes = (
(308,160,l),
(380,160,l),
(380,620,l),
(308,620,l)
);
},
{
closed = 1;
nodes = (
(492,558,ls),
(544,558,o),
(578,529,o),
(578,482,cs),
(578,435,o),
(544,406,o),
(492,406,cs),
(339,406,l),
(339,345,l),
(498,345,ls),
(590,345,o),
(649,399,o),
(649,482,cs),
(649,566,o),
(590,620,o),
(498,620,cs),
(342,620,l),
(342,558,l)
);
},
{
closed = 1;
nodes = (
(668,160,l),
(497,376,l),
(410,376,l),
(581,160,l)
);
}
);
width = 1000;
}
);
unicode = 57537;
},
{
color = 5;
glyphname = trigger_l1;
lastChange = "2026-04-28 15:09:14 +0000";
layers = (
{
layerId = m01;
shapes = (
{
closed = 1;
nodes = (
(40,-20,l),
(960,-20,l),
(960,800,l),
(376,800,ls),
(158,800,o),
(40,682,o),
(40,464,cs)
);
},
{
closed = 1;
nodes = (
(885,725,l),
(885,55,l),
(115,55,l),
(115,464,ls),
(115,634,o),
(207,725,o),
(376,725,cs)
);
},
{
closed = 1;
nodes = (
(290,160,l),
(362,160,l),
(362,620,l),
(290,620,l)
);
},
{
closed = 1;
nodes = (
(327,160,l),
(563,160,l),
(563,227,l),
(327,227,l)
);
},
{
closed = 1;
nodes = (
(673,160,l),
(745,160,l),
(745,550,l),
(673,550,l)
);
},
{
closed = 1;
nodes = (
(551,424,l),
(598,378,l),
(700,488,l),
(709,550,l),
(668,550,l)
);
}
);
width = 1000;
},
{
layerId = m002;
shapes = (
{
closed = 1;
nodes = (
(40,-20,l),
(960,-20,l),
(960,800,l),
(376,800,ls),
(158,800,o),
(40,682,o),
(40,464,cs)
);
},
{
closed = 1;
nodes = (
(885,725,l),
(885,55,l),
(115,55,l),
(115,464,ls),
(115,634,o),
(207,725,o),
(376,725,cs)
);
},
{
closed = 1;
nodes = (
(290,160,l),
(362,160,l),
(362,620,l),
(290,620,l)
);
},
{
closed = 1;
nodes = (
(327,160,l),
(563,160,l),
(563,227,l),
(327,227,l)
);
},
{
closed = 1;
nodes = (
(673,160,l),
(745,160,l),
(745,550,l),
(673,550,l)
);
},
{
closed = 1;
nodes = (
(551,424,l),
(598,378,l),
(700,488,l),
(709,550,l),
(668,550,l)
);
}
);
width = 1000;
}
);
unicode = 57538;
},
{
color = 5;
glyphname = trigger_r1;
lastChange = "2026-04-28 15:09:14 +0000";
layers = (
{
layerId = m01;
shapes = (
{
closed = 1;
nodes = (
(960,682,o),
(842,800,o),
(624,800,cs),
(40,800,l),
(40,-20,l),
(960,-20,l),
(960,464,ls)
);
},
{
closed = 1;
nodes = (
(793,725,o),
(885,634,o),
(885,464,cs),
(885,55,l),
(115,55,l),
(115,725,l),
(624,725,ls)
);
},
{
closed = 1;
nodes = (
(683,160,l),
(755,160,l),
(755,550,l),
(683,550,l)
);
},
{
closed = 1;
nodes = (
(561,424,l),
(608,378,l),
(710,488,l),
(719,550,l),
(678,550,l)
);
},
{
closed = 1;
nodes = (
(228,160,l),
(300,160,l),
(300,620,l),
(228,620,l)
);
},
{
closed = 1;
nodes = (
(372,558,ls),
(424,558,o),
(458,529,o),
(458,482,cs),
(458,435,o),
(424,406,o),
(372,406,cs),
(259,406,l),
(259,345,l),
(378,345,ls),
(470,345,o),
(529,399,o),
(529,482,cs),
(529,566,o),
(470,620,o),
(378,620,cs),
(262,620,l),
(262,558,l)
);
},
{
closed = 1;
nodes = (
(548,160,l),
(397,376,l),
(313,376,l),
(464,160,l)
);
}
);
width = 1000;
},
{
layerId = m002;
shapes = (
{
closed = 1;
nodes = (
(960,682,o),
(842,800,o),
(624,800,cs),
(40,800,l),
(40,-20,l),
(960,-20,l),
(960,464,ls)
);
},
{
closed = 1;
nodes = (
(793,725,o),
(885,634,o),
(885,464,cs),
(885,55,l),
(115,55,l),
(115,725,l),
(624,725,ls)
);
},
{
closed = 1;
nodes = (
(683,160,l),
(755,160,l),
(755,550,l),
(683,550,l)
);
},
{
closed = 1;
nodes = (
(561,424,l),
(608,378,l),
(710,488,l),
(719,550,l),
(678,550,l)
);
},
{
closed = 1;
nodes = (
(228,160,l),
(300,160,l),
(300,620,l),
(228,620,l)
);
},
{
closed = 1;
nodes = (
(372,558,ls),
(424,558,o),
(458,529,o),
(458,482,cs),
(458,435,o),
(424,406,o),
(372,406,cs),
(259,406,l),
(259,345,l),
(378,345,ls),
(470,345,o),
(529,399,o),
(529,482,cs),
(529,566,o),
(470,620,o),
(378,620,cs),
(262,620,l),
(262,558,l)
);
},
{
closed = 1;
nodes = (
(548,160,l),
(397,376,l),
(313,376,l),
(464,160,l)
);
}
);
width = 1000;
}
);
unicode = 57539;
},
{
color = 5;
glyphname = trigger_zl;
lastChange = "2026-04-28 15:09:14 +0000";
layers = (
{
layerId = m01;
shapes = (
{
closed = 1;
nodes = (
(40,-60,l),
(960,-60,l),
(960,620,ls),
(960,764,o),
(882,840,o),
(740,840,cs),
(426,840,ls),
(176,840,o),
(40,704,o),
(40,454,cs)
);
},
{
closed = 1;
nodes = (
(735,765,ls),
(832,765,o),
(885,713,o),
(885,615,cs),
(885,15,l),
(115,15,l),
(115,454,ls),
(115,657,o),
(224,765,o),
(426,765,cs)
);
},
{
closed = 1;
nodes = (
(605,160,l),
(666,160,l),
(666,520,l),
(605,520,l)
);
},
{
closed = 1;
nodes = (
(634,160,l),
(811,160,l),
(811,215,l),
(634,215,l)
);
},
{
closed = 1;
nodes = (
(545,527,l),
(545,589,l),
(256,589,l),
(256,527,l)
);
},
{
closed = 1;
nodes = (
(545,160,l),
(545,222,l),
(256,222,l),
(256,160,l)
);
},
{
closed = 1;
nodes = (
(256,222,l),
(323,200,l),
(545,527,l),
(478,548,l)
);
}
);
width = 1000;
},
{
layerId = m002;
shapes = (
{
closed = 1;
nodes = (
(40,-60,l),
(960,-60,l),
(960,620,ls),
(960,764,o),
(882,840,o),
(740,840,cs),
(426,840,ls),
(176,840,o),
(40,704,o),
(40,454,cs)
);
},
{
closed = 1;
nodes = (
(735,765,ls),
(832,765,o),
(885,713,o),
(885,615,cs),
(885,15,l),
(115,15,l),
(115,454,ls),
(115,657,o),
(224,765,o),
(426,765,cs)
);
},
{
closed = 1;
nodes = (
(605,160,l),
(666,160,l),
(666,520,l),
(605,520,l)
);
},
{
closed = 1;
nodes = (
(634,160,l),
(811,160,l),
(811,215,l),
(634,215,l)
);
},
{
closed = 1;
nodes = (
(545,527,l),
(545,589,l),
(256,589,l),
(256,527,l)
);
},
{
closed = 1;
nodes = (
(545,160,l),
(545,222,l),
(256,222,l),
(256,160,l)
);
},
{
closed = 1;
nodes = (
(256,222,l),
(323,200,l),
(545,527,l),
(478,548,l)
);
}
);
width = 1000;
}
);
unicode = 57540;
},
{
color = 5;
glyphname = trigger_l2;
lastChange = "2026-04-28 15:09:14 +0000";
layers = (
{
layerId = m01;
shapes = (
{
closed = 1;
nodes = (
(40,-60,l),
(960,-60,l),
(960,620,ls),
(960,764,o),
(882,840,o),
(740,840,cs),
(426,840,ls),
(176,840,o),
(40,704,o),
(40,454,cs)
);
},
{
closed = 1;
nodes = (
(735,765,ls),
(832,765,o),
(885,713,o),
(885,615,cs),
(885,15,l),
(115,15,l),
(115,454,ls),
(115,657,o),
(224,765,o),
(426,765,cs)
);
},
{
closed = 1;
nodes = (
(260,160,l),
(326,160,l),
(326,580,l),
(260,580,l)
);
},
{
closed = 1;
nodes = (
(294,160,l),
(500,160,l),
(500,221,l),
(294,221,l)
);
},
{
closed = 1;
nodes = (
(592,412,l),
(594,412,l),
(606,444,o),
(636,466,o),
(668,466,cs),
(702,466,o),
(726,441,o),
(726,412,cs),
(726,386,o),
(707,356,o),
(680,331,cs),
(552,210,l),
(602,181,l),
(720,292,ls),
(762,332,o),
(791,373,o),
(791,414,cs),
(791,471,o),
(735,526,o),
(668,526,cs),
(616,526,o),
(572,493,o),
(546,445,c)
);
},
{
closed = 1;
nodes = (
(552,160,l),
(794,160,l),
(794,221,l),
(613,221,l),
(552,210,l)
);
}
);
width = 1000;
},
{
layerId = m002;
shapes = (
{
closed = 1;
nodes = (
(40,-60,l),
(960,-60,l),
(960,620,ls),
(960,764,o),
(882,840,o),
(740,840,cs),
(426,840,ls),
(176,840,o),
(40,704,o),
(40,454,cs)
);
},
{
closed = 1;
nodes = (
(735,765,ls),
(832,765,o),
(885,713,o),
(885,615,cs),
(885,15,l),
(115,15,l),
(115,454,ls),
(115,657,o),
(224,765,o),
(426,765,cs)
);
},
{
closed = 1;
nodes = (
(260,160,l),
(326,160,l),
(326,580,l),
(260,580,l)
);
},
{
closed = 1;
nodes = (
(294,160,l),
(500,160,l),
(500,221,l),
(294,221,l)
);
},
{
closed = 1;
nodes = (
(592,412,l),
(594,412,l),
(606,444,o),
(636,466,o),
(668,466,cs),
(702,466,o),
(726,441,o),
(726,412,cs),
(726,386,o),
(707,356,o),
(680,331,cs),
(552,210,l),
(602,181,l),
(720,292,ls),
(762,332,o),
(791,373,o),
(791,414,cs),
(791,471,o),
(735,526,o),
(668,526,cs),
(616,526,o),
(572,493,o),
(546,445,c)
);
},
{
closed = 1;
nodes = (
(552,160,l),
(794,160,l),
(794,221,l),
(613,221,l),
(552,210,l)
);
}
);
width = 1000;
}
);
unicode = 57541;
},
{
color = 5;
glyphname = trigger_zr;
lastChange = "2026-04-28 15:09:14 +0000";
layers = (
{
layerId = m01;
shapes = (
{
closed = 1;
nodes = (
(960,704,o),
(824,840,o),
(574,840,cs),
(260,840,ls),
(118,840,o),
(40,764,o),
(40,620,cs),
(40,-60,l),
(960,-60,l),
(960,454,ls)
);
},
{
closed = 1;
nodes = (
(776,765,o),
(885,657,o),
(885,454,cs),
(885,15,l),
(115,15,l),
(115,615,ls),
(115,713,o),
(168,765,o),
(265,765,cs),
(574,765,ls)
);
},
{
closed = 1;
nodes = (
(560,160,l),
(620,160,l),
(620,520,l),
(560,520,l)
);
},
{
closed = 1;
nodes = (
(669,468,ls),
(710,468,o),
(737,446,o),
(737,412,cs),
(737,378,o),
(710,356,o),
(669,356,cs),
(584,356,l),
(584,305,l),
(677,305,ls),
(749,305,o),
(795,347,o),
(795,412,cs),
(795,478,o),
(749,520,o),
(677,520,cs),
(586,520,l),
(586,468,l)
);
},
{
closed = 1;
nodes = (
(810,160,l),
(699,329,l),
(632,329,l),
(743,160,l)
);
},
{
closed = 1;
nodes = (
(494,527,l),
(494,589,l),
(205,589,l),
(205,527,l)
);
},
{
closed = 1;
nodes = (
(494,160,l),
(494,222,l),
(205,222,l),
(205,160,l)
);
},
{
closed = 1;
nodes = (
(205,222,l),
(272,200,l),
(494,527,l),
(427,548,l)
);
}
);
width = 1000;
},
{
layerId = m002;
shapes = (
{
closed = 1;
nodes = (
(960,704,o),
(824,840,o),
(574,840,cs),
(260,840,ls),
(118,840,o),
(40,764,o),
(40,620,cs),
(40,-60,l),
(960,-60,l),
(960,454,ls)
);
},
{
closed = 1;
nodes = (
(776,765,o),
(885,657,o),
(885,454,cs),
(885,15,l),
(115,15,l),
(115,615,ls),
(115,713,o),
(168,765,o),
(265,765,cs),
(574,765,ls)
);
},
{
closed = 1;
nodes = (
(560,160,l),
(620,160,l),
(620,520,l),
(560,520,l)
);
},
{
closed = 1;
nodes = (
(669,468,ls),
(710,468,o),
(737,446,o),
(737,412,cs),
(737,378,o),
(710,356,o),
(669,356,cs),
(584,356,l),
(584,305,l),
(677,305,ls),
(749,305,o),
(795,347,o),
(795,412,cs),
(795,478,o),
(749,520,o),
(677,520,cs),
(586,520,l),
(586,468,l)
);
},
{
closed = 1;
nodes = (
(810,160,l),
(699,329,l),
(632,329,l),
(743,160,l)
);
},
{
closed = 1;
nodes = (
(494,527,l),
(494,589,l),
(205,589,l),
(205,527,l)
);
},
{
closed = 1;
nodes = (
(494,160,l),
(494,222,l),
(205,222,l),
(205,160,l)
);
},
{
closed = 1;
nodes = (
(205,222,l),
(272,200,l),
(494,527,l),
(427,548,l)
);
}
);
width = 1000;
}
);
unicode = 57542;
},
{
color = 5;
glyphname = trigger_r2;
lastChange = "2026-04-28 15:09:14 +0000";
layers = (
{
layerId = m01;
shapes = (
{
closed = 1;
nodes = (
(960,704,o),
(824,840,o),
(574,840,cs),
(260,840,ls),
(118,840,o),
(40,764,o),
(40,620,cs),
(40,-60,l),
(960,-60,l),
(960,454,ls)
);
},
{
closed = 1;
nodes = (
(776,765,o),
(885,657,o),
(885,454,cs),
(885,15,l),
(115,15,l),
(115,615,ls),
(115,713,o),
(168,765,o),
(265,765,cs),
(574,765,ls)
);
},
{
closed = 1;
nodes = (
(212,160,l),
(278,160,l),
(278,580,l),
(212,580,l)
);
},
{
closed = 1;
nodes = (
(584,412,l),
(586,412,l),
(598,444,o),
(628,466,o),
(660,466,cs),
(694,466,o),
(718,441,o),
(718,412,cs),
(718,386,o),
(699,356,o),
(672,331,cs),
(544,210,l),
(594,181,l),
(712,292,ls),
(754,332,o),
(783,373,o),
(783,414,cs),
(783,471,o),
(727,526,o),
(660,526,cs),
(608,526,o),
(564,493,o),
(538,445,c)
);
},
{
closed = 1;
nodes = (
(544,160,l),
(786,160,l),
(786,221,l),
(605,221,l),
(544,210,l)
);
},
{
closed = 1;
nodes = (
(343,523,ls),
(391,523,o),
(422,497,o),
(422,454,cs),
(422,411,o),
(391,385,o),
(343,385,cs),
(240,385,l),
(240,329,l),
(349,329,ls),
(433,329,o),
(487,378,o),
(487,454,cs),
(487,531,o),
(433,580,o),
(349,580,cs),
(243,580,l),
(243,523,l)
);
},
{
closed = 1;
nodes = (
(504,160,l),
(375,357,l),
(298,357,l),
(427,160,l)
);
}
);
width = 1000;
},
{
layerId = m002;
shapes = (
{
closed = 1;
nodes = (
(960,704,o),
(824,840,o),
(574,840,cs),
(260,840,ls),
(118,840,o),
(40,764,o),
(40,620,cs),
(40,-60,l),
(960,-60,l),
(960,454,ls)
);
},
{
closed = 1;
nodes = (
(776,765,o),
(885,657,o),
(885,454,cs),
(885,15,l),
(115,15,l),
(115,615,ls),
(115,713,o),
(168,765,o),
(265,765,cs),
(574,765,ls)
);
},
{
closed = 1;
nodes = (
(212,160,l),
(278,160,l),
(278,580,l),
(212,580,l)
);
},
{
closed = 1;
nodes = (
(584,412,l),
(586,412,l),
(598,444,o),
(628,466,o),
(660,466,cs),
(694,466,o),
(718,441,o),
(718,412,cs),
(718,386,o),
(699,356,o),
(672,331,cs),
(544,210,l),
(594,181,l),
(712,292,ls),
(754,332,o),
(783,373,o),
(783,414,cs),
(783,471,o),
(727,526,o),
(660,526,cs),
(608,526,o),
(564,493,o),
(538,445,c)
);
},
{
closed = 1;
nodes = (
(544,160,l),
(786,160,l),
(786,221,l),
(605,221,l),
(544,210,l)
);
},
{
closed = 1;
nodes = (
(343,523,ls),
(391,523,o),
(422,497,o),
(422,454,cs),
(422,411,o),
(391,385,o),
(343,385,cs),
(240,385,l),
(240,329,l),
(349,329,ls),
(433,329,o),
(487,378,o),
(487,454,cs),
(487,531,o),
(433,580,o),
(349,580,cs),
(243,580,l),
(243,523,l)
);
},
{
closed = 1;
nodes = (
(504,160,l),
(375,357,l),
(298,357,l),
(427,160,l)
);
}
);
width = 1000;
}
);
unicode = 57543;
},
{
color = 5;
glyphname = trigger_lb;
lastChange = "2026-04-28 15:09:14 +0000";
layers = (
{
layerId = m01;
shapes = (
{
closed = 1;
nodes = (
(40,-20,l),
(960,-20,l),
(960,800,l),
(376,800,ls),
(158,800,o),
(40,682,o),
(40,464,cs)
);
},
{
closed = 1;
nodes = (
(885,725,l),
(885,55,l),
(115,55,l),
(115,464,ls),
(115,634,o),
(207,725,o),
(376,725,cs)
);
},
{
closed = 1;
nodes = (
(253,180,l),
(322,180,l),
(322,600,l),
(253,600,l)
);
},
{
closed = 1;
nodes = (
(289,180,l),
(476,180,l),
(476,244,l),
(289,244,l)
);
},
{
closed = 1;
nodes = (
(611,180,l),
(611,600,l),
(543,600,l),
(543,180,l)
);
},
{
closed = 1;
nodes = (
(575,180,l),
(676,180,ls),
(758,180,o),
(811,226,o),
(811,297,cs),
(811,368,o),
(758,414,o),
(676,414,cs),
(572,414,l),
(572,365,l),
(670,365,ls),
(714,365,o),
(743,339,o),
(743,297,cs),
(743,261,o),
(714,239,o),
(670,239,cs),
(575,239,l)
);
},
{
closed = 1;
nodes = (
(575,376,l),
(676,376,ls),
(753,376,o),
(801,418,o),
(801,484,cs),
(801,554,o),
(753,600,o),
(676,600,cs),
(572,600,l),
(572,542,l),
(670,542,ls),
(709,542,o),
(733,520,o),
(733,484,cs),
(733,447,o),
(709,425,o),
(670,425,cs),
(575,425,l)
);
}
);
width = 1000;
},
{
layerId = m002;
shapes = (
{
closed = 1;
nodes = (
(40,-20,l),
(960,-20,l),
(960,800,l),
(376,800,ls),
(158,800,o),
(40,682,o),
(40,464,cs)
);
},
{
closed = 1;
nodes = (
(885,725,l),
(885,55,l),
(115,55,l),
(115,464,ls),
(115,634,o),
(207,725,o),
(376,725,cs)
);
},
{
closed = 1;
nodes = (
(253,180,l),
(322,180,l),
(322,600,l),
(253,600,l)
);
},
{
closed = 1;
nodes = (
(289,180,l),
(476,180,l),
(476,244,l),
(289,244,l)
);
},
{
closed = 1;
nodes = (
(611,180,l),
(611,600,l),
(543,600,l),
(543,180,l)
);
},
{
closed = 1;
nodes = (
(575,180,l),
(676,180,ls),
(758,180,o),
(811,226,o),
(811,297,cs),
(811,368,o),
(758,414,o),
(676,414,cs),
(572,414,l),
(572,365,l),
(670,365,ls),
(714,365,o),
(743,339,o),
(743,297,cs),
(743,261,o),
(714,239,o),
(670,239,cs),
(575,239,l)
);
},
{
closed = 1;
nodes = (
(575,376,l),
(676,376,ls),
(753,376,o),
(801,418,o),
(801,484,cs),
(801,554,o),
(753,600,o),
(676,600,cs),
(572,600,l),
(572,542,l),
(670,542,ls),
(709,542,o),
(733,520,o),
(733,484,cs),
(733,447,o),
(709,425,o),
(670,425,cs),
(575,425,l)
);
}
);
width = 1000;
}
);
unicode = 57544;
},
{
color = 5;
glyphname = trigger_rb;
lastChange = "2026-04-28 15:09:14 +0000";
layers = (
{
layerId = m01;
shapes = (
{
closed = 1;
nodes = (
(960,682,o),
(842,800,o),
(624,800,cs),
(40,800,l),
(40,-20,l),
(960,-20,l),
(960,464,ls)
);
},
{
closed = 1;
nodes = (
(793,725,o),
(885,634,o),
(885,464,cs),
(885,55,l),
(115,55,l),
(115,725,l),
(624,725,ls)
);
},
{
closed = 1;
nodes = (
(206,180,l),
(274,180,l),
(274,600,l),
(206,600,l)
);
},
{
closed = 1;
nodes = (
(323,541,ls),
(372,541,o),
(405,515,o),
(405,472,cs),
(405,431,o),
(372,405,o),
(323,405,cs),
(235,405,l),
(235,347,l),
(328,347,ls),
(416,347,o),
(472,396,o),
(472,472,cs),
(472,550,o),
(416,600,o),
(328,600,cs),
(238,600,l),
(238,541,l)
);
},
{
closed = 1;
nodes = (
(491,180,l),
(376,377,l),
(301,377,l),
(415,180,l)
);
},
{
closed = 1;
nodes = (
(601,180,l),
(601,600,l),
(533,600,l),
(533,180,l)
);
},
{
closed = 1;
nodes = (
(565,180,l),
(666,180,ls),
(748,180,o),
(801,226,o),
(801,297,cs),
(801,368,o),
(748,414,o),
(666,414,cs),
(562,414,l),
(562,365,l),
(660,365,ls),
(704,365,o),
(733,339,o),
(733,297,cs),
(733,261,o),
(704,239,o),
(660,239,cs),
(565,239,l)
);
},
{
closed = 1;
nodes = (
(565,376,l),
(666,376,ls),
(743,376,o),
(791,418,o),
(791,484,cs),
(791,554,o),
(743,600,o),
(666,600,cs),
(562,600,l),
(562,542,l),
(660,542,ls),
(699,542,o),
(723,520,o),
(723,484,cs),
(723,447,o),
(699,425,o),
(660,425,cs),
(565,425,l)
);
}
);
width = 1000;
},
{
layerId = m002;
shapes = (
{
closed = 1;
nodes = (
(960,682,o),
(842,800,o),
(624,800,cs),
(40,800,l),
(40,-20,l),
(960,-20,l),
(960,464,ls)
);
},
{
closed = 1;
nodes = (
(793,725,o),
(885,634,o),
(885,464,cs),
(885,55,l),
(115,55,l),
(115,725,l),
(624,725,ls)
);
},
{
closed = 1;
nodes = (
(206,180,l),
(274,180,l),
(274,600,l),
(206,600,l)
);
},
{
closed = 1;
nodes = (
(323,541,ls),
(372,541,o),
(405,515,o),
(405,472,cs),
(405,431,o),
(372,405,o),
(323,405,cs),
(235,405,l),
(235,347,l),
(328,347,ls),
(416,347,o),
(472,396,o),
(472,472,cs),
(472,550,o),
(416,600,o),
(328,600,cs),
(238,600,l),
(238,541,l)
);
},
{
closed = 1;
nodes = (
(491,180,l),
(376,377,l),
(301,377,l),
(415,180,l)
);
},
{
closed = 1;
nodes = (
(601,180,l),
(601,600,l),
(533,600,l),
(533,180,l)
);
},
{
closed = 1;
nodes = (
(565,180,l),
(666,180,ls),
(748,180,o),
(801,226,o),
(801,297,cs),
(801,368,o),
(748,414,o),
(666,414,cs),
(562,414,l),
(562,365,l),
(660,365,ls),
(704,365,o),
(733,339,o),
(733,297,cs),
(733,261,o),
(704,239,o),
(660,239,cs),
(565,239,l)
);
},
{
closed = 1;
nodes = (
(565,376,l),
(666,376,ls),
(743,376,o),
(791,418,o),
(791,484,cs),
(791,554,o),
(743,600,o),
(666,600,cs),
(562,600,l),
(562,542,l),
(660,542,ls),
(699,542,o),
(723,520,o),
(723,484,cs),
(723,447,o),
(699,425,o),
(660,425,cs),
(565,425,l)
);
}
);
width = 1000;
}
);
unicode = 57545;
},
{
color = 5;
glyphname = trigger_lt;
lastChange = "2026-04-28 15:09:14 +0000";
layers = (
{
layerId = m01;
shapes = (
{
closed = 1;
nodes = (
(40,-60,l),
(960,-60,l),
(960,620,ls),
(960,764,o),
(882,840,o),
(740,840,cs),
(426,840,ls),
(176,840,o),
(40,704,o),
(40,454,cs)
);
},
{
closed = 1;
nodes = (
(735,765,ls),
(832,765,o),
(885,713,o),
(885,615,cs),
(885,15,l),
(115,15,l),
(115,454,ls),
(115,657,o),
(224,765,o),
(426,765,cs)
);
},
{
closed = 1;
nodes = (
(260,160,l),
(326,160,l),
(326,580,l),
(260,580,l)
);
},
{
closed = 1;
nodes = (
(294,160,l),
(500,160,l),
(500,221,l),
(294,221,l)
);
},
{
closed = 1;
nodes = (
(665,160,l),
(665,580,l),
(599,580,l),
(599,160,l)
);
},
{
closed = 1;
nodes = (
(770,519,l),
(770,580,l),
(494,580,l),
(494,519,l)
);
}
);
width = 1000;
},
{
layerId = m002;
shapes = (
{
closed = 1;
nodes = (
(40,-60,l),
(960,-60,l),
(960,620,ls),
(960,764,o),
(882,840,o),
(740,840,cs),
(426,840,ls),
(176,840,o),
(40,704,o),
(40,454,cs)
);
},
{
closed = 1;
nodes = (
(735,765,ls),
(832,765,o),
(885,713,o),
(885,615,cs),
(885,15,l),
(115,15,l),
(115,454,ls),
(115,657,o),
(224,765,o),
(426,765,cs)
);
},
{
closed = 1;
nodes = (
(260,160,l),
(326,160,l),
(326,580,l),
(260,580,l)
);
},
{
closed = 1;
nodes = (
(294,160,l),
(500,160,l),
(500,221,l),
(294,221,l)
);
},
{
closed = 1;
nodes = (
(665,160,l),
(665,580,l),
(599,580,l),
(599,160,l)
);
},
{
closed = 1;
nodes = (
(770,519,l),
(770,580,l),
(494,580,l),
(494,519,l)
);
}
);
width = 1000;
}
);
unicode = 57546;
},
{
color = 5;
glyphname = trigger_rt;
lastChange = "2026-04-28 15:09:14 +0000";
layers = (
{
layerId = m01;
shapes = (
{
closed = 1;
nodes = (
(960,704,o),
(824,840,o),
(574,840,cs),
(260,840,ls),
(118,840,o),
(40,764,o),
(40,620,cs),
(40,-60,l),
(960,-60,l),
(960,454,ls)
);
},
{
closed = 1;
nodes = (
(776,765,o),
(885,657,o),
(885,454,cs),
(885,15,l),
(115,15,l),
(115,615,ls),
(115,713,o),
(168,765,o),
(265,765,cs),
(574,765,ls)
);
},
{
closed = 1;
nodes = (
(212,160,l),
(278,160,l),
(278,580,l),
(212,580,l)
);
},
{
closed = 1;
nodes = (
(343,523,ls),
(391,523,o),
(422,497,o),
(422,454,cs),
(422,411,o),
(391,385,o),
(343,385,cs),
(240,385,l),
(240,329,l),
(349,329,ls),
(433,329,o),
(487,378,o),
(487,454,cs),
(487,531,o),
(433,580,o),
(349,580,cs),
(243,580,l),
(243,523,l)
);
},
{
closed = 1;
nodes = (
(504,160,l),
(375,357,l),
(298,357,l),
(427,160,l)
);
},
{
closed = 1;
nodes = (
(695,160,l),
(695,580,l),
(629,580,l),
(629,160,l)
);
},
{
closed = 1;
nodes = (
(800,519,l),
(800,580,l),
(524,580,l),
(524,519,l)
);
}
);
width = 1000;
},
{
layerId = m002;
shapes = (
{
closed = 1;
nodes = (
(960,704,o),
(824,840,o),
(574,840,cs),
(260,840,ls),
(118,840,o),
(40,764,o),
(40,620,cs),
(40,-60,l),
(960,-60,l),
(960,454,ls)
);
},
{
closed = 1;
nodes = (
(776,765,o),
(885,657,o),
(885,454,cs),
(885,15,l),
(115,15,l),
(115,615,ls),
(115,713,o),
(168,765,o),
(265,765,cs),
(574,765,ls)
);
},
{
closed = 1;
nodes = (
(212,160,l),
(278,160,l),
(278,580,l),
(212,580,l)
);
},
{
closed = 1;
nodes = (
(343,523,ls),
(391,523,o),
(422,497,o),
(422,454,cs),
(422,411,o),
(391,385,o),
(343,385,cs),
(240,385,l),
(240,329,l),
(349,329,ls),
(433,329,o),
(487,378,o),
(487,454,cs),
(487,531,o),
(433,580,o),
(349,580,cs),
(243,580,l),
(243,523,l)
);
},
{
closed = 1;
nodes = (
(504,160,l),
(375,357,l),
(298,357,l),
(427,160,l)
);
},
{
closed = 1;
nodes = (
(695,160,l),
(695,580,l),
(629,580,l),
(629,160,l)
);
},
{
closed = 1;
nodes = (
(800,519,l),
(800,580,l),
(524,580,l),
(524,519,l)
);
}
);
width = 1000;
}
);
unicode = 57547;
},
{
export = 0;
glyphname = btn_all;
lastChange = "2026-04-28 15:09:14 +0000";
layers = (
{
layerId = m01;
shapes = (
{
closed = 1;
nodes = (
(599,510,o),
(675,586,o),
(675,685,cs),
(675,784,o),
(599,860,o),
(500,860,cs),
(401,860,o),
(325,784,o),
(325,685,cs),
(325,586,o),
(401,510,o),
(500,510,cs)
);
},
{
closed = 1;
nodes = (
(599,-100,o),
(675,-24,o),
(675,75,cs),
(675,174,o),
(599,250,o),
(500,250,cs),
(401,250,o),
(325,174,o),
(325,75,cs),
(325,-24,o),
(401,-100,o),
(500,-100,cs)
);
},
{
closed = 1;
nodes = (
(294,215,o),
(370,291,o),
(370,390,cs),
(370,489,o),
(294,565,o),
(195,565,cs),
(96,565,o),
(20,489,o),
(20,390,cs),
(20,291,o),
(96,215,o),
(195,215,cs)
);
},
{
closed = 1;
nodes = (
(904,215,o),
(980,291,o),
(980,390,cs),
(980,489,o),
(904,565,o),
(805,565,cs),
(706,565,o),
(630,489,o),
(630,390,cs),
(630,291,o),
(706,215,o),
(805,215,cs)
);
}
